<svg width="138" height="40" viewBox="0 0 138 40" fill="none" xmlns="http://www.w3.org/2000/svg">
<path fill-rule="evenodd" clip-rule="evenodd" d="M74.7476 12.744H79.6778V29.8551H74.7476V12.744Z" fill="white"/>
<path d="M71.5708 19.7257C71.0391 18.7539 70.2791 17.9234 69.3624 17.3087C70.4958 16.028 71.1641 14.3271 71.0825 12.465C70.9158 8.77231 67.749 5.92184 64.0422 5.92184H53.7652V29.8534H65.5239C69.3224 29.8534 72.4025 26.7854 72.4025 22.9964C72.4025 21.812 72.1025 20.6991 71.5708 19.7257ZM64.7589 25.792H58.6937V19.9183H64.7239C66.3073 19.9183 67.6473 21.1725 67.6473 22.8568C67.6473 24.5196 66.3106 25.792 64.7589 25.792ZM63.4705 15.8569H58.6937V9.98492H63.4339C65.0189 9.98492 66.359 11.2374 66.359 12.9218C66.3556 14.5829 65.0189 15.8569 63.4705 15.8569Z" fill="white"/>
<path d="M138 6.63113H132.328L127.898 13.7091L123.469 6.63113H117.796L125.063 18.2423L117.796 29.8551H123.469L127.898 22.7771L132.328 29.8551H138L130.735 18.2423L138 6.63113Z" fill="white"/>
<path d="M97.2601 20.337V29.8534H92.3316V19.4848C92.3316 17.9765 91.0832 16.7589 89.5565 16.8021C88.0865 16.847 86.9514 18.1277 86.9514 19.5961V29.8501H82.0212V12.739H86.9514V13.5546C88.0615 13.0314 89.2982 12.739 90.6065 12.739C91.2616 12.739 91.8999 12.8121 92.5133 12.9517C95.245 13.5713 97.1751 16.0031 97.2451 18.7938C97.2551 19.2954 97.2601 19.8137 97.2601 20.337Z" fill="white"/>
<path fill-rule="evenodd" clip-rule="evenodd" d="M74.7476 5.92184H79.6778V10.8354H74.7476V5.92184Z" fill="white"/>
<path d="M116.476 12.744H107.974C107.945 12.744 107.919 12.7407 107.889 12.7407C103.149 12.7407 99.3051 16.5729 99.3051 21.2987C99.3051 26.0013 103.11 29.8152 107.815 29.8501C107.837 29.8551 107.862 29.8551 107.889 29.8551C109.719 29.8551 111.545 30.39 111.545 31.9763C111.545 33.5859 109.89 34.953 107.889 34.953C105.87 34.953 104.234 33.3218 104.234 31.3102H99.3034C99.3034 36.0344 103.149 39.8666 107.887 39.8666C112.631 39.8666 116.471 36.0344 116.471 31.3102C116.471 31.3102 116.566 28.7538 114.391 26.8834C115.691 25.3867 116.472 23.4382 116.472 21.2987C116.472 19.6492 116.006 18.1111 115.194 16.8054H116.476V12.744ZM107.889 24.9415C105.87 24.9415 104.234 23.3103 104.234 21.2987C104.234 19.2871 105.87 17.6559 107.889 17.6559C109.907 17.6559 111.545 19.2871 111.545 21.2987C111.545 23.3103 109.907 24.9415 107.889 24.9415Z" fill="white"/>
<path d="M45.6766 -3.05176e-05C40.4031 -3.05176e-05 35.1896 1.32886 30.5961 3.84544C28.136 5.1926 25.8642 6.86367 23.8458 8.81547C23.3708 9.27228 22.9058 9.75068 22.4608 10.239C20.9724 11.8736 19.6523 13.6676 18.544 15.5695C18.1506 16.2523 17.7139 16.9184 17.2473 17.5546C17.1856 17.6376 17.1273 17.7207 17.0606 17.8021C12.9788 23.1857 6.76023 26.2721 0 26.2721V36.2188C5.27352 36.2188 10.487 34.8899 15.0805 32.375C17.5356 31.0311 19.8074 29.3567 21.8308 27.4049C22.3058 26.9465 22.7708 26.4681 23.2175 25.9814C24.7075 24.3452 26.0226 22.5545 27.1309 20.6509L27.2043 20.5279C27.5793 19.8868 27.9926 19.2622 28.4277 18.6675C28.4893 18.5861 28.551 18.5014 28.616 18.415C32.6961 13.033 38.9163 9.94503 45.6766 9.94503V-3.05176e-05Z" fill="white"/>
<path d="M45.6766 26.2754C38.9163 26.2754 32.6961 23.1874 28.6127 17.8037C28.5527 17.7223 28.4893 17.6409 28.4277 17.5529C27.9626 16.9217 27.526 16.2539 27.1326 15.5695C26.0242 13.6692 24.7059 11.8769 23.2158 10.2407C22.7708 9.75565 22.3058 9.27725 21.8308 8.81878C19.8124 6.86698 17.5423 5.19425 15.0805 3.84875C10.487 1.33383 5.27352 0.00494199 0 0.00494199V9.95166C6.76023 9.95166 12.9804 13.038 17.0639 18.4217C17.1273 18.503 17.1873 18.5878 17.2489 18.6692C17.6873 19.2655 18.1006 19.8917 18.4706 20.5263L18.549 20.6558C19.6557 22.5545 20.9724 24.3452 22.4608 25.983C22.9041 26.4681 23.3708 26.9465 23.8458 27.4049C25.8676 29.3567 28.1393 31.0311 30.5961 32.375C35.1896 34.8899 40.4031 36.2188 45.6766 36.2188V26.2754Z" fill="white"/>
</svg>
