<svg width="160" height="43" viewBox="0 0 160 43" fill="none" xmlns="http://www.w3.org/2000/svg">
<g clip-path="url(#clip0_55_96)">
<path fill-rule="evenodd" clip-rule="evenodd" d="M159.366 12.5208C159.578 12.5208 159.718 12.5915 159.859 12.6622C160 12.8036 160 12.945 160 13.1571V17.1164C160 17.3285 159.93 17.47 159.859 17.6114C159.718 17.7528 159.578 17.7528 159.366 17.7528H155.917V33.5901C155.917 33.8022 155.846 33.9436 155.776 34.085C155.635 34.2265 155.494 34.2265 155.283 34.2265H150.144C149.933 34.2265 149.792 34.1557 149.651 34.085C149.51 33.9436 149.51 33.8022 149.51 33.5901V17.7528H146.061C145.85 17.7528 145.709 17.6821 145.568 17.6114C145.427 17.47 145.427 17.3285 145.427 17.1164V13.1571C145.427 12.945 145.498 12.8036 145.568 12.6622C145.709 12.5208 145.85 12.5208 146.061 12.5208H149.51V6.93527C149.51 6.72317 149.581 6.58176 149.651 6.44036C149.792 6.29895 149.933 6.29895 150.144 6.29895H155.283C155.494 6.29895 155.635 6.36965 155.776 6.44036C155.917 6.58176 155.917 6.72317 155.917 6.93527V12.5208H159.366Z" fill="white"/>
<path fill-rule="evenodd" clip-rule="evenodd" d="M144.512 23.0555C144.512 24.0453 144.442 24.7523 144.23 25.1765C144.019 25.6008 143.597 25.8129 142.963 25.8129H130.15C130.432 27.0148 131.066 27.8632 131.981 28.4996C132.896 29.0652 134.093 29.348 135.571 29.348C136.275 29.348 136.979 29.2773 137.613 29.0652C138.246 28.8531 138.95 28.4996 139.654 28.0753C139.795 27.9339 139.936 27.9339 140.147 27.9339C140.288 27.9339 140.429 28.0046 140.64 28.2167L142.893 30.4085C143.034 30.5499 143.034 30.6913 143.034 30.8327C143.034 30.9741 142.963 31.1863 142.752 31.3277C141.696 32.3882 140.499 33.1659 139.162 33.8023C137.824 34.3679 136.416 34.6507 134.867 34.6507C132.685 34.6507 130.784 34.1558 129.024 33.1659C127.334 32.1761 125.997 30.8327 125.082 29.1359C124.166 27.439 123.674 25.6008 123.674 23.5504C123.674 21.5 124.166 19.6617 125.082 17.9649C125.997 16.268 127.334 14.9247 128.954 14.0055C130.573 13.0157 132.403 12.5208 134.445 12.5208C136.416 12.5208 138.176 13.0157 139.725 13.9348C141.274 14.9247 142.4 16.1973 143.245 17.8235C144.09 19.4496 144.512 21.2172 144.512 23.1969V23.0555ZM134.515 17.8942C133.389 17.8942 132.403 18.2477 131.629 18.884C130.854 19.5203 130.291 20.4395 130.08 21.5707H138.81C138.598 20.3688 138.106 19.4496 137.331 18.884C136.557 18.2477 135.642 17.8942 134.515 17.8942Z" fill="white"/>
<path fill-rule="evenodd" clip-rule="evenodd" d="M120.864 12.8743C121.075 12.8743 121.216 12.945 121.357 13.0157C121.498 13.1571 121.498 13.2985 121.498 13.5106V34.1558C121.498 36.2768 120.934 38.0444 119.808 39.3171C118.682 40.6604 117.274 41.5795 115.514 42.1452C113.824 42.7108 112.064 42.9936 110.234 42.9936C108.403 42.9936 106.714 42.7108 105.024 42.2159C103.405 41.7209 101.997 41.0139 100.87 40.1655C100.73 40.0241 100.589 39.8827 100.589 39.6706C100.589 39.5292 100.589 39.3878 100.659 39.2464L102.349 36.2061C102.49 35.994 102.701 35.8526 102.842 35.8526C102.982 35.8526 103.123 35.8526 103.194 35.9233C104.179 36.489 105.165 36.9132 106.221 37.196C107.277 37.4788 108.474 37.6202 109.741 37.6202C111.219 37.6202 112.557 37.2667 113.754 36.6304C114.95 35.994 115.584 35.0042 115.584 33.5194V31.4691C113.894 33.378 111.853 34.3679 109.389 34.3679C107.488 34.3679 105.728 33.873 104.179 32.8831C102.63 31.8933 101.434 30.5499 100.518 28.8531C99.6736 27.1562 99.2512 25.318 99.2512 23.3383C99.2512 21.3586 99.6736 19.5203 100.518 17.8235C101.434 16.1266 102.63 14.7833 104.179 13.7934C105.728 12.8036 107.488 12.3087 109.389 12.3087C111.712 12.3087 113.754 13.2278 115.443 15.1368L115.584 13.4399C115.654 13.0157 115.866 12.8036 116.218 12.8036H120.934L120.864 12.8743ZM110.163 28.4996C111.501 28.4996 112.627 28.0046 113.542 26.9441C114.458 25.9543 114.95 24.7523 114.95 23.409C114.95 22.0656 114.458 20.8637 113.542 19.8739C112.627 18.884 111.501 18.3184 110.163 18.3184C108.826 18.3184 107.699 18.8133 106.784 19.8032C105.869 20.793 105.376 21.9242 105.376 23.3383C105.376 24.7523 105.798 25.9543 106.714 26.9441C107.629 27.9339 108.755 28.3582 110.163 28.3582V28.4996Z" fill="white"/>
<path fill-rule="evenodd" clip-rule="evenodd" d="M97.0688 12.5208C97.28 12.5208 97.4208 12.5915 97.5616 12.6622C97.7024 12.8036 97.7024 12.945 97.7024 13.1571V17.1164C97.7024 17.3285 97.632 17.47 97.5616 17.6114C97.4208 17.7528 97.28 17.7528 97.0688 17.7528H93.6192V33.5901C93.6192 33.8022 93.5488 33.9436 93.4784 34.085C93.3376 34.2265 93.1968 34.2265 92.9856 34.2265H87.8464C87.6352 34.2265 87.4944 34.1557 87.3536 34.085C87.2128 33.9436 87.2128 33.8022 87.2128 33.5901V17.7528H83.7632C83.552 17.7528 83.4112 17.6821 83.2704 17.6114C83.1296 17.47 83.1296 17.3285 83.1296 17.1164V13.1571C83.1296 12.945 83.2 12.8036 83.2704 12.6622C83.4112 12.5208 83.552 12.5208 83.7632 12.5208H87.2128V6.93527C87.2128 6.72317 87.2832 6.58176 87.3536 6.44036C87.4944 6.29895 87.6352 6.29895 87.8464 6.29895H92.9856C93.1968 6.29895 93.3376 6.36965 93.4784 6.44036C93.6192 6.58176 93.6192 6.72317 93.6192 6.93527V12.5208H97.0688Z" fill="white"/>
<path fill-rule="evenodd" clip-rule="evenodd" d="M77.4336 10.7532C76.448 10.7532 75.6032 10.3997 74.9696 9.76338C74.336 9.05635 73.984 8.20792 73.984 7.28879C73.984 6.29895 74.336 5.45052 74.9696 4.8142C75.6032 4.10717 76.448 3.75366 77.4336 3.75366C78.4192 3.75366 79.264 4.10717 79.8976 4.8142C80.5312 5.52123 80.8832 6.29895 80.8832 7.28879C80.8832 8.27863 80.5312 9.05635 79.8976 9.76338C79.264 10.4704 78.4192 10.7532 77.4336 10.7532ZM74.1952 13.1571C74.1952 12.945 74.2656 12.8036 74.336 12.6622C74.4768 12.5208 74.6176 12.5208 74.8288 12.5208H79.968C80.1792 12.5208 80.32 12.5915 80.4608 12.6622C80.6016 12.8036 80.6016 12.945 80.6016 13.1571V33.6608C80.6016 33.8729 80.5312 34.0144 80.4608 34.1558C80.32 34.2972 80.1792 34.2972 79.968 34.2972H74.8288C74.6176 34.2972 74.4768 34.2265 74.336 34.1558C74.1952 34.0144 74.1952 33.8729 74.1952 33.6608V13.1571Z" fill="white"/>
<path fill-rule="evenodd" clip-rule="evenodd" d="M65.888 17.9649C67.5072 18.3891 68.8448 19.3082 70.0416 20.6516C71.2384 21.9949 71.8016 23.6211 71.8016 25.5301C71.8016 28.4996 70.8864 30.6913 68.9856 32.1761C67.1552 33.6609 64.3392 34.3679 60.5376 34.3679H49.9072C49.696 34.3679 49.5552 34.2972 49.4144 34.2265C49.2736 34.0851 49.2736 33.9437 49.2736 33.7316V4.3193C49.2736 4.10719 49.344 3.96579 49.4144 3.82438C49.5552 3.68298 49.696 3.61227 49.9072 3.61227H60.4672C62.368 3.61227 63.9872 3.96579 65.3248 4.67281C66.7328 5.37984 67.7184 6.29897 68.4224 7.50091C69.1264 8.70286 69.4784 10.0462 69.4784 11.531C69.4784 13.0864 69.1264 14.3591 68.4224 15.4903C67.7184 16.6215 66.8736 17.3993 65.8176 17.8942L65.888 17.9649ZM63.2832 12.4501C63.2832 10.6118 62.1568 9.62199 59.904 9.62199H55.9616V15.4903H59.904C60.96 15.4903 61.8048 15.2075 62.4384 14.7126C63.072 14.2177 63.3536 13.4399 63.3536 12.3794L63.2832 12.4501ZM60.7488 28.3582C62.0864 28.3582 63.1424 28.0754 63.9168 27.439C64.6912 26.8027 65.1136 25.8836 65.1136 24.6816C65.1136 23.4797 64.6912 22.6313 63.9168 22.0656C63.1424 21.5 62.0864 21.2172 60.7488 21.2172H55.8912V28.4289H60.7488V28.3582Z" fill="white"/>
<path fill-rule="evenodd" clip-rule="evenodd" d="M12.3904 0.925572C12.9536 0.359952 13.728 0.00643921 14.5024 0.00643921H19.712C20.3456 0.00643921 20.6976 0.784167 20.2752 1.27908L9.9968 12.3087H15.6992L21.472 18.4598H9.9968L21.472 30.762H14.5728C13.7984 30.762 13.024 30.4085 12.4608 29.8429L0.844795 17.3993C-0.211205 16.268 -0.211205 14.5712 0.844795 13.4399L12.4608 0.996275L12.3904 0.925572Z" fill="white"/>
<path fill-rule="evenodd" clip-rule="evenodd" d="M28.3648 42.0744C27.8016 42.6401 27.0272 42.9936 26.2528 42.9936H21.0432C20.4096 42.9936 20.0576 42.2159 20.48 41.7209L30.7584 30.6913H25.056L19.2832 24.5402H30.7584L19.2896 12.238H26.1888C26.9632 12.238 27.7376 12.5915 28.3008 13.1571L39.9168 25.6008C40.9728 26.732 40.9728 28.4289 39.9168 29.5601L28.2944 42.0037L28.3648 42.0744Z" fill="white"/>
</g>
<defs>
<clipPath id="clip0_55_96">
<rect width="160" height="43" fill="white"/>
</clipPath>
</defs>
</svg>
