<svg width="188" height="42" viewBox="0 0 188 42" fill="none" xmlns="http://www.w3.org/2000/svg">
<path d="M69.1732 34.9873C67.4815 34.9873 65.8707 34.6888 64.3407 34.0917C62.8107 33.4822 61.4549 32.5867 60.2732 31.405C59.1039 30.2233 58.1772 28.7617 57.4931 27.0203C56.8214 25.2788 56.4856 23.27 56.4856 20.9937C56.4856 18.0208 57.0515 15.4957 58.1835 13.4184C59.3278 11.3287 60.8578 9.73654 62.7734 8.64192C64.7014 7.54731 66.8347 7 69.1732 7C72.6312 7 75.349 7.8023 77.3268 9.40691C79.3046 11.0115 80.6293 13.2816 81.301 16.2172L76.114 16.9635C75.6289 15.3962 74.8328 14.1461 73.7258 13.2132C72.6312 12.2678 71.2256 11.7889 69.509 11.7765C67.8049 11.7516 66.3869 12.1186 65.2549 12.8773C64.123 13.6361 63.2709 14.7121 62.6988 16.1052C62.139 17.4984 61.8591 19.1278 61.8591 20.9937C61.8591 22.8595 62.139 24.4765 62.6988 25.8448C63.2709 27.2131 64.123 28.2766 65.2549 29.0354C66.3869 29.7941 67.8049 30.186 69.509 30.2108C70.6658 30.2357 71.7107 30.0367 72.6436 29.6138C73.5889 29.1909 74.385 28.5254 75.0318 27.6173C75.6787 26.7093 76.1389 25.5463 76.4126 24.1283H72.1585V20.21H81.8234C81.8483 20.3717 81.867 20.6578 81.8794 21.0683C81.8919 21.4788 81.8981 21.7151 81.8981 21.7773C81.8981 24.3522 81.3756 26.6347 80.3308 28.6249C79.2859 30.6151 77.8119 32.1762 75.9088 33.3081C74.0056 34.4276 71.7604 34.9873 69.1732 34.9873Z" fill="white"/>
<path d="M91.2351 34.9873C89.7922 34.9873 88.5669 34.7137 87.5594 34.1664C86.5643 33.6066 85.8055 32.8665 85.2831 31.9461C84.7731 31.0131 84.5181 29.9869 84.5181 28.8674C84.5181 27.9345 84.6611 27.0825 84.9472 26.3113C85.2333 25.5401 85.6936 24.8621 86.3279 24.2775C86.9748 23.6805 87.8393 23.1829 88.9214 22.7849C89.6678 22.5112 90.5571 22.2687 91.5896 22.0572C92.622 21.8457 93.7912 21.6467 95.0973 21.4601C96.4034 21.2611 97.8401 21.0434 99.4074 20.8071L97.5789 21.8146C97.5789 20.6205 97.2928 19.7436 96.7206 19.1838C96.1484 18.6241 95.1906 18.3442 93.8472 18.3442C93.1009 18.3442 92.3235 18.5246 91.5149 18.8853C90.7064 19.246 90.1404 19.8866 89.817 20.8071L85.2271 19.3517C85.7371 17.6849 86.6949 16.3291 88.1005 15.2843C89.5061 14.2394 91.4216 13.717 93.8472 13.717C95.626 13.717 97.2057 13.9906 98.5864 14.5379C99.9671 15.0852 101.012 16.0306 101.721 17.374C102.119 18.1203 102.355 18.8666 102.43 19.613C102.505 20.3593 102.542 21.1927 102.542 22.1132V34.4276H98.1013V30.2855L98.7357 31.1437C97.753 32.4996 96.6895 33.4822 95.5451 34.0917C94.4132 34.6888 92.9765 34.9873 91.2351 34.9873ZM92.3172 30.9945C93.2501 30.9945 94.0338 30.8328 94.6682 30.5094C95.315 30.1735 95.825 29.7941 96.1981 29.3712C96.5838 28.9483 96.845 28.5938 96.9818 28.3077C97.243 27.7604 97.3923 27.126 97.4296 26.4046C97.4793 25.6707 97.5042 25.0612 97.5042 24.5761L98.9969 24.9492C97.4918 25.198 96.2728 25.4095 95.3399 25.5836C94.407 25.7453 93.6544 25.8946 93.0822 26.0314C92.51 26.1682 92.0063 26.3175 91.5709 26.4792C91.0733 26.6782 90.6691 26.8959 90.3581 27.1322C90.0596 27.3561 89.8357 27.6049 89.6864 27.8786C89.5496 28.1522 89.4812 28.457 89.4812 28.7928C89.4812 29.253 89.5931 29.6511 89.817 29.9869C90.0534 30.3103 90.383 30.5591 90.8059 30.7333C91.2288 30.9074 91.7326 30.9945 92.3172 30.9945Z" fill="white"/>
<path d="M119.484 34.4276C118.091 34.6888 116.722 34.8008 115.379 34.7634C114.048 34.7386 112.854 34.5084 111.797 34.0731C110.752 33.6253 109.956 32.9101 109.408 31.9274C108.911 31.0069 108.65 30.074 108.625 29.1287C108.6 28.1709 108.588 27.0887 108.588 25.8821V8.67924H113.663V25.5836C113.663 26.3672 113.669 27.0763 113.681 27.7106C113.706 28.3326 113.837 28.8301 114.073 29.2033C114.521 29.9123 115.236 30.2979 116.219 30.3601C117.201 30.4223 118.29 30.3725 119.484 30.2108V34.4276ZM105.154 18.1949V14.2767H119.484V18.1949H105.154Z" fill="white"/>
<path d="M132.248 34.9873C130.183 34.9873 128.36 34.5458 126.781 33.6626C125.213 32.767 123.982 31.5418 123.086 29.9869C122.203 28.4196 121.762 26.6285 121.762 24.6134C121.762 22.4117 122.197 20.4961 123.068 18.8666C123.938 17.2371 125.139 15.9746 126.669 15.079C128.199 14.171 129.959 13.717 131.949 13.717C134.064 13.717 135.861 14.2145 137.341 15.2096C138.822 16.2047 139.916 17.6041 140.625 19.4077C141.334 21.2113 141.583 23.3322 141.371 25.7702H136.352V23.9044C136.352 21.8519 136.023 20.3779 135.364 19.4824C134.717 18.5743 133.653 18.1203 132.173 18.1203C130.444 18.1203 129.169 18.649 128.348 19.7063C127.539 20.7511 127.135 22.2997 127.135 24.3522C127.135 26.2304 127.539 27.6858 128.348 28.7182C129.169 29.7382 130.369 30.2482 131.949 30.2482C132.944 30.2482 133.796 30.0305 134.505 29.5951C135.214 29.1598 135.755 28.5316 136.129 27.7106L141.204 29.166C140.445 31.0069 139.244 32.4374 137.603 33.4574C135.973 34.4774 134.188 34.9873 132.248 34.9873ZM125.568 25.7702V22.0012H138.927V25.7702H125.568Z" fill="white"/>
<path d="M145.677 34.4276V29.3526H150.752V34.4276H145.677Z" fill="white"/>
<path d="M157.182 11.478V7H162.257V11.478H157.182ZM157.182 34.4276V14.2767H162.257V34.4276H157.182Z" fill="white"/>
<path d="M176.918 34.9873C174.891 34.9873 173.112 34.5333 171.582 33.6253C170.052 32.7173 168.858 31.4672 168 29.875C167.154 28.2704 166.731 26.4294 166.731 24.3522C166.731 22.25 167.166 20.4028 168.037 18.8107C168.908 17.2061 170.108 15.9559 171.638 15.0604C173.168 14.1648 174.928 13.717 176.918 13.717C178.946 13.717 180.725 14.171 182.255 15.079C183.797 15.987 184.997 17.2434 185.856 18.848C186.714 20.4401 187.143 22.2749 187.143 24.3522C187.143 26.4419 186.708 28.289 185.837 29.8936C184.979 31.4858 183.778 32.7359 182.236 33.6439C180.706 34.5395 178.933 34.9873 176.918 34.9873ZM176.918 30.2482C178.548 30.2482 179.761 29.7008 180.557 28.6062C181.365 27.4992 181.769 26.0811 181.769 24.3522C181.769 22.561 181.359 21.1305 180.538 20.0608C179.729 18.991 178.523 18.4562 176.918 18.4562C175.811 18.4562 174.903 18.7049 174.194 19.2025C173.485 19.7 172.957 20.3904 172.608 21.2735C172.272 22.1567 172.104 23.1829 172.104 24.3522C172.104 26.1558 172.509 27.5925 173.317 28.6622C174.138 29.7195 175.339 30.2482 176.918 30.2482Z" fill="white"/>
<g clip-path="url(#clip0_91_80)">
<path fill-rule="evenodd" clip-rule="evenodd" d="M21 32.55C14.621 32.55 9.45 27.379 9.45 21C9.45 14.621 14.621 9.45 21 9.45V0C9.40128 0 0 9.40128 0 21C0 32.597 9.40128 42 21 42C32.597 42 42 32.5987 42 21H32.55C32.55 27.379 27.379 32.55 21 32.55Z" fill="white"/>
<path fill-rule="evenodd" clip-rule="evenodd" d="M21 21H32.55V9.45001H21V21Z" fill="#17E6A1"/>
</g>
<defs>
<clipPath id="clip0_91_80">
<rect width="42" height="42" fill="white"/>
</clipPath>
</defs>
</svg>
