<svg width="190" height="49" viewBox="0 0 190 49" fill="none" xmlns="http://www.w3.org/2000/svg">
<g clip-path="url(#clip0_126_105)">
<mask id="mask0_126_105" style="mask-type:alpha" maskUnits="userSpaceOnUse" x="0" y="0" width="50" height="49">
<path d="M25.0955 49C38.6265 49 49.5955 38.031 49.5955 24.5C49.5955 10.969 38.6265 0 25.0955 0C11.5645 0 0.59552 10.969 0.59552 24.5C0.59552 38.031 11.5645 49 25.0955 49Z" fill="#C4C4C4"/>
</mask>
<g mask="url(#mask0_126_105)">
<path d="M52.8382 -3.96336H-3.00739V51.8822H52.8382V-3.96336Z" fill="#3A3A3A"/>
<path d="M22.4399 6.40838L22.4382 8.55587L22.4024 8.56253C22.3826 8.56634 22.343 8.57357 22.3143 8.57852C22.1618 8.60498 21.8522 8.66512 21.7416 8.68941C21.3648 8.7722 21.2041 8.81134 20.9182 8.88861C20.8455 8.90847 20.7811 8.92559 20.775 8.92724C20.7442 8.93549 20.5255 8.9995 20.4501 9.02266C20.4291 9.02875 20.4005 9.03757 20.3867 9.04144C20.2094 9.09498 19.749 9.25167 19.6378 9.29583C19.6273 9.30021 19.5876 9.31512 19.5496 9.32894C19.4152 9.37913 19.1707 9.47625 19.1118 9.50271C19.1057 9.50549 19.0672 9.52148 19.0264 9.53918C18.9856 9.55625 18.9416 9.57502 18.929 9.58054C18.9157 9.58663 18.864 9.60979 18.8133 9.63186C18.7191 9.67323 18.6965 9.6837 18.5754 9.74054C18.5379 9.75875 18.5065 9.77309 18.5049 9.77309C18.5021 9.77309 18.1254 9.96181 18.0725 9.98997C18.0472 10.0037 18.002 10.0275 17.9718 10.0435C17.5014 10.2918 16.981 10.6228 16.5233 10.9644C16.3195 11.1167 16.0216 11.36 15.8734 11.4946C15.5573 11.7832 15.304 12.0376 15.0876 12.2853C14.8237 12.5866 14.6117 12.8636 14.4024 13.1803C14.3661 13.235 14.3281 13.2935 14.3176 13.31C14.3077 13.3265 14.278 13.3751 14.2515 13.4176C14.2036 13.496 14.1078 13.662 14.0643 13.7431C14.0516 13.7674 14.039 13.7895 14.0367 13.7928C14.0307 13.8 13.8936 14.0748 13.8726 14.1211C13.8638 14.1409 13.8462 14.1779 13.8346 14.2039C13.8225 14.2298 13.7972 14.2866 13.7784 14.3308C13.7591 14.3749 13.7404 14.418 13.7366 14.4273C13.6754 14.5675 13.546 14.9289 13.4992 15.0895C13.4915 15.1165 13.4739 15.1777 13.4607 15.2247C13.3946 15.4536 13.3252 15.767 13.2877 16.0054C13.2817 16.0446 13.2739 16.092 13.2712 16.1102C13.2585 16.1848 13.2376 16.3657 13.2244 16.5158C13.22 16.5688 13.2134 16.6432 13.2101 16.6813C13.1935 16.8711 13.1952 17.5272 13.2128 17.7931C13.2387 18.1805 13.2817 18.5557 13.3263 18.7919C13.3296 18.8068 13.3368 18.8481 13.3434 18.8829C13.448 19.4667 13.6254 20.04 13.8616 20.5564C13.9558 20.7639 14.1166 21.0641 14.2201 21.2279C14.2796 21.3223 14.2951 21.3461 14.3413 21.4156C14.4735 21.6131 14.6343 21.8245 14.7836 21.9966C14.9085 22.1401 14.9432 22.1892 15.0336 22.3453C15.2688 22.7536 15.4257 23.2243 15.5011 23.7523C15.5116 23.8246 15.5149 23.8533 15.5287 23.9951C15.5518 24.2274 15.5507 24.5806 15.5265 24.8835C15.5105 25.0744 15.5188 25.3061 15.5457 25.4573C15.581 25.6521 15.6394 25.7829 15.7275 25.8645C15.8338 25.9633 15.9737 25.9727 16.0684 25.8872C16.1885 25.779 16.2413 25.5202 16.2177 25.161C16.2111 25.0672 16.1989 24.964 16.1736 24.8034C16.1675 24.7626 16.156 24.6843 16.1488 24.6297C16.1411 24.5751 16.1323 24.5127 16.1296 24.4917C16.107 24.3372 16.0949 24.1375 16.0982 23.9758C16.1009 23.8588 16.1031 23.8318 16.1152 23.775C16.1466 23.6271 16.2039 23.5598 16.2975 23.5598C16.3895 23.5598 16.4809 23.6144 16.5398 23.7054C16.6158 23.8224 16.6494 23.9681 16.6808 24.3151C16.7078 24.6164 16.7376 24.734 16.8042 24.8007C16.8411 24.8377 16.8752 24.8498 16.9325 24.8465C17.0162 24.8416 17.0713 24.7941 17.0994 24.703C17.1203 24.6357 17.1236 24.5386 17.1137 24.3201C17.1011 24.042 17.1099 23.9664 17.1616 23.9124C17.1925 23.8798 17.2173 23.8737 17.2712 23.8848C17.4276 23.9173 17.5951 24.0486 17.7525 24.2627C17.7994 24.3262 17.8253 24.3665 17.8919 24.4779C18.0472 24.7361 18.1755 24.8818 18.3507 24.9971C18.4564 25.0667 18.5803 25.1163 18.7797 25.1676C19.0099 25.2267 19.0683 25.2487 19.168 25.315C19.3679 25.4468 19.521 25.7442 19.597 26.147C19.6553 26.4566 19.6818 26.7325 19.7044 27.2616C19.7126 27.4492 19.7126 28.2664 19.7044 28.5252C19.6934 28.8916 19.6873 29.061 19.6807 29.2314C19.6703 29.4924 19.6719 29.9146 19.6835 30.0343C19.7066 30.2699 19.7468 30.4023 19.8233 30.4962C19.8464 30.5243 19.9048 30.564 19.9434 30.5778C19.9847 30.5922 20.0948 30.5955 20.1367 30.5833C20.2507 30.5502 20.3151 30.4686 20.3532 30.3102C20.3785 30.2054 20.3878 30.0023 20.3757 29.8191C20.3647 29.6597 20.346 29.4378 20.3399 29.4025C20.3383 29.3931 20.3333 29.3451 20.3289 29.2949C20.324 29.2447 20.3168 29.168 20.3124 29.1239C20.2931 28.9241 20.2854 28.8077 20.2738 28.5252C20.2408 27.7279 20.2507 27.0966 20.3047 26.6381C20.3433 26.3092 20.3884 26.1112 20.4611 25.9594C20.4947 25.8883 20.5299 25.8386 20.5679 25.8088C20.6114 25.7741 20.6351 25.7674 20.7018 25.7702C20.7827 25.7735 20.7993 25.7829 20.8962 25.8822C20.9386 25.9252 20.9871 25.971 21.0036 25.9832C21.0437 26.013 21.112 26.0466 21.1633 26.0609C21.2393 26.083 21.2723 26.1067 21.3125 26.1686C21.41 26.3181 21.4524 26.6878 21.4243 27.1513C21.415 27.3102 21.4172 27.3924 21.4337 27.4741C21.4623 27.6175 21.5246 27.7047 21.6204 27.7362C21.6617 27.7499 21.7492 27.7499 21.7911 27.7362C21.8302 27.7235 21.8743 27.6942 21.8958 27.6672C21.9195 27.6374 21.942 27.5844 21.9536 27.532C21.9629 27.4923 21.9635 27.4531 21.9646 27.1375C21.9652 26.8147 21.9662 26.7794 21.9773 26.6878C21.9894 26.5835 21.9982 26.5344 22.0175 26.4626C22.0621 26.2933 22.1425 26.205 22.2515 26.205C22.3116 26.205 22.3451 26.2298 22.3755 26.2966C22.4129 26.3793 22.4288 26.4892 22.4355 26.7126C22.4415 26.9394 22.4432 33.42 22.4366 33.4244C22.4294 33.4288 22.278 33.3896 22.094 33.3356C21.9255 33.2859 21.9029 33.2793 21.8434 33.2605C21.6044 33.1844 21.2007 33.0437 21.1385 33.0139C21.1324 33.0112 21.0675 32.9852 20.9947 32.9565C20.8725 32.9079 20.7354 32.8506 20.6632 32.8175C20.6473 32.8103 20.6329 32.8042 20.6318 32.8042C20.6307 32.8042 20.6164 32.7981 20.6004 32.791C20.5844 32.7838 20.5305 32.759 20.4804 32.7363C19.8454 32.4478 19.1944 32.077 18.5886 31.6604C18.2471 31.4253 17.9062 31.1655 17.5951 30.9033C17.5626 30.8758 17.5223 30.8427 17.5064 30.8288C17.2183 30.5866 16.8119 30.2026 16.509 29.8859L16.417 29.7904L16.3603 29.8412C16.286 29.9074 16.2502 29.9399 16.0772 30.0956C15.9984 30.1667 15.8756 30.2765 15.8046 30.3406C15.7341 30.404 15.6113 30.5144 15.5325 30.5856C15.4532 30.6567 15.369 30.7323 15.3447 30.7538C15.3205 30.7754 15.2847 30.8079 15.2649 30.8261C15.245 30.8443 15.2076 30.878 15.1823 30.9012C15.1564 30.9238 15.1079 30.9673 15.0743 30.9977C15.0413 31.0275 14.9939 31.07 14.9697 31.0915C14.9212 31.1351 14.7213 31.315 14.485 31.5274C14.4008 31.6036 14.3192 31.677 14.3038 31.6907C14.289 31.704 14.2355 31.752 14.1854 31.7972C14.1353 31.8419 14.061 31.9087 14.0202 31.9451C13.9794 31.982 13.942 32.0157 13.937 32.0207C13.9321 32.0251 13.8732 32.0787 13.8054 32.1393C13.6358 32.2911 13.5097 32.4047 13.4833 32.4285C13.4711 32.4401 13.4463 32.4621 13.4282 32.4787C13.41 32.4947 13.3753 32.5261 13.3511 32.5477C13.3268 32.5697 13.2663 32.6244 13.2161 32.669C13.166 32.7137 13.1054 32.7684 13.0812 32.7904C13.0113 32.8533 12.7601 33.079 12.6516 33.1761C12.5971 33.2252 12.5365 33.2798 12.5167 33.298C12.4743 33.3372 12.4088 33.3957 12.3526 33.4448C12.3311 33.4641 12.3129 33.4829 12.3129 33.4862C12.3129 33.4978 12.5839 33.7737 12.8229 34.0043C12.992 34.1682 13.0713 34.2433 13.1941 34.3547C13.2927 34.4446 13.2965 34.4479 13.3814 34.5241C13.4546 34.5898 13.4667 34.6036 13.53 34.6929C13.6033 34.7961 13.6661 34.8883 13.73 34.9865C13.7916 35.0819 13.9266 35.3054 13.9266 35.3126C13.9266 35.3159 13.9497 35.3667 13.9784 35.4257C14.0742 35.6249 14.1799 35.8704 14.2185 35.9825C14.2212 35.9901 14.2334 36.0249 14.246 36.0597C14.3237 36.2738 14.3826 36.484 14.4134 36.6556C14.4421 36.8134 14.4481 36.932 14.4366 37.0943C14.4255 37.2504 14.425 37.4695 14.436 37.5605C14.4597 37.7592 14.5148 37.8624 14.6194 37.9037C14.6431 37.9125 14.6657 37.9164 14.7103 37.9181C14.7626 37.9197 14.7747 37.9186 14.8039 37.9076C14.8678 37.8839 14.9102 37.827 14.9361 37.7299C14.9471 37.6885 14.9482 37.672 14.9482 37.5329C14.9482 37.3828 14.9438 37.326 14.9207 37.1605C14.9003 37.0142 14.8959 36.9795 14.8904 36.9205C14.8783 36.7963 14.8838 36.7334 14.9085 36.7064C14.9372 36.6755 14.9917 36.7042 15.0991 36.8074C15.1817 36.8868 15.3211 37.0534 15.3778 37.1418C15.4945 37.3227 15.5579 37.5318 15.5821 37.8199C15.5915 37.9297 15.5909 38.0168 15.581 38.4461C15.5755 38.6658 15.5926 38.7965 15.6399 38.8947C15.6812 38.9802 15.7506 39.0338 15.8542 39.0591C15.8861 39.0669 15.9164 39.0696 15.9863 39.0696C16.07 39.0696 16.0811 39.0685 16.124 39.0547C16.1802 39.0365 16.2121 39.0172 16.2496 38.978C16.341 38.8826 16.368 38.7275 16.3526 38.3937C16.3499 38.3286 16.3471 38.1978 16.3476 38.104C16.3476 37.965 16.3493 37.923 16.3575 37.8806C16.3972 37.6648 16.4936 37.5561 16.677 37.5197C16.7634 37.502 16.9457 37.5108 17.0686 37.5384C17.0807 37.5412 17.1153 37.5489 17.1457 37.5556C17.4783 37.6278 17.7498 37.752 17.9249 37.9103C18.0164 37.9937 18.1281 38.1371 18.2168 38.2861C18.246 38.3341 18.3248 38.4428 18.3595 38.4815C18.4189 38.5488 18.5054 38.6122 18.5886 38.6503C18.7626 38.7297 18.9735 38.7568 19.5111 38.7689C19.7573 38.7744 19.8289 38.7805 19.9037 38.8042C20.0243 38.8429 20.1053 38.9289 20.1466 39.0641C20.1808 39.1756 20.1913 39.2826 20.1907 39.5138C20.1907 39.7284 20.1835 39.8537 20.1549 40.1704C20.1461 40.2681 20.1339 40.4154 20.1251 40.5373C20.1207 40.5981 20.1147 40.6814 20.1114 40.7222C20.1031 40.8375 20.1042 41.1007 20.1141 41.1929C20.1389 41.4219 20.1912 41.5565 20.2926 41.6503C20.4032 41.7529 20.5877 41.7805 20.6808 41.7088C20.7662 41.6437 20.8174 41.5052 20.8394 41.2822C20.8493 41.1802 20.8477 40.7525 20.8361 40.5484C20.8163 40.1881 20.8042 39.8636 20.8075 39.7566C20.8191 39.3758 20.8653 39.2103 20.9838 39.1309C21.0151 39.1099 21.0427 39.1044 21.1153 39.1049C21.1858 39.1049 21.1991 39.1066 21.2652 39.1232C21.3841 39.1524 21.4524 39.1844 21.6507 39.3036C21.8231 39.4068 21.8831 39.4343 22.0081 39.4669C22.1073 39.4928 22.1976 39.5033 22.3088 39.5028C22.365 39.5028 22.4168 39.5017 22.4245 39.5011L22.4382 39.5L22.441 41.3595L22.4438 43.219L22.4586 43.2598C22.4955 43.3613 22.5798 43.4535 22.6839 43.5059C22.8034 43.5666 22.8986 43.5815 23.2451 43.5914C23.3497 43.5947 23.4708 43.6008 23.5149 43.6058C23.7743 43.6334 23.9203 43.7128 23.9935 43.8646C24.0381 43.9584 24.0458 44.0169 24.0409 44.2232C24.0376 44.3722 24.0381 44.3865 24.0486 44.4345C24.064 44.5057 24.0872 44.5499 24.129 44.589C24.1769 44.6343 24.2144 44.6475 24.2915 44.6475C24.4225 44.6475 24.5035 44.5874 24.5443 44.4588C24.5591 44.4125 24.5619 44.3943 24.5641 44.3016C24.5663 44.2155 24.5745 44.1642 24.5944 44.1189C24.6555 43.976 24.8202 43.8706 25.0437 43.8314C25.1016 43.8215 25.133 43.821 25.247 43.8293C25.3246 43.8353 25.3417 43.8348 25.3902 43.8265C25.4954 43.8083 25.5659 43.768 25.6766 43.6632C25.8407 43.5064 25.9393 43.4491 26.0979 43.4182C26.1205 43.4137 26.1469 43.4088 26.1557 43.4066C26.1651 43.4044 26.3567 43.4011 26.5826 43.3983C26.8083 43.3961 27.0374 43.3912 27.0919 43.3878C27.3751 43.3707 27.51 43.3266 27.559 43.2355L27.5711 43.2135L27.5738 41.732L27.5766 40.2504L27.5942 40.2063C27.6857 39.979 27.825 39.8223 27.9951 39.7538C28.037 39.7373 28.0591 39.7307 28.1967 39.6948L28.2871 39.6711L28.411 39.6738C28.6759 39.6788 28.8285 39.6766 28.9039 39.6661C29.0229 39.6496 29.1677 39.6236 29.3026 39.5938C29.4359 39.5646 29.5036 39.5811 29.5846 39.6623C29.6364 39.7147 29.687 39.803 29.7146 39.889C29.7906 40.1307 29.8214 40.3762 29.8291 40.8077C29.8324 40.9854 29.8418 41.1355 29.8545 41.2078C29.8974 41.4549 29.9883 41.6056 30.1276 41.6608C30.1562 41.6723 30.1684 41.6735 30.2449 41.6735C30.3364 41.6735 30.3567 41.669 30.4179 41.6348C30.5633 41.5532 30.6475 41.3109 30.6332 41.0147C30.6299 40.949 30.6123 40.7768 30.6051 40.747C30.5947 40.699 30.5809 40.4849 30.5809 40.3624C30.5814 39.9823 30.663 39.6904 30.8425 39.4277C30.9031 39.3389 30.9328 39.3091 31.0077 39.2644C31.0413 39.2445 31.1718 39.1778 31.2225 39.1551C31.4599 39.0487 31.5876 38.9824 31.6548 38.9317C31.6812 38.9123 31.7484 38.8671 31.7925 38.8395C31.8294 38.8169 31.9159 38.7733 31.955 38.7573C32.0607 38.7149 32.1654 38.6994 32.2468 38.7132C32.373 38.7347 32.477 38.8362 32.5453 39.004C32.5993 39.1364 32.6346 39.3279 32.6461 39.5469C32.6594 39.7902 32.672 39.8824 32.7073 39.9894C32.7711 40.1831 32.8879 40.3045 33.0454 40.342C33.1082 40.3569 33.209 40.3575 33.2492 40.3442C33.3467 40.3106 33.4051 40.2465 33.4497 40.1235C33.5081 39.9613 33.5213 39.7235 33.4943 39.3069C33.4832 39.1364 33.4805 38.999 33.4805 38.6531C33.4805 38.2183 33.4855 38.0891 33.5081 37.8905C33.5185 37.8011 33.5268 37.7702 33.5576 37.7084C33.6083 37.6069 33.6793 37.5197 33.7355 37.4899C33.7856 37.4634 33.8071 37.4673 33.8567 37.5125C33.9415 37.5914 33.9767 37.6836 33.9844 37.853C33.9927 38.0218 34.0147 38.0941 34.0737 38.1493C34.1095 38.1818 34.1392 38.1912 34.1976 38.1884C34.2394 38.1868 34.2504 38.1835 34.2807 38.1675C34.354 38.1283 34.392 38.051 34.4002 37.9247C34.4041 37.8634 34.3958 37.7393 34.3854 37.7012C34.3821 37.6891 34.3793 37.6433 34.3788 37.5992C34.3788 37.5042 34.3892 37.4557 34.4272 37.3757C34.468 37.2891 34.5192 37.2195 34.6222 37.1114C34.7021 37.0275 34.7577 36.953 34.8166 36.8504C34.8634 36.7698 34.886 36.7274 34.9868 36.5315C35.054 36.4012 35.0853 36.345 35.1217 36.2898C35.2247 36.1336 35.315 36.0762 35.4086 36.1071C35.45 36.1215 35.478 36.1425 35.4979 36.1756C35.5309 36.2318 35.5314 36.2374 35.5259 36.5535C35.5238 36.6882 35.5248 36.7003 35.5546 36.7925C35.597 36.9232 35.6917 37.0441 35.7826 37.0833C35.8437 37.1097 35.8916 37.1136 35.9676 37.0993C36.0646 37.0816 36.1339 37.0457 36.1923 36.9834C36.2501 36.9216 36.2876 36.8476 36.3163 36.7384C36.3598 36.569 36.3741 36.2997 36.3554 35.988C36.3509 35.9134 36.346 35.8279 36.3449 35.7976C36.3432 35.7673 36.3405 35.7137 36.3388 35.679C36.3322 35.557 36.3537 35.2419 36.3829 35.0224C36.4055 34.8541 36.443 34.6444 36.4848 34.4485C36.4908 34.4198 36.4986 34.3834 36.5013 34.3685C36.5046 34.353 36.509 34.3332 36.5118 34.3244C36.5145 34.315 36.5222 34.283 36.5288 34.2526C36.542 34.1941 36.5894 34.0032 36.6142 33.9105C36.6224 33.8802 36.6313 33.8476 36.6335 33.8388C36.6357 33.8294 36.6456 33.7936 36.6555 33.7588C36.672 33.6992 36.6787 33.676 36.7139 33.5557C36.775 33.3444 36.8758 33.0304 36.9689 32.7601C36.9975 32.6756 37.0052 32.6569 37.0372 32.589C37.0823 32.4925 37.138 32.3667 37.1594 32.3131C37.1666 32.2966 37.1886 32.242 37.209 32.1918C37.3528 31.8375 37.491 31.4016 37.5774 31.0275C37.6496 30.718 37.6854 30.5165 37.735 30.1447C37.7416 30.0966 37.7548 29.9714 37.7598 29.9157C37.7614 29.8941 37.7652 29.8544 37.7685 29.8274C37.7851 29.6663 37.7917 29.4919 37.7944 29.1322C37.7966 28.773 37.7944 28.6791 37.7785 28.4121C37.7664 28.204 37.7366 27.8945 37.7129 27.7307C37.6893 27.5646 37.6832 27.5226 37.671 27.452C37.6634 27.4079 37.6535 27.3499 37.649 27.3223C37.6446 27.2953 37.6385 27.2633 37.6358 27.2506C37.6331 27.2384 37.627 27.2075 37.622 27.1817C37.6 27.0652 37.5449 26.8301 37.5003 26.663C37.4959 26.6458 37.4651 26.5383 37.4464 26.4753C37.3059 25.9948 37.084 25.4816 36.8273 25.0407C36.6302 24.7019 36.3735 24.3516 36.0987 24.0442C36.0111 23.946 35.7529 23.6856 35.6642 23.6056C35.6328 23.5768 35.5942 23.5421 35.5788 23.5283C35.4665 23.4257 35.2319 23.2364 35.0804 23.126C34.5902 22.7685 34.0704 22.4711 33.4585 22.198C33.3979 22.171 33.3434 22.1467 33.3373 22.1439C33.323 22.1373 33.225 22.0965 33.1858 22.0804C33.0239 22.0143 32.9683 21.9922 32.9353 21.98C32.9143 21.9723 32.8896 21.9629 32.8802 21.9585C32.8527 21.9464 32.6891 21.8862 32.5635 21.8421C32.2997 21.7499 32.0304 21.6633 31.8007 21.5971C31.7799 21.5905 31.7512 21.5822 31.7374 21.5783C31.7237 21.5745 31.6768 21.5607 31.6328 21.5486C31.5888 21.5364 31.5298 21.5198 31.5012 21.5121C31.4731 21.5044 31.4439 21.4939 31.4368 21.4889C31.4191 21.4779 31.3784 21.4156 31.3613 21.3742C31.2252 21.047 31.1801 20.1696 31.2198 18.6015C31.2274 18.2958 31.2406 17.8776 31.2467 17.727C31.2528 17.5835 31.2544 17.5465 31.2665 17.1641C31.271 17.0245 31.277 16.8408 31.2803 16.7558C31.283 16.6708 31.2869 16.5307 31.2886 16.444C31.2947 16.1627 31.3101 15.9988 31.3464 15.8327C31.3872 15.6467 31.4582 15.5209 31.5469 15.4779C31.5909 15.4569 31.6278 15.4531 31.6779 15.4641C31.7595 15.4823 31.8399 15.5353 31.9412 15.6379C32.0701 15.7682 32.1945 15.9486 32.3047 16.1654C32.3889 16.3309 32.4369 16.4518 32.4743 16.5931L32.4941 16.6675L32.4936 16.8027C32.4936 16.9396 32.4842 17.0643 32.4589 17.2745C32.4529 17.3258 32.444 17.3986 32.4396 17.4356C32.4352 17.4726 32.4303 17.5112 32.4286 17.5211C32.4121 17.6127 32.3967 17.8665 32.4005 17.978C32.4126 18.3168 32.4798 18.4553 32.6572 18.5049C32.7073 18.5193 32.8285 18.5193 32.8747 18.5055C33.0218 18.4608 33.106 18.3378 33.1424 18.1132C33.1584 18.0139 33.1627 17.7248 33.1523 17.482C33.1424 17.2601 33.1424 16.9412 33.1517 16.8634C33.1666 16.7382 33.1914 16.6444 33.2448 16.5103C33.3324 16.2896 33.5345 16.0258 33.7707 15.8228C33.9161 15.6981 34.0136 15.6556 34.0781 15.6892C34.1612 15.7323 34.1915 15.9022 34.1766 16.2399C34.1728 16.3266 34.1695 16.5053 34.1695 16.6372C34.1689 16.8397 34.1706 16.8877 34.1788 16.9462C34.2124 17.1807 34.2791 17.2839 34.4113 17.3054C34.4432 17.3104 34.4581 17.3098 34.4994 17.3021C34.6343 17.2767 34.7048 17.1873 34.7395 16.9975C34.7554 16.907 34.7593 16.6764 34.7494 16.3503C34.7296 15.6981 34.7549 15.3825 34.8529 15.0646C34.9504 14.7484 35.1002 14.515 35.3387 14.3098C35.38 14.2739 35.4555 14.2066 35.5072 14.1597C35.559 14.1128 35.6223 14.0554 35.6477 14.0328C35.6735 14.0102 35.7071 13.9799 35.722 13.966C35.7375 13.9517 35.7771 13.9159 35.8107 13.886C35.8443 13.8557 35.9494 13.7619 36.0442 13.6769C36.1389 13.5919 36.2568 13.4866 36.3058 13.4424C36.3548 13.3983 36.4501 13.3127 36.5178 13.252C36.6423 13.1406 36.7359 13.0567 36.9077 12.9022C36.9601 12.8559 37.0025 12.8161 37.0025 12.8139C37.0025 12.804 36.5872 12.399 36.4352 12.261C36.3498 12.1833 36.2639 12.1066 36.226 12.0735C36.2061 12.0563 36.1593 12.015 36.1213 11.9824C35.434 11.3832 34.5897 10.7917 33.7807 10.3414C33.6578 10.273 33.6331 10.2598 33.4695 10.172C33.4392 10.1561 33.3263 10.0987 33.2189 10.0446C33.0383 9.95408 32.9744 9.92318 32.8334 9.85695C32.7221 9.80512 32.7001 9.79516 32.6985 9.79516C32.6973 9.79516 32.6748 9.78526 32.6478 9.77309C32.5757 9.73946 32.541 9.72398 32.4754 9.69639C32.4529 9.68648 32.4291 9.67653 32.4231 9.6738C32.3499 9.64177 32.2783 9.61144 32.0789 9.53087C32.0123 9.50384 31.9109 9.46464 31.8311 9.43488C31.7903 9.41998 31.7446 9.40285 31.7292 9.39682C31.6983 9.38521 31.6543 9.36922 31.5254 9.32342C31.418 9.28536 31.1041 9.17993 31.0132 9.15233C30.9769 9.14078 30.9333 9.12752 30.9168 9.122C30.8805 9.10988 30.7021 9.05743 30.5947 9.02767C30.5522 9.01549 30.5016 9.00116 30.4818 8.99512C30.2653 8.93163 29.8082 8.8213 29.4904 8.75507C29.4375 8.7446 29.3841 8.733 29.372 8.73026C29.3296 8.72031 28.9926 8.65687 28.9176 8.64474C28.8918 8.64031 28.8411 8.63206 28.8047 8.6254C28.7684 8.61932 28.715 8.6105 28.6864 8.60611C28.6577 8.60168 28.6026 8.59286 28.5646 8.58734C28.4754 8.573 28.3641 8.55701 28.2568 8.54318C28.21 8.53658 28.1444 8.52776 28.1108 8.52333C28.0068 8.50956 27.8663 8.49352 27.7005 8.47644C27.6383 8.46979 27.5843 8.46375 27.581 8.46262C27.5755 8.46045 27.5738 8.03555 27.5738 6.36036V4.26086H25.0074H22.441L22.4399 6.40838ZM28.1362 13.8982C28.2105 13.912 28.2744 13.9318 28.4027 13.9815C28.4732 14.0091 28.4887 14.0179 28.5261 14.0521C28.585 14.1073 28.6489 14.2193 28.7166 14.3865C28.8081 14.6122 28.8785 14.7187 28.9683 14.7666C28.9926 14.7799 29.0135 14.7854 29.0581 14.7915C29.1275 14.8003 29.155 14.8141 29.1881 14.8566C29.3682 15.085 29.4249 15.8719 29.3693 17.3793C29.3665 17.4582 29.3616 17.5945 29.3582 17.6828C29.3555 17.7706 29.3505 17.9013 29.3472 17.9725C29.3362 18.223 29.3307 18.5143 29.3362 18.6076C29.3489 18.8443 29.4012 18.9734 29.5036 19.0214C29.5482 19.0424 29.6144 19.0512 29.6677 19.044C29.7735 19.0297 29.8363 18.9806 29.8759 18.8807C29.8985 18.825 29.9073 18.7803 29.915 18.6953C29.9205 18.6286 29.92 18.5894 29.909 18.3891C29.9062 18.3372 29.9024 18.2396 29.9007 18.1711C29.8991 18.1027 29.8946 17.9736 29.8908 17.8842C29.882 17.6585 29.8814 16.3442 29.8908 16.1709C29.8946 16.1008 29.8991 15.9993 29.9007 15.9447C29.9024 15.8901 29.9051 15.8366 29.9062 15.8261C29.9079 15.8156 29.9129 15.7483 29.9172 15.6771C29.9222 15.6059 29.9283 15.5287 29.931 15.506C29.9337 15.4834 29.9376 15.447 29.9393 15.426C29.9448 15.3648 29.9629 15.2307 29.9751 15.1623C30.0175 14.9217 30.088 14.7932 30.2119 14.7341C30.2504 14.7159 30.257 14.7142 30.3055 14.7142C30.3534 14.7142 30.3611 14.7159 30.3948 14.7325C30.4669 14.7678 30.5291 14.839 30.5809 14.946C30.6745 15.1386 30.7274 15.4001 30.7549 15.8024C30.7692 16.0137 30.761 16.6493 30.7351 17.3628C30.7323 17.4505 30.7257 17.653 30.7213 17.8125C30.7163 17.9719 30.7103 18.1689 30.7075 18.2511C30.7048 18.3328 30.6988 18.5094 30.6938 18.6429C30.6894 18.7764 30.6833 18.9375 30.6805 19.0015C30.6772 19.065 30.6734 19.1671 30.6717 19.2278C30.6701 19.2885 30.6663 19.3889 30.663 19.4513C30.6602 19.5136 30.6541 19.6499 30.6497 19.7547C30.6305 20.205 30.6007 20.7363 30.5864 20.8831C30.5836 20.9135 30.5798 20.9604 30.5781 20.9879C30.5737 21.0525 30.555 21.2004 30.5468 21.2385C30.5435 21.2545 30.5379 21.2688 30.5346 21.2699C30.5275 21.2727 30.5219 21.2716 30.3578 21.2368C30.1348 21.1888 29.8946 21.1413 29.7052 21.1066C29.6705 21.1005 29.6309 21.0928 29.6171 21.09C29.6033 21.0873 29.5703 21.0806 29.5427 21.0762C29.5157 21.0712 29.4733 21.0641 29.4491 21.0597C29.4249 21.0558 29.3753 21.047 29.339 21.0403C29.2597 21.0266 28.9369 20.9725 28.8791 20.9631C28.8565 20.9598 28.8069 20.9521 28.7689 20.946C28.6935 20.9339 28.6643 20.9295 28.4688 20.8996C28.3961 20.8886 28.3129 20.8759 28.2843 20.872C28.2557 20.8682 28.1626 20.855 28.0778 20.8423C27.9225 20.8202 27.6708 20.7849 27.6096 20.7771L27.5766 20.7728V18.1242C27.5766 16.0849 27.5783 15.4283 27.5838 15.2688C27.5904 15.0734 27.6063 14.8141 27.6174 14.7225C27.6207 14.6999 27.6245 14.6635 27.6262 14.6425C27.6405 14.488 27.6812 14.2888 27.7236 14.1708C27.7799 14.0146 27.8608 13.9235 27.9671 13.8976C28.0073 13.8877 28.0827 13.8877 28.1362 13.8982ZM22.1342 14.1239C22.3198 14.163 22.4179 14.3892 22.4355 14.8218C22.4426 14.9857 22.4426 19.9958 22.436 19.9997C22.4333 20.0019 22.3991 19.9953 22.36 19.9865C22.2466 19.9594 22.1089 19.9252 22.0913 19.9197C22.0824 19.917 22.023 19.9009 21.9591 19.8838C21.8958 19.8667 21.8231 19.8469 21.7983 19.8397C21.7729 19.8325 21.7311 19.8204 21.7046 19.8127C21.546 19.7663 21.2514 19.667 21.1165 19.614C21.0983 19.6069 21.0597 19.592 21.0311 19.5809C20.9656 19.5555 20.8251 19.4965 20.7767 19.4738C20.7453 19.459 20.7359 19.4513 20.7144 19.4214C20.6698 19.3586 20.6285 19.2614 20.5971 19.145C20.5283 18.8912 20.493 18.5419 20.4737 17.9339C20.4644 17.6359 20.4644 16.6532 20.4737 16.4027C20.4958 15.8156 20.5393 15.4774 20.6274 15.2136C20.7238 14.9239 20.8664 14.7876 21.0752 14.7866C21.1291 14.786 21.1358 14.7871 21.1699 14.8036C21.2178 14.8263 21.2519 14.8621 21.2789 14.9184C21.3461 15.058 21.3549 15.2787 21.3164 15.8647C21.312 15.9271 21.3092 16.0793 21.3092 16.2261C21.3092 16.4413 21.3109 16.4915 21.3191 16.5572C21.3368 16.6874 21.3555 16.7569 21.3919 16.822C21.4298 16.8905 21.4744 16.9291 21.5345 16.9445C21.5653 16.9528 21.5741 16.9533 21.5967 16.9473C21.6677 16.9285 21.7179 16.8855 21.7542 16.8121C21.7933 16.7338 21.7939 16.7282 21.7933 16.5131C21.7933 16.4065 21.7906 16.2901 21.7867 16.2537C21.7834 16.2173 21.779 16.1549 21.7774 16.1157C21.7757 16.076 21.7729 16.0352 21.7713 16.0247C21.7685 16.0026 21.7515 15.7637 21.7377 15.5447C21.7256 15.356 21.7239 14.8351 21.735 14.7225C21.7724 14.3396 21.8649 14.1553 22.0351 14.1239C22.0874 14.1145 22.0907 14.1145 22.1342 14.1239ZM19.63 15.1225C19.7165 15.1485 19.7875 15.2627 19.841 15.4608C19.858 15.5226 19.8619 15.5419 19.8801 15.6412C19.8949 15.7234 19.9065 15.8068 19.9159 15.9089C19.9472 16.2366 19.9533 16.4319 19.95 16.9627C19.9461 17.5377 19.9379 17.8974 19.9159 18.4525C19.9065 18.6914 19.8927 18.9442 19.8883 18.9481C19.8812 18.9557 19.7187 18.815 19.6135 18.7091C19.4593 18.554 19.3216 18.3758 19.2208 18.2015C19.1966 18.1601 19.1217 18.0117 19.1063 17.9753C19.0022 17.7291 18.9465 17.519 18.9135 17.2497C18.8876 17.0356 18.8876 16.7492 18.9135 16.5379C18.9521 16.2294 19.0314 15.9475 19.1668 15.6385C19.1966 15.5712 19.2737 15.4205 19.3194 15.3405C19.3871 15.2213 19.4675 15.1435 19.5447 15.1231C19.5832 15.1126 19.597 15.1126 19.63 15.1225ZM28.037 26.9874C28.1637 27.0326 28.2628 27.1645 28.3085 27.3505C28.3433 27.4912 28.3879 27.926 28.4027 28.2714C28.4044 28.3106 28.4071 28.3552 28.4082 28.3707C28.4099 28.3856 28.4137 28.4728 28.4165 28.5638C28.4198 28.6548 28.4237 28.7465 28.4247 28.7674C28.4258 28.789 28.4297 28.9153 28.433 29.0488C28.4358 29.1829 28.4413 29.3937 28.444 29.5184C28.4473 29.6425 28.4512 30.25 28.4529 30.8675C28.4562 32.0764 28.4562 32.0704 28.4848 32.1608C28.5112 32.2453 28.5597 32.3109 28.6191 32.3424C28.6428 32.3551 28.6549 32.3584 28.6831 32.3579C28.8009 32.3573 28.8769 32.2944 28.911 32.1691C28.9397 32.0648 28.9424 32.024 28.9419 31.6896C28.9414 31.518 28.938 31.3023 28.9347 31.2096C28.9171 30.7047 28.9132 29.4936 28.9287 29.0494C28.943 28.6328 28.9601 28.2488 28.97 28.1417C28.9716 28.1252 28.9749 28.0788 28.9782 28.0396C28.9815 27.9999 28.9859 27.9502 28.9892 27.9293C28.992 27.9078 28.9959 27.8757 28.9975 27.8575C29.0107 27.734 29.0454 27.5662 29.0779 27.4674C29.1528 27.2412 29.2635 27.1733 29.404 27.2666C29.453 27.2991 29.5246 27.3648 29.5532 27.4029C29.5681 27.4222 29.5978 27.4763 29.6204 27.5226C29.6848 27.6562 29.7146 27.6975 29.8374 27.8244C29.9095 27.899 29.9266 27.9199 29.9464 27.958C30.0004 28.0623 30.034 28.2046 30.0571 28.4286C30.0748 28.5969 30.0797 28.747 30.0797 29.1117C30.0797 29.5167 30.0836 29.5636 30.1243 29.6508C30.1436 29.6928 30.202 29.7485 30.2422 29.7634C30.3397 29.8004 30.4272 29.7871 30.4828 29.7264C30.5567 29.647 30.5765 29.5035 30.5567 29.1956C30.5385 28.9192 30.5357 28.848 30.5385 28.7294C30.5489 28.3365 30.6475 28.07 30.8595 27.8658C30.9432 27.7853 31.0154 27.7433 31.1008 27.7257C31.1784 27.7097 31.2489 27.718 31.3348 27.7538C31.5298 27.8338 31.7507 28.0805 31.9329 28.4204C31.993 28.5329 32.059 28.8127 32.0882 29.077C32.102 29.2017 32.102 29.5587 32.0882 29.7005C32.0425 30.1745 31.9385 30.5524 31.7457 30.942C31.6069 31.2234 31.4483 31.4601 31.234 31.7062C31.1559 31.7961 30.9504 32.0014 30.8562 32.0841C30.5869 32.3203 30.2702 32.5377 29.9162 32.7303C29.8231 32.7811 29.6039 32.8897 29.5317 32.9218C29.5075 32.9322 29.4728 32.9477 29.4546 32.956C29.366 32.9957 29.3015 33.0222 29.1903 33.0658C29.0482 33.1215 29.0223 33.1314 28.9122 33.1706C28.5861 33.2859 28.1819 33.399 27.8079 33.4802C27.6179 33.521 27.5843 33.5276 27.5788 33.5237C27.5761 33.5221 27.5738 32.1697 27.5738 30.4547C27.5738 27.132 27.5722 27.351 27.602 27.2589C27.651 27.1099 27.7633 27.0007 27.8933 26.9753C27.9236 26.9698 28.0068 26.9764 28.037 26.9874Z" fill="#00FFAD"/>
</g>
</g>
<path d="M62.5955 30.7727V13.3182H67.3342V20.1364H73.6069V13.3182H78.3455V30.7727H73.6069V23.9545H67.3342V30.7727H62.5955Z" fill="white"/>
<path d="M86.9364 31.0114C85.5387 31.0114 84.3342 30.7443 83.3228 30.2102C82.3171 29.6704 81.5415 28.8977 80.9961 27.892C80.4563 26.8807 80.1864 25.6704 80.1864 24.2614C80.1864 22.9091 80.4592 21.7273 81.0046 20.7159C81.5501 19.7045 82.32 18.9176 83.3143 18.3551C84.3086 17.7926 85.4819 17.5114 86.8342 17.5114C87.8228 17.5114 88.7177 17.6648 89.5188 17.9716C90.32 18.2784 91.0046 18.7244 91.5728 19.3097C92.141 19.8892 92.5785 20.5937 92.8853 21.4233C93.1921 22.2528 93.3455 23.1875 93.3455 24.2273V25.3182H81.6523V22.7273H89.016C89.0103 22.3523 88.9137 22.0227 88.7262 21.7386C88.5444 21.4489 88.2972 21.2244 87.9847 21.0653C87.6779 20.9006 87.3285 20.8182 86.9364 20.8182C86.5557 20.8182 86.2063 20.9006 85.8881 21.0653C85.57 21.2244 85.3143 21.446 85.1211 21.7301C84.9336 22.0142 84.8342 22.3466 84.8228 22.7273V25.5227C84.8228 25.9432 84.9109 26.3182 85.087 26.6477C85.2631 26.9773 85.516 27.2358 85.8455 27.4233C86.1751 27.6108 86.5728 27.7045 87.0387 27.7045C87.3626 27.7045 87.658 27.6591 87.9251 27.5682C88.1978 27.4773 88.4307 27.3466 88.6239 27.1761C88.8171 27 88.9592 26.7898 89.0501 26.5454H93.3455C93.1978 27.4545 92.8484 28.2443 92.2972 28.9148C91.7461 29.5795 91.016 30.0966 90.1069 30.4659C89.2035 30.8295 88.1467 31.0114 86.9364 31.0114Z" fill="white"/>
<path d="M97.8008 35.6818C97.261 35.6818 96.7468 35.6392 96.2582 35.554C95.7695 35.4744 95.3405 35.3636 94.9712 35.2216L95.994 31.8807C96.3803 32.017 96.7326 32.1051 97.0508 32.1449C97.3746 32.1847 97.6502 32.1619 97.8775 32.0767C98.1104 31.9915 98.278 31.8295 98.3803 31.5909L98.4826 31.3523L93.8803 17.6818H98.7894L100.903 26.75H101.039L103.187 17.6818H108.13L103.358 31.8636C103.119 32.5852 102.772 33.2329 102.318 33.8068C101.869 34.3864 101.278 34.8437 100.545 35.179C99.8121 35.5142 98.8974 35.6818 97.8008 35.6818Z" fill="white"/>
<path d="M118.613 30.7727L113.466 13.3182H118.75L121.136 24.0568H121.272L124.102 13.3182H128.261L131.091 24.0909H131.227L133.613 13.3182H138.897L133.75 30.7727H129.216L126.25 21.0227H126.113L123.147 30.7727H118.613Z" fill="white"/>
<path d="M142.624 30.9773C141.789 30.9773 141.05 30.8409 140.408 30.5682C139.772 30.2898 139.272 29.8693 138.908 29.3068C138.544 28.7443 138.363 28.0284 138.363 27.1591C138.363 26.4432 138.485 25.8324 138.729 25.3267C138.973 24.8153 139.314 24.3977 139.752 24.0739C140.189 23.75 140.698 23.5028 141.277 23.3324C141.863 23.1619 142.493 23.0511 143.169 23C143.902 22.9432 144.49 22.875 144.934 22.7954C145.382 22.7102 145.706 22.5937 145.905 22.446C146.104 22.2926 146.203 22.0909 146.203 21.8409V21.8068C146.203 21.4659 146.073 21.2045 145.811 21.0227C145.55 20.8409 145.215 20.75 144.806 20.75C144.357 20.75 143.99 20.8494 143.706 21.0483C143.428 21.2415 143.26 21.5398 143.203 21.9432H138.874C138.931 21.1477 139.184 20.4148 139.632 19.7443C140.087 19.0682 140.749 18.5284 141.618 18.125C142.488 17.7159 143.573 17.5114 144.874 17.5114C145.811 17.5114 146.652 17.6222 147.397 17.8437C148.141 18.0597 148.774 18.3636 149.297 18.7557C149.82 19.142 150.218 19.5966 150.49 20.1193C150.769 20.6364 150.908 21.1989 150.908 21.8068V30.7727H146.51V28.9318H146.408C146.147 29.4204 145.828 29.8153 145.453 30.1165C145.084 30.4176 144.661 30.6364 144.184 30.7727C143.712 30.9091 143.192 30.9773 142.624 30.9773ZM144.158 28.0114C144.516 28.0114 144.851 27.9375 145.164 27.7898C145.482 27.642 145.74 27.429 145.939 27.1506C146.138 26.8722 146.238 26.5341 146.238 26.1364V25.0454C146.113 25.0966 145.979 25.1449 145.837 25.1903C145.701 25.2358 145.553 25.2784 145.394 25.3182C145.24 25.3579 145.076 25.3949 144.899 25.429C144.729 25.4631 144.55 25.4943 144.363 25.5227C143.999 25.5795 143.701 25.6733 143.468 25.804C143.24 25.929 143.07 26.0852 142.956 26.2727C142.848 26.4545 142.794 26.6591 142.794 26.8864C142.794 27.25 142.922 27.5284 143.178 27.7216C143.434 27.9148 143.76 28.0114 144.158 28.0114Z" fill="white"/>
<path d="M157.86 13.3182V30.7727H153.156V13.3182H157.86Z" fill="white"/>
<path d="M173.53 31.0114C172.132 31.0114 170.928 30.7443 169.917 30.2102C168.911 29.6704 168.135 28.8977 167.59 27.892C167.05 26.8807 166.78 25.6704 166.78 24.2614C166.78 22.9091 167.053 21.7273 167.598 20.7159C168.144 19.7045 168.914 18.9176 169.908 18.3551C170.902 17.7926 172.076 17.5114 173.428 17.5114C174.417 17.5114 175.311 17.6648 176.113 17.9716C176.914 18.2784 177.598 18.7244 178.167 19.3097C178.735 19.8892 179.172 20.5937 179.479 21.4233C179.786 22.2528 179.939 23.1875 179.939 24.2273V25.3182H168.246V22.7273H175.61C175.604 22.3523 175.507 22.0227 175.32 21.7386C175.138 21.4489 174.891 21.2244 174.578 21.0653C174.272 20.9006 173.922 20.8182 173.53 20.8182C173.149 20.8182 172.8 20.9006 172.482 21.0653C172.164 21.2244 171.908 21.446 171.715 21.7301C171.527 22.0142 171.428 22.3466 171.417 22.7273V25.5227C171.417 25.9432 171.505 26.3182 171.681 26.6477C171.857 26.9773 172.11 27.2358 172.439 27.4233C172.769 27.6108 173.167 27.7045 173.632 27.7045C173.956 27.7045 174.252 27.6591 174.519 27.5682C174.792 27.4773 175.024 27.3466 175.218 27.1761C175.411 27 175.553 26.7898 175.644 26.5454H179.939C179.792 27.4545 179.442 28.2443 178.891 28.9148C178.34 29.5795 177.61 30.0966 176.701 30.4659C175.797 30.8295 174.74 31.0114 173.53 31.0114Z" fill="white"/>
<path d="M189.666 17.6818V21.0909H181.041V17.6818H189.666ZM182.711 14.5454H187.416V26.5625C187.416 26.7443 187.447 26.8977 187.51 27.0227C187.572 27.142 187.669 27.2329 187.799 27.2954C187.93 27.3523 188.098 27.3807 188.302 27.3807C188.444 27.3807 188.609 27.3636 188.797 27.3295C188.99 27.2954 189.132 27.267 189.223 27.2443L189.904 30.5511C189.694 30.6136 189.393 30.6903 189.001 30.7812C188.615 30.8722 188.154 30.9318 187.62 30.9602C186.541 31.017 185.635 30.9062 184.902 30.6278C184.169 30.3437 183.618 29.8977 183.248 29.2898C182.879 28.6818 182.7 27.9204 182.711 27.0057V14.5454Z" fill="white"/>
<path d="M164.5 13.3182V30.7727H159.795V13.3182H164.5Z" fill="white"/>
<defs>
<clipPath id="clip0_126_105">
<rect width="49" height="49" fill="white" transform="translate(0.59552)"/>
</clipPath>
</defs>
</svg>
