<svg width="167" height="45" viewBox="0 0 167 45" fill="none" xmlns="http://www.w3.org/2000/svg">
<mask id="mask0_40_1797" style="mask-type:luminance" maskUnits="userSpaceOnUse" x="0" y="0" width="46" height="45">
<path d="M45.9943 0H0V45H45.9943V0Z" fill="white"/>
</mask>
<g mask="url(#mask0_40_1797)">
<g filter="url(#filter0_d_40_1797)">
<path d="M4.40314 35.3905C6.32914 38.035 8.79966 40.2476 11.6527 41.8835C14.5058 43.5192 17.6769 44.5413 20.9582 44.8826C19.27 42.375 16.8161 40.068 13.7527 38.3116C10.6892 36.5552 7.44497 35.5957 4.40314 35.3905Z" fill="black"/>
<path d="M17.8691 31.3179C11.9671 27.9332 5.579 27.0706 1.00815 28.5944C1.44941 30.034 2.03136 31.4279 2.74579 32.7563C6.71708 32.6655 11.053 33.7302 15.0876 36.0433C19.1223 38.3565 22.2082 41.5489 24.0965 45C25.6203 44.9539 27.1361 44.7622 28.6226 44.4279C27.6984 39.7544 23.7697 34.7033 17.8691 31.3179Z" fill="black"/>
<path d="M45.9943 17.5794C45.2439 14.5665 43.8861 11.7338 42.0021 9.25037C40.118 6.76695 37.7463 4.68375 35.0285 3.12518C32.3108 1.5666 29.3027 0.564615 26.184 0.179029C23.0652 -0.206557 19.8997 0.0321745 16.8765 0.880967C21.9271 1.49109 27.5333 3.36265 33.0312 6.51549C38.5293 9.66832 42.9571 13.548 45.9943 17.5794Z" fill="black"/>
<path d="M38.6459 28.6289C36.0607 24.3908 31.6321 20.3327 26.1765 17.2043C20.721 14.0759 14.9573 12.2889 9.95144 12.1707C5.54749 12.0678 2.2422 13.3315 0.885473 15.6371C0.877747 15.6507 0.86693 15.6637 0.85843 15.6774C0.736356 16.1099 0.63128 16.543 0.535474 16.9778C2.42995 16.2395 4.62497 15.8285 7.0657 15.7826C12.4934 15.6821 18.5677 17.3957 24.1732 20.6103C29.7785 23.825 34.2991 28.1866 36.8982 32.8891C38.0634 35.0078 38.7904 37.0936 39.0786 39.0864C39.4139 38.7906 39.743 38.4847 40.0622 38.1668C40.0707 38.1523 40.0761 38.1369 40.0845 38.1217C41.4413 35.814 40.9166 32.3544 38.6459 28.6289Z" fill="black"/>
<path d="M22.026 24.2557C13.6716 19.4648 4.4395 18.7142 0 22.0577C0.00872007 23.1043 0.089775 24.149 0.242602 25.1847C1.54855 24.7939 2.89451 24.5478 4.25561 24.451C9.21664 24.0826 14.686 25.4471 19.6494 28.2947C24.6127 31.1425 28.5253 35.1588 30.6592 39.592C31.2491 40.8066 31.699 42.0826 32.0005 43.3962C32.9879 43.0141 33.9479 42.5663 34.874 42.0562C35.6172 36.5925 30.3827 29.0475 22.026 24.2557Z" fill="black"/>
<path d="M42.943 21.5355C40.3286 17.3019 35.8612 13.2324 30.367 10.0834C24.8729 6.93435 19.0867 5.11921 14.0647 4.97354C10.2364 4.86449 7.27103 5.78043 5.7335 7.51091C12.1177 6.44319 20.5385 8.23773 28.7005 12.9182C36.8626 17.5987 42.6155 23.9317 44.8361 29.9346C45.5971 27.7602 44.9349 24.7638 42.943 21.5355Z" fill="black"/>
</g>
</g>
<path d="M63.2401 34.2245C61.4303 34.2245 59.9362 33.7605 58.7577 32.8327C57.5897 31.9048 56.7585 30.6501 56.2639 29.0685L60.4938 28.0563C60.5885 28.6362 60.8937 29.1423 61.4093 29.5746C61.9249 29.9964 62.472 30.2072 63.0507 30.2072C63.4506 30.2072 63.8767 30.0965 64.3292 29.8751C64.7922 29.6537 65.1236 29.3005 65.3235 28.8155C65.4498 28.5097 65.5235 28.1354 65.5445 27.6925C65.5655 27.2497 65.5761 26.7383 65.5761 26.1584V10.9752H69.9323V26.1584C69.9323 26.8859 69.927 27.5186 69.9165 28.0563C69.9165 28.594 69.8639 29.1001 69.7586 29.5746C69.6639 30.0385 69.4693 30.5236 69.1747 31.0297C68.5328 32.1473 67.6963 32.9592 66.6651 33.4653C65.6339 33.9714 64.4923 34.2245 63.2401 34.2245Z" fill="black"/>
<path d="M81.0025 34.2561C79.6662 34.2561 78.5772 34.0294 77.7354 33.576C76.8936 33.1226 76.236 32.548 75.7625 31.8521C75.2995 31.1562 74.968 30.4339 74.7681 29.6853C74.5682 28.9262 74.4472 28.2355 74.4051 27.6135C74.363 26.9914 74.342 26.538 74.342 26.2533V16.6689H78.6982V24.735C78.6982 25.1251 78.7192 25.6259 78.7613 26.2375C78.8034 26.8385 78.9349 27.4447 79.1559 28.0563C79.3768 28.6678 79.7346 29.1792 80.2291 29.5904C80.7342 30.0016 81.4445 30.2072 82.3599 30.2072C82.7282 30.2072 83.1227 30.1493 83.5436 30.0333C83.9645 29.9173 84.3591 29.6959 84.7274 29.369C85.0957 29.0316 85.3955 28.5413 85.627 27.8981C85.869 27.2444 85.99 26.3904 85.99 25.336L88.4522 26.5063C88.4522 27.856 88.1787 29.1212 87.6315 30.3021C87.0844 31.483 86.2584 32.4373 85.1535 33.1648C84.0592 33.8923 82.6756 34.2561 81.0025 34.2561ZM86.5267 33.75V28.0879H85.99V16.6689H90.3147V33.75H86.5267Z" fill="black"/>
<path d="M103.091 34.2245C101.397 34.2245 99.9817 33.8291 98.8453 33.0383C97.7089 32.2475 96.8513 31.172 96.2726 29.8118C95.7044 28.4517 95.4203 26.9176 95.4203 25.2094C95.4203 23.5013 95.7044 21.9672 96.2726 20.6071C96.8408 19.2469 97.6773 18.1714 98.7822 17.3806C99.887 16.5898 101.25 16.1944 102.87 16.1944C104.501 16.1944 105.921 16.5846 107.132 17.3648C108.342 18.1451 109.278 19.2153 109.941 20.5754C110.614 21.925 110.951 23.4697 110.951 25.2094C110.951 26.9176 110.62 28.4517 109.957 29.8118C109.304 31.172 108.389 32.2475 107.21 33.0383C106.032 33.8291 104.659 34.2245 103.091 34.2245ZM94.6943 41.3416V16.6689H98.4823V28.3726H99.0189V41.3416H94.6943ZM102.397 30.397C103.323 30.397 104.08 30.1651 104.669 29.7011C105.259 29.2372 105.695 28.6151 105.979 27.8349C106.263 27.0441 106.406 26.1689 106.406 25.2094C106.406 24.2605 106.258 23.3959 105.964 22.6157C105.669 21.8249 105.211 21.1975 104.59 20.7336C103.98 20.2591 103.196 20.0219 102.239 20.0219C101.344 20.0219 100.618 20.238 100.061 20.6703C99.5135 21.1026 99.1136 21.7089 98.8611 22.4891C98.6086 23.2694 98.4823 24.1762 98.4823 25.2094C98.4823 26.2427 98.6086 27.1495 98.8611 27.9298C99.1136 28.71 99.524 29.3163 100.092 29.7486C100.671 30.1809 101.439 30.397 102.397 30.397Z" fill="black"/>
<path d="M114.74 14.2966V10.5008H119.033V14.2966H114.74ZM114.74 33.75V16.6689H119.033V33.75H114.74Z" fill="black"/>
<path d="M133.992 33.75C132.814 33.9714 131.656 34.0663 130.52 34.0347C129.394 34.0136 128.384 33.8185 127.49 33.4495C126.606 33.0699 125.932 32.4636 125.469 31.6307C125.048 30.8504 124.827 30.0596 124.806 29.2583C124.785 28.4464 124.775 27.5291 124.775 26.5063V11.9242H129.068V26.2533C129.068 26.9176 129.073 27.5186 129.084 28.0563C129.105 28.5835 129.215 29.0052 129.415 29.3216C129.794 29.9226 130.399 30.2494 131.23 30.3021C132.061 30.3549 132.982 30.3127 133.992 30.1756V33.75ZM121.871 19.9902V16.6689H133.992V19.9902H121.871Z" fill="black"/>
<path d="M144.789 34.2245C143.043 34.2245 141.501 33.8501 140.165 33.1015C138.839 32.3424 137.797 31.3038 137.04 29.9858C136.293 28.6573 135.919 27.139 135.919 25.4309C135.919 23.5646 136.287 21.9409 137.024 20.5596C137.76 19.1784 138.776 18.1082 140.07 17.349C141.364 16.5793 142.853 16.1944 144.537 16.1944C146.326 16.1944 147.846 16.6162 149.098 17.4597C150.35 18.3032 151.276 19.4894 151.876 21.0183C152.476 22.5471 152.686 24.3449 152.507 26.4115H148.262V24.8299C148.262 23.0901 147.983 21.8407 147.425 21.0815C146.878 20.3118 145.978 19.927 144.726 19.927C143.264 19.927 142.185 20.3751 141.491 21.2713C140.807 22.157 140.465 23.4697 140.465 25.2094C140.465 26.8016 140.807 28.0352 141.491 28.9103C142.185 29.7749 143.2 30.2072 144.537 30.2072C145.379 30.2072 146.099 30.0227 146.699 29.6537C147.299 29.2847 147.757 28.7522 148.072 28.0563L152.365 29.2899C151.723 30.8504 150.708 32.063 149.319 32.9276C147.941 33.7922 146.431 34.2245 144.789 34.2245ZM139.139 26.4115V23.2167H150.44V26.4115H139.139Z" fill="black"/>
<path d="M156.071 33.75V16.6689H159.859V20.8443L159.449 20.3066C159.67 19.7161 159.964 19.1784 160.333 18.6933C160.701 18.2083 161.153 17.8077 161.69 17.4913C162.1 17.2383 162.548 17.0432 163.032 16.9062C163.516 16.7585 164.015 16.6689 164.531 16.6373C165.047 16.5951 165.562 16.6057 166.078 16.6689V20.6861C165.604 20.5385 165.052 20.4911 164.421 20.5438C163.8 20.586 163.237 20.7283 162.732 20.9708C162.227 21.2028 161.8 21.5138 161.453 21.9039C161.106 22.2835 160.843 22.7369 160.664 23.2641C160.485 23.7808 160.396 24.3659 160.396 25.0197V33.75H156.071Z" fill="black"/>
<defs>
<filter id="filter0_d_40_1797" x="-17.0222" y="-15.32" width="80.0387" height="79.0444" filterUnits="userSpaceOnUse" color-interpolation-filters="sRGB">
<feFlood flood-opacity="0" result="BackgroundImageFix"/>
<feColorMatrix in="SourceAlpha" type="matrix" values="0 0 0 0 0 0 0 0 0 0 0 0 0 0 0 0 0 0 127 0" result="hardAlpha"/>
<feOffset dy="1.70223"/>
<feGaussianBlur stdDeviation="8.5111"/>
<feComposite in2="hardAlpha" operator="out"/>
<feColorMatrix type="matrix" values="0 0 0 0 0 0 0 0 0 0 0 0 0 0 0 0 0 0 0.1 0"/>
<feBlend mode="normal" in2="BackgroundImageFix" result="effect1_dropShadow_40_1797"/>
<feBlend mode="normal" in="SourceGraphic" in2="effect1_dropShadow_40_1797" result="shape"/>
</filter>
</defs>
</svg>
