<svg width="175" height="33" viewBox="0 0 175 33" fill="none" xmlns="http://www.w3.org/2000/svg">
<g clip-path="url(#clip0_40_1765)">
<path d="M47.355 28.7861V4.06049H53.676V23.8396H64.799V28.7861H47.355Z" fill="#19334A"/>
<path d="M175 28.7861L162.673 16.5L175 4.21397H165.977L158.165 12.007V4.06049H151.844V28.7861H158.165V20.993L165.977 28.7861H175Z" fill="#19334A"/>
<path d="M102.984 23.993L101.479 28.7861H94.864L103.439 4.06049H111.853L120.428 28.7861H113.813L112.308 23.993L110.803 19.3465L107.646 9.007L104.335 19.3465L102.984 23.993Z" fill="#19334A"/>
<path d="M130.648 12.607V28.7861H124.635V4.06049H132.454L141.771 20.993V4.06049H147.791V28.7861H139.972L130.648 12.607Z" fill="#19334A"/>
<path d="M90.209 19.2C89.908 18.4535 89.46 17.8535 89.005 17.2535C88.557 16.807 87.955 16.3535 87.199 16.0535C86.597 15.7535 85.848 15.607 85.246 15.4535C85.848 15.307 86.45 15.1535 87.052 14.8535C87.654 14.5535 88.102 14.2535 88.557 13.807C89.005 13.3604 89.306 12.907 89.46 12.1604C89.761 11.5604 89.761 10.8139 89.761 10.0604C89.761 9.31394 89.614 8.56045 89.46 7.81394C89.159 7.06743 88.858 6.46743 88.109 5.86742C87.507 5.26742 86.758 4.82091 85.701 4.52091C84.651 4.22091 83.447 4.0744 81.942 4.0744H75.173H71.715H68.859V28.8H71.715H75.173H82.838C85.393 28.8 87.199 28.2 88.55 27C89.901 25.8 90.503 24.1535 90.503 22.0535C90.657 20.993 90.51 20.093 90.209 19.2ZM75.32 8.10696H81.935C82.537 8.10696 82.985 8.25347 83.44 8.40696C83.888 8.55347 84.189 8.70696 84.49 9.00696C84.791 9.30696 84.938 9.60696 85.092 9.90696C85.239 10.207 85.239 10.507 85.239 10.9535C85.239 11.7 84.938 12.4535 84.49 12.9C84.042 13.5 83.139 13.6465 81.935 13.6465H75.32V8.10696ZM85.246 23.5395C84.798 24.1395 83.895 24.286 82.691 24.286H75.32V18.7395H82.684C83.286 18.7395 83.734 18.886 84.189 19.0395C84.637 19.186 84.938 19.3395 85.239 19.6395C85.54 19.9395 85.687 20.2395 85.841 20.5395C85.988 20.8395 85.988 21.1395 85.988 21.586C85.995 22.3465 85.848 23.093 85.246 23.5395Z" fill="#19334A"/>
<path d="M16.541 32.9865C25.6763 32.9865 33.082 25.6054 33.082 16.5005C33.082 7.39546 25.6763 0.0144043 16.541 0.0144043C7.40566 0.0144043 0 7.39546 0 16.5005C0 25.6054 7.40566 32.9865 16.541 32.9865Z" fill="#19334A"/>
<path d="M20.916 18.6628C22.1879 18.6628 23.219 17.6227 23.219 16.3396C23.219 15.0565 22.1879 14.0163 20.916 14.0163C19.6441 14.0163 18.613 15.0565 18.613 16.3396C18.613 17.6227 19.6441 18.6628 20.916 18.6628Z" fill="#19334A"/>
<path d="M27.216 19.7722L27.146 19.6675L27.125 19.6396C26.873 19.2419 26.796 19.1582 26.677 18.9768C24.99 16.3884 25.956 14.728 26.712 13.8768C26.803 13.7722 26.894 13.6536 26.971 13.5559C27.083 13.4233 27.188 13.2768 27.265 13.1233L27.279 13.1024C27.426 12.8094 27.503 12.4815 27.503 12.1466C27.503 12.1396 27.503 12.1256 27.503 12.1187C27.398 10.9605 26.425 10.0675 25.256 10.0675C24.087 10.0675 23.114 10.9536 23.009 12.1187C23.009 12.4884 23.107 12.8582 23.282 13.1861C23.31 13.2419 23.436 13.4094 23.45 13.4373C23.478 13.4791 23.506 13.521 23.548 13.5559C23.625 13.6536 23.709 13.7442 23.8 13.828C24.024 14.0791 24.22 14.3512 24.381 14.6373C24.647 15.1815 24.787 15.7815 24.787 16.3884C24.787 17.2536 24.507 18.0908 23.989 18.7884L23.429 19.5908C23.408 19.6117 23.394 19.6396 23.38 19.6605L23.366 19.6815C23.149 20.0303 23.03 20.428 23.03 20.8396C23.03 20.8536 23.03 20.8675 23.03 20.8815C23.135 22.0396 24.108 22.9326 25.277 22.9326C26.446 22.9326 27.419 22.0466 27.524 20.8815C27.524 20.4908 27.419 20.107 27.216 19.7722Z" fill="#F8E19A"/>
<path d="M18.396 19.6394C18.144 19.2418 18.067 19.158 17.948 18.9767C16.261 16.3883 17.227 14.7278 17.983 13.8767C18.074 13.772 18.165 13.6534 18.242 13.5557C18.354 13.4232 18.459 13.2767 18.536 13.1232L18.55 13.1022C18.697 12.8022 18.774 12.4673 18.774 12.1325C18.774 12.1255 18.774 12.1255 18.774 12.1185C18.774 12.1046 18.774 12.0906 18.774 12.0767C18.774 10.8348 17.766 9.83014 16.52 9.83014C15.274 9.83014 14.259 10.8348 14.259 12.0836C14.259 12.4743 14.357 12.858 14.553 13.1929C14.581 13.2487 14.707 13.4162 14.721 13.4441C14.749 13.486 14.777 13.5278 14.819 13.5627C14.896 13.6604 14.98 13.7511 15.071 13.8348C15.295 14.079 15.491 14.358 15.659 14.6441C15.932 15.1883 16.072 15.7953 16.072 16.4092C16.072 17.2673 15.792 18.1046 15.281 18.7953C14.91 19.3115 14.532 19.6534 13.972 19.9604C11.62 21.0767 9.71597 19.5348 9.71597 19.5348L9.52697 19.3813C9.38697 19.2697 9.26097 19.1371 9.16997 18.9836C7.48297 16.3953 8.44897 14.7348 9.20497 13.8836C9.29597 13.779 9.38697 13.6604 9.46397 13.5627C9.57597 13.4301 9.68097 13.2836 9.75797 13.1232L9.77197 13.1022C9.92597 12.7953 10.01 12.4604 10.01 12.1185C9.90497 10.9604 8.93197 10.0673 7.76297 10.0673C6.59397 10.0673 5.62097 10.9534 5.51597 12.1185C5.51597 12.4883 5.61397 12.858 5.78897 13.186C5.81697 13.2418 5.94297 13.4092 5.95697 13.4441C5.98497 13.486 6.01297 13.5278 6.05497 13.5627C6.13197 13.6604 6.21597 13.7511 6.30697 13.8348C6.53097 14.079 6.72697 14.358 6.88797 14.6441C7.15397 15.1883 7.29397 15.7883 7.29397 16.3953C7.29397 17.2604 7.01397 18.0976 6.49597 18.7953L6.20897 19.1999C5.76097 19.6255 5.50897 20.2115 5.50897 20.8255V20.8743C5.52997 22.1022 6.53797 23.086 7.76297 23.086C8.35797 23.086 8.93197 22.8487 9.35897 22.4301C9.47097 22.3534 9.54097 22.2976 9.64597 22.2348C12.243 20.5534 13.909 21.5162 14.763 22.2697C14.833 22.3325 14.903 22.3883 14.973 22.4441C15.393 22.8557 15.96 23.086 16.555 23.086C17.787 23.086 18.795 22.0953 18.809 20.8674C18.788 20.3999 18.662 20.0301 18.396 19.6394Z" fill="#F8E19A"/>
</g>
<defs>
<clipPath id="clip0_40_1765">
<rect width="175" height="33" fill="white"/>
</clipPath>
</defs>
</svg>
