<svg width="175" height="26" viewBox="0 0 175 26" fill="none" xmlns="http://www.w3.org/2000/svg">
<g clip-path="url(#clip0_40_1753)">
<path d="M41.4343 18.2849L32.3421 2.97434C30.3578 -0.214152 25.4708 -0.242877 23.5457 3.11799L14.009 19.0317C12.232 21.9617 14.4236 25.6098 18.0073 25.6098H37.1695C40.7532 25.6385 43.4484 21.8468 41.4343 18.2849Z" fill="#001334"/>
<path d="M28.3141 19.4913L27.7514 18.5434C27.2183 17.6529 26.0632 15.757 26.0632 15.757L18.3628 2.77324C16.3784 -0.0992802 11.6397 -0.357812 9.65536 3.2903L0.681382 18.3423C-1.18449 21.5021 1.03679 25.6098 5.06472 25.6385H24.1085H32.2235H37.0512C32.1346 25.6672 30.5651 23.1681 28.3141 19.4913Z" fill="white"/>
<path d="M28.3141 19.4338L27.7514 18.4858C27.2183 17.5954 26.0632 15.6995 26.0632 15.6995L21.0876 7.19684L13.9498 19.0316C12.1728 21.9616 14.3645 25.6097 17.9481 25.6097H24.0789H32.194H37.0512C32.1051 25.581 30.5651 23.1393 28.3141 19.4338Z" fill="url(#paint0_linear_40_1753)"/>
<path d="M159.806 7.15163C161.139 5.94518 163.478 5.37066 166.884 5.37066H174.852V0.975708H165.433C163.182 0.975708 161.287 1.20552 159.806 1.66512C158.355 2.12472 157.081 2.84285 155.985 3.84823C154.83 4.93979 153.912 6.28987 153.261 7.89848C152.609 9.5358 152.283 11.3168 152.283 13.1839C152.283 14.9649 152.609 16.6884 153.261 18.2683C153.912 19.8482 154.83 21.227 155.985 22.3185C157.052 23.3239 158.325 24.042 159.747 24.5017C161.198 24.9613 163.123 25.1911 165.433 25.1911H174.852V20.8536H166.884C165.078 20.8536 163.834 20.7961 163.123 20.6525C162.383 20.5089 161.702 20.2791 161.139 19.9343C160.013 19.2449 159.154 18.3544 158.592 17.2342C158.058 16.1426 157.792 14.7638 157.792 13.1552C157.792 10.3976 158.473 8.35809 159.806 7.15163Z" fill="white"/>
<path d="M90.4723 25.2485H112.685V20.9972H95.8922V14.9361H110.553V10.9146H95.8922V5.28448H112.685V1.00443H90.4723V25.2485Z" fill="white"/>
<path d="M118.223 1.00443L128.619 13.1265L118.223 25.2485H124.947L133.151 15.6543V10.6274L124.947 1.00443H118.223Z" fill="white"/>
<path d="M143.457 1.00443L135.253 10.6274V15.6543L143.457 25.2485H150.18L139.755 13.1265L150.18 1.00443H143.457Z" fill="white"/>
<path d="M68.7039 12.9541L58.7229 1.00443H53.5696V25.2485H58.9895V9.07622L67.6377 19.1301H69.7404L78.3886 8.99007V25.2485H83.8084V1.00443H78.7145L68.7039 12.9541Z" fill="white"/>
</g>
<defs>
<linearGradient id="paint0_linear_40_1753" x1="11.4024" y1="13.6679" x2="33.3619" y2="22.0347" gradientUnits="userSpaceOnUse">
<stop stop-color="#003087" stop-opacity="0"/>
<stop offset="1" stop-color="#003087"/>
</linearGradient>
<clipPath id="clip0_40_1753">
<rect width="175" height="26" fill="white"/>
</clipPath>
</defs>
</svg>
