<svg width="389" height="67" viewBox="0 0 389 67" fill="none" xmlns="http://www.w3.org/2000/svg">
<path d="M57.1793 39.5338C56.015 40.2386 54.6567 40.3667 53.6218 39.79C52.3281 39.0212 51.5519 37.2912 51.5519 34.9204V27.68C51.5519 24.22 50.1936 21.7211 47.865 21.0804C43.9194 19.9271 40.944 24.7326 39.8444 26.5267L32.8587 37.6115V23.9637C32.794 20.8241 31.7591 18.966 29.8186 18.3893C28.525 18.0048 26.5845 18.1971 24.7087 21.0163L9.12023 45.7489C7.05039 41.8404 5.95079 37.4834 5.95079 33.0623C5.95079 18.133 18.0464 6.02297 32.8587 6.02297C47.671 6.02297 59.7666 18.133 59.7666 33.0623V33.1263V33.1904C59.896 36.0738 58.9904 38.3804 57.1793 39.5338ZM65.7174 33.0623V32.9982V32.9341C65.6527 14.8011 50.9051 0 32.8587 0C14.7476 0 0 14.8011 0 33.0623C0 51.2593 14.7476 66.1245 32.8587 66.1245C41.2027 66.1245 49.094 62.9849 55.1742 57.2823C56.4031 56.1289 56.4678 54.2708 55.3035 53.0534C54.2039 51.836 52.3281 51.7719 51.0992 52.8612C51.0992 52.8612 51.0992 52.8612 51.0345 52.9252C46.1186 57.5386 39.521 60.1656 32.7293 60.1656C24.7734 60.1656 17.6583 56.7056 12.7424 51.1952L26.7785 28.8974V39.2134C26.7785 44.1471 28.719 45.7489 30.3361 46.1975C31.9531 46.646 34.4111 46.3256 37.0631 42.1608L44.7603 29.7945C45.019 29.41 45.2131 29.0256 45.4718 28.7693V35.0486C45.4718 39.6619 47.3476 43.3782 50.5817 45.1723C53.4924 46.8382 57.1793 46.646 60.2194 44.7878C63.971 42.353 65.9761 38.1241 65.7174 33.0623ZM111.513 20.0677C112.289 20.5162 113 21.6055 113 22.5666C113 24.1044 111.707 25.3859 110.219 25.3859C109.831 25.3859 109.507 25.2577 109.184 25.1936C107.438 23.9121 105.238 23.0792 102.91 23.0792C97.4118 23.0792 93.6602 27.5003 93.6602 33.0107C93.6602 38.5211 97.4765 42.8781 102.91 42.8781C105.626 42.8781 108.084 41.7888 109.896 40.0588C110.348 39.7385 110.93 39.5462 111.513 39.5462C113 39.5462 114.165 40.6996 114.165 42.1733C114.165 43.1344 113.582 43.9673 112.871 44.4159C110.219 46.6585 106.661 48.1322 102.975 48.1322C94.5658 48.1322 87.7094 41.2762 87.7094 32.8184C87.7094 24.3607 94.5658 17.5047 102.975 17.5047C106.079 17.4406 109.055 18.4018 111.513 20.0677ZM126.907 26.4751C132.664 26.4751 137.45 31.2807 137.45 37.2396C137.45 43.1344 132.599 48.1962 126.907 48.1962C120.892 48.1962 115.911 43.1985 115.911 37.2396C115.911 31.2807 120.892 26.4751 126.907 26.4751ZM126.842 42.8781C129.365 42.8781 131.499 40.5073 131.499 37.3036C131.499 34.0999 129.365 32.0496 126.842 32.0496C124.126 32.0496 121.862 34.0358 121.862 37.3036C121.862 40.4433 124.126 42.8781 126.842 42.8781ZM141.072 44.8644V29.7429C141.072 28.077 142.366 26.7314 144.048 26.7314C145.665 26.7314 147.023 28.077 147.023 29.7429V44.8644C147.023 46.5303 145.665 47.8759 144.048 47.8759C142.431 47.8759 141.072 46.4662 141.072 44.8644ZM140.62 21.0288C140.62 19.0425 142.172 17.5047 144.048 17.5047C145.988 17.5047 147.541 19.1066 147.541 21.0288C147.541 22.951 145.988 24.4888 144.048 24.4888C142.107 24.4247 140.62 22.8869 140.62 21.0288ZM158.407 36.6629V44.8644C158.407 46.5303 157.049 47.8759 155.432 47.8759C153.815 47.8759 152.457 46.5303 152.457 44.8644V29.0381C152.457 27.7566 153.492 26.7314 154.785 26.7314C156.079 26.7314 157.049 27.8207 157.049 29.0381C159.442 26.7955 161.577 26.4751 163.582 26.4751C169.533 26.4751 172.185 30.8962 172.185 35.9581V44.8644C172.185 46.5303 170.826 47.8759 169.209 47.8759C167.592 47.8759 166.234 46.5303 166.234 44.8644V36.6629C166.234 34.0999 165.911 31.9214 162.159 31.9214C159.507 31.9214 158.407 34.0999 158.407 36.6629ZM191.46 39.8025C190.749 39.8025 190.296 39.4822 189.908 39.0336L182.987 31.601V44.8644C182.987 46.5303 181.628 47.8759 180.011 47.8759C178.394 47.8759 177.036 46.5303 177.036 44.8644V18.594C177.23 18.1455 177.683 17.8251 178.136 17.8251C178.653 17.8251 179.106 18.2736 179.429 18.594L190.49 30.8962C190.813 31.2807 191.201 31.4729 191.46 31.4729C191.654 31.4729 192.107 31.2807 192.43 30.8962L203.491 18.594C203.814 18.2736 204.203 17.8251 204.785 17.8251C205.302 17.8251 205.755 18.1455 205.884 18.594V44.8644C205.884 46.5303 204.591 47.8759 202.909 47.8759C201.292 47.8759 199.934 46.5303 199.934 44.8644V31.601L193.013 39.0336C192.495 39.4822 192.042 39.8025 191.46 39.8025ZM220.05 42.8781C222.702 42.8781 224.966 40.5073 224.966 37.3036C224.966 34.0999 222.637 31.9855 220.05 31.9855C217.462 31.9855 215.328 34.164 215.328 37.3036C215.328 40.3792 217.398 42.8781 220.05 42.8781ZM226.389 45.5692L226.259 44.8644C225.095 47.107 221.408 48.1322 219.08 48.1322C213.517 48.1322 209.377 43.1344 209.377 37.1755C209.377 31.2807 213.582 26.411 219.403 26.411C220.373 26.411 223.737 26.6673 226.324 29.6788L226.453 28.974C226.453 27.6925 227.424 26.6673 228.717 26.6673C230.011 26.6673 231.046 27.7566 231.046 28.974V45.5051C231.046 46.7866 230.011 47.8118 228.717 47.8118C227.359 47.8759 226.389 46.7866 226.389 45.5692ZM247.41 31.9214H246.764C243.012 32.1136 242.301 34.2281 242.301 36.6629V44.8644C242.301 46.5303 240.942 47.8759 239.325 47.8759C237.708 47.8759 236.35 46.5303 236.35 44.8644V29.0381C236.35 27.7566 237.385 26.7314 238.678 26.7314C239.972 26.7314 240.942 27.8207 240.942 29.0381C243.141 26.9877 244.953 26.5392 246.764 26.4751H247.346C248.769 26.4751 250.062 27.6925 250.062 29.2303C250.127 30.6399 248.834 31.9214 247.41 31.9214ZM270.373 43.4547C270.631 43.9033 270.826 44.3518 270.826 44.8644C270.826 46.4022 269.403 47.8118 267.85 47.8118C266.815 47.8118 265.91 47.0429 265.198 46.1459L258.342 38.2647V44.8003C258.342 46.4662 256.983 47.8118 255.366 47.8118C253.749 47.8118 252.391 46.4662 252.391 44.8003V20.7725C252.391 19.1066 253.685 17.761 255.366 17.761C257.048 17.761 258.342 19.1066 258.342 20.7725V35.7659L265.198 28.2692C265.91 27.5003 266.751 26.6673 267.785 26.6673C269.273 26.6673 270.632 28.0129 270.632 29.5507C270.632 29.9992 270.502 30.5118 270.243 30.8962L264.81 36.791L270.373 43.4547ZM282.016 31.9855C280.399 31.9855 277.747 32.8185 277.747 35.3173H286.349C286.285 32.8185 283.568 31.9855 282.016 31.9855ZM289.778 39.0977H277.747C277.747 42.6218 281.175 43.1985 282.662 43.1985C283.762 43.1985 285.314 43.0062 286.543 42.4296C286.931 42.1733 287.514 41.9811 288.096 41.9811C289.389 41.9811 290.489 43.0703 290.489 44.4159C290.489 45.3129 289.907 46.0818 289.195 46.5303C287.384 47.8759 284.991 48.1962 282.727 48.1962C276.712 48.1962 271.731 44.9925 271.731 37.4959C271.731 31.601 274.771 26.4751 281.886 26.4751C287.643 26.4751 291.977 30.1914 292.106 36.791C292.106 38.0085 291.071 39.0977 289.778 39.0977ZM306.336 48.1322H304.719C300.191 48.1322 297.539 46.1459 297.539 39.1618V31.9214H295.987C294.564 31.9214 293.335 30.6399 293.335 29.2303C293.335 27.6925 294.629 26.4751 295.987 26.4751H297.539V20.9007C297.539 19.2347 298.833 17.8892 300.515 17.8892C302.132 17.8892 303.49 19.2347 303.49 20.9007V26.4751H305.948C307.371 26.4751 308.6 27.6925 308.6 29.2303C308.6 30.6399 307.306 31.9214 305.948 31.9214H303.49V38.0084C303.49 42.0451 303.684 42.8781 305.495 42.8781H306.336C307.759 42.8781 308.988 44.0314 308.988 45.5051C308.988 46.9148 307.759 48.1322 306.336 48.1322ZM335.12 20.0677C335.896 20.5162 336.608 21.6055 336.608 22.5666C336.608 24.1044 335.314 25.3859 333.826 25.3859C333.438 25.3859 333.115 25.2577 332.791 25.1936C331.045 23.9121 328.846 23.0792 326.517 23.0792C321.019 23.0792 317.268 27.5003 317.268 33.0107C317.268 38.5211 321.084 42.8781 326.517 42.8781C329.234 42.8781 331.692 41.7888 333.503 40.0588C333.956 39.7385 334.538 39.5462 335.12 39.5462C336.608 39.5462 337.772 40.6996 337.772 42.1733C337.772 43.1344 337.19 43.9673 336.478 44.4159C333.826 46.6585 330.269 48.1322 326.582 48.1322C318.173 48.1322 311.317 41.2762 311.317 32.8184C311.317 24.3607 318.173 17.5047 326.582 17.5047C329.687 17.4406 332.727 18.4018 335.12 20.0677ZM350.191 42.8781C352.843 42.8781 355.107 40.5073 355.107 37.3036C355.107 34.0999 352.778 31.9855 350.191 31.9855C347.539 31.9855 345.469 34.164 345.469 37.3036C345.469 40.3792 347.604 42.8781 350.191 42.8781ZM356.53 45.5692L356.4 44.8644C355.236 47.107 351.549 48.1322 349.221 48.1322C343.658 48.1322 339.518 43.1344 339.518 37.1755C339.518 31.2807 343.723 26.411 349.544 26.411C350.514 26.411 353.878 26.6673 356.465 29.6788L356.595 28.974C356.595 27.6925 357.565 26.6673 358.858 26.6673C360.152 26.6673 361.187 27.7566 361.187 28.974V45.5051C361.187 46.7866 360.152 47.8118 358.858 47.8118C357.5 47.8759 356.53 46.7866 356.53 45.5692ZM377.422 42.8781C380.074 42.8781 382.144 40.3792 382.144 37.3036C382.144 34.0999 380.01 31.9855 377.422 31.9855C374.77 31.9855 372.506 34.0999 372.506 37.3036C372.506 40.5073 374.77 42.8781 377.422 42.8781ZM372.506 46.4022V53.8988C372.506 55.5648 371.148 56.9103 369.531 56.9103C367.914 56.9103 366.556 55.5648 366.556 53.8988V29.0381C366.556 27.7566 367.591 26.7314 368.884 26.7314C370.178 26.7314 371.148 27.8207 371.148 29.2944C373.347 27.0518 376.064 26.4751 378.134 26.4751C383.891 26.4751 388.16 31.2807 388.16 37.2396C388.16 43.1344 384.085 48.1962 378.457 48.1962C376.711 48.1322 374.123 47.6196 372.506 46.4022Z" fill="#19334A"/>
</svg>
