<svg width="250" height="67" viewBox="0 0 250 67" fill="none" xmlns="http://www.w3.org/2000/svg">
<path d="M173.653 18.0626C167.94 18.7628 163.729 21.9613 162.18 26.7352C161.115 29.9814 161.244 33.0686 162.583 36.2034C164.165 39.9111 167.569 42.5527 172.087 43.5552C173.394 43.8576 176.767 43.8735 178.122 43.6189C183.366 42.6005 187.029 39.386 188.546 34.5166C188.901 33.355 188.949 33.0049 188.949 30.9362C188.949 28.8675 188.901 28.5174 188.546 27.3558C187.045 22.5501 183.512 19.3834 178.461 18.3331C177.412 18.1262 174.54 17.9671 173.653 18.0626ZM176.847 24.38C178.735 24.8734 180.526 26.0827 181.349 27.499C182.624 29.6313 182.576 32.4479 181.253 34.4848C178.881 38.1607 173.459 38.7654 170.2 35.7101C167.489 33.164 167.392 29.1221 169.974 26.3692C171.7 24.5551 174.443 23.7754 176.847 24.38Z" fill="#19334A"/>
<path d="M201.611 18.0626C196.077 18.7628 191.997 21.9613 190.497 26.7352C189.465 29.9814 189.59 33.0686 190.888 36.2034C192.42 39.9111 195.718 42.5527 200.095 43.5552C201.361 43.8576 204.628 43.8735 205.941 43.6189C211.021 42.6005 214.57 39.386 216.039 34.5166C216.383 33.355 216.43 33.0049 216.43 30.9362C216.43 28.8675 216.383 28.5174 216.039 27.3558C214.585 22.5501 211.162 19.3834 206.269 18.3331C205.253 18.1262 202.471 17.9671 201.611 18.0626ZM204.722 24.38C206.566 24.8734 208.286 26.0827 209.083 27.499C210.318 29.6313 210.271 32.4479 208.989 34.4848C206.691 38.1607 201.439 38.7654 198.281 35.7101C195.655 33.164 195.562 29.1221 198.063 26.3692C199.72 24.5551 202.377 23.7754 204.722 24.38Z" fill="#19334A"/>
<path d="M238.796 18.1533C235.512 18.6306 233.04 20.7304 232.243 23.7529C231.478 26.6005 232.02 29.5116 233.55 30.9274C234.459 31.7706 235.544 32.2637 238.525 33.2182C241.411 34.1408 242.065 34.5385 242.368 35.5089C242.703 36.6225 241.874 37.9588 240.614 38.3087C239.929 38.4996 238.637 38.4996 237.776 38.2928C236.835 38.0701 235.145 37.2429 234.427 36.6225C234.109 36.3202 233.742 36.0975 233.678 36.0975C233.614 36.0975 233.247 36.6384 232.897 37.3065C232.402 38.2451 232.243 38.4519 232.211 38.1974L232.163 37.8792H224.493V18.5988H218.147V43.3197H232.147V42.6357C232.147 42.2698 232.179 41.9676 232.211 41.9676C232.243 41.9676 232.817 42.238 233.487 42.5403C235.56 43.5106 236.883 43.797 239.45 43.797C241.954 43.797 243.134 43.5743 244.68 42.8266C245.908 42.238 247.566 40.5995 248.124 39.4541C249.225 37.1634 249.384 34.0772 248.459 32.1205C248.3 31.7547 247.758 31.0388 247.247 30.5456C246.163 29.4639 244.999 28.8753 242.017 27.9208C240.837 27.5549 239.657 27.1095 239.386 26.9504C238.43 26.3619 238.238 25.0733 238.988 24.262C240.295 22.8621 242.623 22.9894 245.047 24.5961L245.525 24.8983L246.817 22.4326C247.503 21.0963 248.077 19.9668 248.045 19.9509C247.901 19.8078 246.099 19.0919 245.079 18.7737C242.926 18.1056 240.662 17.867 238.796 18.1533Z" fill="#19334A"/>
<path d="M80.7391 31.2758V44.1116H85.2768C87.7713 44.1116 90.3785 44.0364 91.0554 43.9612C96.6586 43.2718 100.795 39.8748 102.124 34.8858C102.563 33.2312 102.663 30.3231 102.349 28.5933C101.71 25.2339 99.9678 22.5264 97.2853 20.6963C96.0819 19.8689 95.0039 19.4177 93.2741 18.9414C91.9203 18.5778 91.7072 18.5778 86.3172 18.5026L80.7517 18.44V31.2758H80.7391ZM90.6418 23.6796C94.1641 24.4317 96.5081 27.3774 96.5081 31.0627C96.4956 33.507 95.7435 35.6129 94.3396 37.0043C92.9482 38.4082 90.8799 39.0851 87.9969 39.0976H86.6306V23.479H88.1473C88.9746 23.479 90.0902 23.5793 90.6418 23.6796Z" fill="#19334A"/>
<path d="M104.468 31.2886V44.1119L115.273 44.0993H126.065L128.848 40.1884C130.39 38.0575 131.681 36.3026 131.719 36.3026C131.781 36.3026 133.073 38.0575 134.602 40.2135L137.397 44.1244H140.907C142.825 44.1244 144.404 44.0743 144.404 44.0367C144.404 43.9865 142.336 41.1035 139.841 37.6313L135.279 31.3137L139.641 25.2217C142.048 21.8874 144.141 19.0169 144.279 18.8539C144.555 18.5781 144.555 18.6157 144.555 21.1854V23.7927H149.869V44.1244H156.212V23.7927L159.308 23.7676L162.392 23.7175L159.083 18.5029L148.252 18.4904H137.41L134.627 22.4013C133.085 24.5323 131.794 26.2872 131.756 26.3122C131.706 26.3122 130.415 24.5573 128.886 22.4013L126.091 18.4904H104.493V31.2886H104.468ZM123.533 24.8707C126.015 28.3053 128.046 31.1883 128.046 31.2761C128.046 31.3638 126.015 34.2719 123.521 37.7316L118.983 44.0241L118.933 41.5673L118.908 39.1104H110.359V33.3569H117.278V28.4933H110.359V23.4793H118.908V21.0475C118.908 19.7063 118.933 18.6157 118.971 18.6157C119.008 18.6157 121.052 21.4361 123.533 24.8707Z" fill="#19334A"/>
<path fill-rule="evenodd" clip-rule="evenodd" d="M21.9573 3.72619C18.0214 5.7799 14.7866 7.51387 14.7989 7.58766C14.7989 7.77212 24.2574 12.5559 24.5895 12.5436C24.7371 12.5436 25.844 12.0271 27.0494 11.4122L29.2388 10.2931L31.6249 11.5229L34.0111 12.7527L37.9224 10.9941C43.8016 8.35011 44.4166 8.05497 44.3182 7.96888C44.1952 7.83361 42.0797 6.70222 36.348 3.6893C33.5806 2.23817 30.8992 0.799346 30.3826 0.516499C29.866 0.221356 29.3741 0 29.288 0C29.2019 0 25.8932 1.67248 21.9573 3.72619ZM4.6762 12.6789L0.568087 14.7941V24.0911C0.568087 29.2069 0.617286 33.3881 0.691084 33.3881C0.752583 33.3881 2.76974 32.515 5.18049 31.4451L9.54689 29.5021V19.7009L11.6747 20.8568C13.3229 21.7546 14.9588 22.64 16.6069 23.5377L19.4113 25.0503L20.6535 24.4846C21.4407 24.128 22.2156 23.7714 22.9905 23.4147C23.5932 23.1319 25.0692 22.4678 26.2745 21.939C27.4799 21.4102 28.5869 20.8691 28.7468 20.7462C28.9559 20.5863 26.3975 19.1721 19.2883 15.5196C13.9256 12.765 9.36239 10.5268 9.1533 10.5391C8.9442 10.5514 6.92705 11.5106 4.6762 12.6789ZM45.0439 13.2692C42.2519 14.5358 39.9641 15.618 39.9641 15.6795C39.9641 15.741 41.4893 16.651 43.3466 17.6963C45.2161 18.7416 46.729 19.6517 46.729 19.7254C46.729 19.7992 45.0808 20.5986 43.0637 21.4963C41.0465 22.4063 35.9544 24.706 31.7356 26.6121L17.6278 32.9946C14.0732 34.5933 10.8753 36.0444 10.5186 36.2043C3.27403 39.4878 1.26917 40.3978 0.998577 40.5577C0.727983 40.7176 0.666484 41.6276 0.617285 46.2146L0.555786 51.6871L4.22111 53.5563L7.88643 55.4256L12.9785 53.1259C15.7706 51.8592 18.0706 50.7647 18.0706 50.6787C18.0706 50.5926 17.554 50.2605 16.9267 49.9285C16.2994 49.5965 14.9957 48.8586 14.024 48.2929C13.0646 47.7272 12.1052 47.2107 11.8961 47.1369C11.687 47.0631 11.5148 46.9525 11.5148 46.8664C11.5148 46.7926 13.7534 45.7227 16.4962 44.5052C21.8097 42.1318 25.8686 40.2994 34.5891 36.3519C38.4882 34.5933 42.3872 32.8225 46.2985 31.0639C49.7301 29.5144 53.7152 27.7066 55.1543 27.0425L57.7741 25.8374L57.8356 20.3034L57.8971 14.7695L54.1826 12.8757C52.1409 11.8304 50.382 10.9695 50.2959 10.9695C50.1975 10.9695 47.836 12.0148 45.0439 13.2692ZM56.7902 33.2406C56.2367 33.5111 55.1543 34.0153 54.3794 34.3597C53.6045 34.704 52.1286 35.3681 51.1077 35.8354L49.2504 36.6839L49.2135 41.5415C49.1889 44.2101 49.0905 46.3868 48.9921 46.3745C48.7707 46.3376 45.2899 44.5544 41.7845 42.6729C39.2507 41.3201 39.0908 41.2586 38.5005 41.5538C38.1561 41.726 36.102 42.6483 33.9373 43.5952C31.7725 44.5544 29.9275 45.3907 29.8415 45.4767C29.7554 45.5505 34.1095 47.9117 39.5336 50.7278L49.3734 55.8437L53.5799 53.667C55.8923 52.4741 57.8602 51.3796 57.9463 51.2444C58.1554 50.9369 58.1308 32.7118 57.934 32.7364C57.8479 32.7487 57.3314 32.97 56.7902 33.2406ZM33.4945 54.6262C32.7688 54.9336 32.0308 55.2534 31.3051 55.5731C29.1035 56.52 29.534 56.5569 26.9141 55.2534C25.1675 54.3803 24.4173 54.122 24.0852 54.245C23.8392 54.3434 21.7359 55.2903 19.399 56.3479C17.0743 57.4055 15.0818 58.2786 14.9834 58.2786C13.9994 58.2786 15.6353 59.2501 21.9081 62.4106L29.2634 66.1245L32.3629 64.5996C34.0603 63.7634 37.5042 62.0786 39.9887 60.8611C42.4856 59.6436 44.4904 58.6229 44.4535 58.5737C44.4166 58.5369 42.3257 57.467 39.8042 56.188L35.2287 53.876L33.4945 54.6262Z" fill="#19334A"/>
</svg>
