<svg width="353" height="68" viewBox="0 0 353 68" fill="none" xmlns="http://www.w3.org/2000/svg">
<path fill-rule="evenodd" clip-rule="evenodd" d="M34.3896 24.3398C36.4636 23.3036 39.1036 21.7784 41.7465 19.6885C42.3035 20.8477 42.3646 21.8591 42.0777 22.6759C41.8743 23.2515 41.4906 23.7522 40.9868 24.1505C40.4407 24.581 39.7587 24.8943 39.0052 25.0638C37.5753 25.3864 35.9057 25.1979 34.3896 24.3398Z" fill="#19334A"/>
<path fill-rule="evenodd" clip-rule="evenodd" d="M34.7489 34.9567L37.4951 36.5455C31.8879 39.6933 30.3636 45.5385 28.553 51.2322C26.7424 45.5385 25.2179 39.6933 19.6108 36.5455L22.357 34.9567C22.8876 34.7566 23.2533 34.2305 23.2251 33.6332C22.9735 28.3011 24.4108 25.9433 26.3495 24.4628C27.0449 23.9326 27.8039 23.6662 28.553 23.6662C29.3021 23.6662 30.0609 23.9326 30.7563 24.4628C32.6952 25.9433 34.1324 28.3011 33.881 33.6332C33.8525 34.2305 34.2183 34.7566 34.7489 34.9567Z" fill="#19334A"/>
<path fill-rule="evenodd" clip-rule="evenodd" d="M28.553 0.141235C31.7272 0.226707 34.9096 0.843757 37.6713 2.04476C39.5838 2.87734 41.3685 3.97722 42.9839 5.29227C43.7139 5.88596 44.3145 6.4596 44.9765 7.11978C46.762 7.18161 49.3707 5.19498 50.5821 3.33621C48.4975 10.1814 38.9856 18.2651 32.3998 21.3583C32.3974 21.3572 32.3953 21.3555 32.3933 21.3542C31.2116 20.4503 29.8823 19.9983 28.553 19.9983C27.2235 19.9983 25.8945 20.4503 24.7126 21.3542C24.7105 21.3552 24.7087 21.3572 24.7061 21.3583C18.1206 18.2651 8.60847 10.1814 6.52404 3.33621C7.73504 5.19498 10.3441 7.18161 12.1293 7.11978C12.7914 6.4596 13.3922 5.88596 14.1219 5.29227C15.7377 3.97722 17.5223 2.87734 19.4347 2.04476C22.1966 0.843757 25.3788 0.226707 28.553 0.141235Z" fill="#19334A"/>
<path fill-rule="evenodd" clip-rule="evenodd" d="M22.7165 24.3398C20.6423 23.3036 18.0024 21.7784 15.3596 19.6885C14.8023 20.8477 14.7413 21.8591 15.0283 22.6759C15.232 23.2515 15.6153 23.7522 16.1192 24.1505C16.6653 24.581 17.3471 24.8943 18.1009 25.0638C19.5309 25.3864 21.2004 25.1979 22.7165 24.3398Z" fill="#19334A"/>
<path fill-rule="evenodd" clip-rule="evenodd" d="M44.6408 17.1279C46.0959 15.6571 47.3777 14.0294 48.4088 12.5767L48.9321 13.5638C50.6179 16.9415 51.4936 20.3057 51.4936 24.092C51.4936 26.094 51.4846 28.0976 51.4899 30.0997C51.4928 31.355 51.5017 31.9581 51.5212 33.2141C51.6437 40.8598 53.2954 48.5959 57.0365 55.6753L49.2088 49.3528L43.6699 58.3556L37.8512 52.869L28.5529 67.9833L19.2545 52.869L13.4359 58.3556L7.89723 49.3528L0.0693359 55.6753C3.81073 48.5959 5.46229 40.8598 5.58441 33.2141C5.60422 31.9581 5.61293 31.355 5.61614 30.0997C5.62131 28.0976 5.61248 26.094 5.61248 24.092C5.61248 20.3057 6.48803 16.9415 8.17385 13.5638L8.69725 12.5767C9.72807 14.0294 11.0099 15.6571 12.465 17.1279L12.0107 18.0732C11.128 19.9095 10.8356 21.9625 11.5233 23.9149C11.9665 25.1726 12.7756 26.2511 13.8186 27.0745C14.8312 27.8741 16.0299 28.413 17.2848 28.6961C18.1023 28.8803 18.9351 28.9563 19.7624 28.9305C19.5693 30.0266 19.485 31.1635 19.4795 32.322L12.0955 36.594L17.7935 39.7932C18.2587 40.0544 18.6894 40.3483 19.0898 40.6695C23.7876 44.8946 26.6119 57.3933 28.5529 63.4982C30.4939 57.3933 33.3182 44.8946 38.016 40.6695C38.4168 40.3483 38.8469 40.0544 39.3124 39.7932L45.0103 36.594L37.6261 32.322C37.6209 31.1635 37.5366 30.0266 37.3433 28.9305C38.171 28.9563 39.0035 28.8803 39.821 28.6961C41.0759 28.413 42.2747 27.8741 43.287 27.0745C44.3304 26.2511 45.1393 25.1726 45.5824 23.9149C46.2701 21.9625 45.9779 19.9095 45.0953 18.0732L44.6408 17.1279Z" fill="#19334A"/>
<path d="M89.2807 47.7484C97.6391 47.7484 102.702 42.5689 102.702 33.9815C102.702 25.4208 97.6391 20.2683 89.3612 20.2683H79.5559V47.7484H89.2807ZM85.3558 42.7704V25.2464H89.053C94.1966 25.2464 96.9156 27.8763 96.9156 33.9815C96.9156 40.1135 94.1966 42.7704 89.0397 42.7704H85.3558ZM106.999 47.7484H125.537V42.9582H112.799V36.3968H124.533V31.6065H112.799V25.0585H125.484V20.2683H106.999V47.7484ZM135.533 20.2683H128.956L137.382 34.0083L128.796 47.7484H135.439L141.065 38.3692H141.279L146.905 47.7484H153.576L145.017 34.0083L153.389 20.2683H146.839L141.279 29.6341H141.065L135.533 20.2683Z" fill="#19334A"/>
<path d="M176.325 27.1383H179.539C179.392 22.9921 175.574 19.8926 170.27 19.8926C165.019 19.8926 160.894 22.9519 160.894 27.5677C160.894 31.2711 163.573 33.4716 167.859 34.7061L171.235 35.6722C174.128 36.4773 176.7 37.497 176.7 40.2345C176.7 43.24 173.806 45.2257 170.002 45.2257C166.734 45.2257 163.841 43.7768 163.573 40.6637H160.143C160.465 45.1721 164.109 48.2317 170.002 48.2317C176.325 48.2317 179.914 44.7429 179.914 40.2881C179.914 35.1354 175.039 33.4716 172.199 32.7202L169.413 31.9688C167.377 31.4321 164.109 30.3586 164.109 27.4067C164.109 24.7767 166.519 22.8445 170.163 22.8445C173.485 22.8445 176.003 24.4279 176.325 27.1383ZM207.451 28.8558C206.433 23.2202 201.932 19.8926 196.413 19.8926C189.395 19.8926 184.305 25.3134 184.305 34.0083C184.305 42.7031 189.395 48.124 196.413 48.124C201.932 48.124 206.433 44.7965 207.451 39.1607H204.129C203.325 42.9715 200.057 45.0109 196.413 45.0109C191.431 45.0109 187.519 41.1465 187.519 34.0083C187.519 26.8699 191.431 23.0056 196.413 23.0056C200.057 23.0056 203.325 25.0451 204.129 28.8558H207.451ZM212.819 47.7484H216.141V37.014H222.142C222.383 37.014 222.611 37.014 222.838 37.0006L228.625 47.7484H232.483L226.281 36.3968C229.777 35.2025 231.411 32.3445 231.411 28.6948C231.411 23.8375 228.518 20.2683 222.088 20.2683H212.819V47.7484ZM216.141 34.0083V23.2202H221.981C226.428 23.2202 228.143 25.394 228.143 28.6948C228.143 31.9956 226.428 34.0083 222.035 34.0083H216.141ZM236.946 47.7484H253.717V44.7965H240.269V35.4575H252.645V32.5055H240.269V23.2202H253.503V20.2683H236.946V47.7484ZM259.49 47.7484H276.261V44.7965H262.812V35.4575H275.189V32.5055H262.812V23.2202H276.046V20.2683H259.49V47.7484ZM303.787 20.2683H300.519V41.8982H300.251L285.249 20.2683H282.034V47.7484H285.356V26.1722H285.624L300.572 47.7484H303.787V20.2683ZM310.434 47.7484H327.205V44.7965H313.756V35.4575H326.133V32.5055H313.756V23.2202H326.991V20.2683H310.434V47.7484ZM332.978 47.7484H336.3V37.014H342.301C342.542 37.014 342.77 37.014 342.997 37.0006L348.784 47.7484H352.642L346.44 36.3968C349.936 35.2025 351.57 32.3445 351.57 28.6948C351.57 23.8375 348.677 20.2683 342.247 20.2683H332.978V47.7484ZM336.3 34.0083V23.2202H342.14C346.587 23.2202 348.302 25.394 348.302 28.6948C348.302 31.9956 346.587 34.0083 342.194 34.0083H336.3Z" fill="#19334A"/>
</svg>
