<svg width="312" height="64" viewBox="0 0 312 64" fill="none" xmlns="http://www.w3.org/2000/svg">
<path d="M148.485 30.1256C149.395 30.1256 150.218 30.4337 150.911 31.0937C151.561 31.7977 151.864 32.5897 151.864 33.5578C151.864 38.31 150.218 42.3142 146.883 45.6582C143.591 49.0024 139.65 50.7185 134.972 50.7185C130.294 50.7185 126.353 49.0464 123.061 45.6582C119.769 42.3142 118.08 38.31 118.08 33.5578C118.08 28.8056 119.726 24.8014 123.061 21.4573C126.353 18.1132 130.294 16.3971 134.972 16.3971C139.087 16.3971 142.681 17.7172 145.8 20.4013C146.493 21.0173 146.926 21.8093 147.013 22.7333C147.056 23.7014 146.84 24.4934 146.233 25.2414C145.627 25.9455 144.847 26.3415 143.938 26.4295C142.985 26.5175 142.205 26.2535 141.469 25.6375C139.606 24.0534 137.441 23.2174 134.972 23.2174C132.157 23.2174 129.818 24.2294 127.825 26.2535C125.833 28.2336 124.836 30.6536 124.836 33.5138C124.836 36.3739 125.833 38.7501 127.825 40.7742C129.774 42.7981 132.157 43.8102 134.972 43.8102C137.138 43.8102 139.13 43.1942 140.863 41.9181C142.595 40.6422 143.808 39.014 144.544 36.9899H137.874C136.921 36.9899 136.141 36.6379 135.448 35.9779C134.799 35.3178 134.495 34.5258 134.495 33.5578C134.495 32.5897 134.799 31.7977 135.448 31.0937C136.141 30.4337 136.921 30.1256 137.874 30.1256H148.485Z" fill="#19334A"/>
<path d="M173.561 50.6731C168.883 50.6731 164.942 49.0011 161.65 45.6129C158.358 42.2689 156.669 38.2647 156.669 33.5125C156.669 28.7603 158.315 24.7562 161.65 21.412C164.942 18.0679 168.883 16.3518 173.561 16.3518C178.239 16.3518 182.18 18.0239 185.472 21.412C188.764 24.7562 190.453 28.7603 190.453 33.5125C190.453 38.2647 188.807 42.2689 185.472 45.6129C182.18 49.0011 178.239 50.6731 173.561 50.6731ZM173.561 23.2601C170.746 23.2601 168.407 24.2722 166.415 26.2962C164.422 28.2763 163.426 30.6964 163.426 33.5565C163.426 36.4166 164.422 38.7928 166.415 40.8167C168.364 42.8408 170.746 43.8529 173.561 43.8529C176.376 43.8529 178.715 42.8408 180.708 40.8167C182.7 38.8366 183.697 36.4166 183.697 33.5565C183.697 30.6964 182.7 28.3203 180.708 26.2962C178.715 24.2722 176.376 23.2601 173.561 23.2601Z" fill="#19334A"/>
<path d="M195.481 23.2614C194.528 23.2614 193.749 22.9534 193.056 22.2933C192.406 21.5893 192.103 20.7973 192.103 19.8292C192.103 18.8612 192.406 18.0692 193.056 17.3652C193.749 16.7051 194.528 16.3971 195.481 16.3971H218.611C219.564 16.3971 220.343 16.7051 221.036 17.3652C221.686 18.0692 221.989 18.8612 221.989 19.8292C221.989 20.7973 221.686 21.5893 221.036 22.2933C220.343 22.9534 219.564 23.2614 218.611 23.2614H210.424V47.2864C210.424 48.2545 210.121 49.0464 209.471 49.7064C208.779 50.4106 207.999 50.7185 207.046 50.7185C206.093 50.7185 205.313 50.3666 204.664 49.7064C203.971 49.0464 203.668 48.2545 203.668 47.2864V23.2614H195.481Z" fill="#19334A"/>
<path d="M247.543 16.3971C250.358 16.3971 252.696 17.4092 254.69 19.4332C256.682 21.4133 257.677 23.8334 257.677 26.6935C257.677 28.8056 257.07 30.7416 255.901 32.5017C258.371 34.5698 259.627 37.1659 259.627 40.3781C259.627 43.2382 258.63 45.6144 256.638 47.6383C254.69 49.6624 252.308 50.6744 249.492 50.6744H232.124C231.171 50.6744 230.39 50.3226 229.741 49.6624C229.047 49.0024 228.744 48.2104 228.744 47.2424V19.8292C228.744 18.8612 229.092 18.0692 229.741 17.3652C230.39 16.7051 231.171 16.3971 232.124 16.3971H247.543ZM235.501 30.1256H247.543C248.495 30.1256 249.276 29.7736 249.925 29.1136C250.617 28.4536 250.92 27.6615 250.92 26.6935C250.92 25.7255 250.574 24.9334 249.925 24.2734C249.276 23.5694 248.495 23.2614 247.543 23.2614H235.501V30.1256ZM249.492 43.8542C250.445 43.8542 251.223 43.5023 251.875 42.8421C252.566 42.1822 252.87 41.3902 252.87 40.4221C252.87 39.4541 252.524 38.6621 251.875 38.0019C251.223 37.2979 250.445 36.9899 249.492 36.9899H235.501V43.8542H249.492Z" fill="#19334A"/>
<path d="M272.625 50.6744C271.67 50.6744 270.892 50.3666 270.198 49.7064C269.549 49.0024 269.245 48.2104 269.245 47.2424V19.8292C269.245 18.8612 269.549 18.0692 270.198 17.3652C270.892 16.7051 271.67 16.3971 272.625 16.3971C273.533 16.3971 274.356 16.7051 275.05 17.3652C275.699 18.0692 276.002 18.8612 276.002 19.8292V47.2864C276.002 48.2544 275.699 49.0464 275.05 49.7504C274.356 50.3666 273.533 50.6744 272.625 50.6744Z" fill="#19334A"/>
<path d="M285.138 23.2614C284.185 23.2614 283.407 22.9534 282.713 22.2934C282.064 21.5893 281.761 20.7973 281.761 19.8293C281.761 18.8612 282.064 18.0692 282.713 17.3652C283.407 16.7052 284.185 16.3971 285.138 16.3971H308.267C309.221 16.3971 310 16.7052 310.694 17.3652C311.343 18.0692 311.646 18.8612 311.646 19.8293C311.646 20.7973 311.343 21.5893 310.694 22.2934C310 22.9534 309.221 23.2614 308.267 23.2614H300.082V47.2864C300.082 48.2545 299.778 49.0465 299.129 49.7064C298.436 50.4106 297.657 50.7185 296.702 50.7185C295.75 50.7185 294.971 50.3666 294.32 49.7064C293.628 49.0465 293.325 48.2545 293.325 47.2864V23.2614H285.138Z" fill="#19334A"/>
<path d="M5.00443 36.5447C7.46387 36.5447 9.45762 34.5178 9.45762 32.0177C9.45762 29.5175 7.46387 27.4906 5.00443 27.4906C2.54502 27.4906 0.55127 29.5175 0.55127 32.0177C0.55127 34.5178 2.54502 36.5447 5.00443 36.5447Z" fill="#19334A"/>
<path d="M35.9083 54.9224C38.3676 54.9224 40.3614 52.8955 40.3614 50.3952C40.3614 47.8952 38.3676 45.8683 35.9083 45.8683C33.4487 45.8683 31.4549 47.8952 31.4549 50.3952C31.4549 52.8955 33.4487 54.9224 35.9083 54.9224Z" fill="#19334A"/>
<path d="M99.9059 28.6217C98.7926 27.5805 97.8129 27.4448 96.9224 27.5353C96.7442 27.5353 96.6106 27.4899 96.4326 27.4899H49.0952C51.1436 17.2136 60.139 9.47243 70.8266 9.47243C76.7049 9.47243 82.2713 11.7812 86.4574 15.9913C88.1496 17.7116 90.9105 17.8474 92.6473 16.2177C94.5175 14.4521 94.5621 11.5096 92.7809 9.69877C86.9027 3.72311 79.1096 0.463654 70.8266 0.463654C63.479 0.463654 56.6656 3.08932 51.3664 7.48053C48.9172 9.38189 47.0913 9.47243 43.2171 9.47243H35.7803C33.2864 9.47243 31.2825 11.5549 31.3272 14.1353C31.3716 16.5798 33.5092 18.4812 35.9139 18.4812H47.7148L43.2171 19.2961C42.6826 19.3866 42.1928 19.7488 42.0148 20.292C41.3913 21.9217 40.9458 23.642 40.5006 25.3622C40.0997 26.8561 37.8733 27.5353 34.6669 27.5353H18.5018C16.0526 27.5353 13.9596 29.4367 13.8705 31.9265C13.7815 34.4615 15.8299 36.5892 18.3237 36.5892H46.2453L41.6585 37.3588C40.8568 37.4946 40.367 38.2642 40.5452 39.0792C43.707 53.1129 56.0422 63.6609 70.8266 63.6609C87.4371 63.6609 101.064 50.3062 101.865 33.6015C101.91 31.7002 101.242 29.8894 99.9059 28.6217ZM70.8266 54.5616C60.0946 54.5616 51.1436 46.8204 49.0952 36.544H92.5583C90.4653 46.8204 81.5142 54.5616 70.8266 54.5616Z" fill="#19334A"/>
</svg>
