<svg width="1110" height="443" viewBox="0 0 1110 443" fill="none" xmlns="http://www.w3.org/2000/svg">
<path d="M20.0303 159.052C21.1817 140.167 29.0113 96.5308 51.1183 73.0687C78.7521 43.741 143.692 4.41532 202.413 26.4111C261.135 48.4068 305.349 77.7353 306.731 159.052C308.113 240.369 230.047 285.693 135.401 287.693M252.154 423C239.489 391.228 207.387 316.754 180.306 273.029C146.455 218.373 93.9507 145.72 76.6796 127.057M536.783 234.371C523.656 242.592 490.081 258.233 460.79 255.034C424.175 251.034 382.724 229.705 382.033 189.713C381.342 149.721 373.743 102.397 421.411 78.4013C469.08 54.4059 527.11 62.4044 545.763 115.061C560.685 157.186 534.94 161.94 520.202 159.051C490.541 157.274 415.164 155.052 395.159 155.052M623.829 247.034C630.277 227.705 643.587 183.18 645.245 159.718C646.903 136.256 648.239 89.9535 648.699 69.7352M802.067 243.035C805.981 222.817 811.462 176.381 802.067 152.386C790.322 122.392 758.543 22.4113 656.298 119.059M1077.71 167.05C1066.66 182.38 1028.53 213.574 964.415 215.707C884.277 218.373 842.136 113.727 918.82 60.4041C995.504 7.08107 1061.13 41.741 1082.55 115.727C1103.97 189.712 1073.57 276.362 1063.9 297.691C1054.23 319.02 1035.57 400.338 964.415 402.337C893.258 404.337 880.132 358.346 876.678 325.686" stroke="white" stroke-width="38.5593" stroke-linecap="round"/>
</svg>
