<svg width="137" height="55" viewBox="0 0 137 55" fill="none" xmlns="http://www.w3.org/2000/svg">
<path d="M3 19.9172C3.14116 17.6018 4.10108 12.252 6.81145 9.37545C10.1994 5.77983 18.1611 0.958432 25.3605 3.65515C32.5599 6.35186 37.9806 9.94759 38.15 19.9172C38.3194 29.8867 28.7484 35.4436 17.1447 35.6888M31.4588 52.2777C29.906 48.3824 25.9703 39.2517 22.6501 33.891C18.4999 27.19 12.0628 18.2827 9.9453 15.9946M66.3547 29.1514C64.7455 30.1593 60.6291 32.0769 57.0379 31.6847C52.5488 31.1944 47.4669 28.5794 47.3822 23.6763C47.2975 18.7731 46.3658 12.9711 52.21 10.0292C58.0543 7.08737 65.1689 8.06799 67.4558 14.5238C69.2853 19.6884 66.1288 20.2712 64.3219 19.9171C60.6854 19.6991 51.444 19.4267 48.9915 19.4267M77.0268 30.7039C77.8173 28.3341 79.4491 22.8753 79.6524 19.9988C79.8557 17.1223 80.0194 11.4456 80.0759 8.96676M98.879 30.2136C99.359 27.7348 100.031 22.0418 98.879 19.0999C97.4392 15.4226 93.543 3.16477 81.0076 15.014M132.674 20.8977C131.319 22.7773 126.643 26.6017 118.783 26.8632C108.958 27.1901 103.792 14.3602 113.193 7.82275C122.595 1.28526 130.641 5.53463 133.267 14.6054C135.892 23.6762 132.166 34.2995 130.98 36.9145C129.794 39.5295 127.507 49.4992 118.783 49.7444C110.059 49.9895 108.45 44.3509 108.027 40.3467" stroke="#19334A" stroke-width="5.08118" stroke-linecap="round"/>
</svg>
