<svg width="182" height="44" viewBox="0 0 182 44" fill="none" xmlns="http://www.w3.org/2000/svg">
<g clip-path="url(#clip0_40_1781)">
<path d="M62.5716 15.7013H58.3128L58.2983 21.5404H62.5571C64.3188 21.5404 65.5928 20.3876 65.5928 18.6246C65.5928 16.8616 64.3188 15.7013 62.5716 15.7013ZM55.1751 31.2219L55.197 12.8609L62.9939 12.8684C66.7212 12.8684 68.7887 15.5205 68.7887 18.6321C68.7887 21.7438 66.6775 24.3808 62.9793 24.3808L58.291 24.3732L58.2764 31.2294H55.1751V31.2219Z" fill="white"/>
<path d="M79.6432 15.4451C76.0615 15.4451 73.761 18.2705 73.761 22.0677C73.761 25.8349 76.0396 28.7054 79.6359 28.7054C83.2031 28.7054 85.5182 25.8499 85.5182 22.0828C85.5255 18.2856 83.2031 15.4527 79.6432 15.4451ZM79.6505 12.5821C84.9722 12.5897 88.7141 16.613 88.7141 22.0904C88.6995 27.5678 84.9503 31.5835 79.6287 31.576C74.307 31.5684 70.5651 27.5451 70.5651 22.0677C70.5796 16.5904 74.3288 12.5746 79.6505 12.5821Z" fill="white"/>
<path d="M91.7062 31.2671L91.7353 12.9061H94.8439L94.822 28.4342L102.641 28.4417V31.2746L91.7062 31.2671Z" fill="white"/>
<path d="M112.949 15.4904C109.367 15.4904 107.067 18.3157 107.067 22.113C107.067 25.8801 109.346 28.7506 112.942 28.7506C116.509 28.7506 118.824 25.8951 118.824 22.128C118.824 18.3308 116.516 15.4979 112.949 15.4904ZM112.949 12.6273C118.271 12.6424 122.013 16.6582 122.013 22.1356C121.998 27.613 118.249 31.6287 112.927 31.6212C107.606 31.6136 103.864 27.5904 103.864 22.113C103.878 16.6356 107.635 12.6198 112.949 12.6273Z" fill="white"/>
<path d="M137.381 31.3273L128.143 17.939L128.135 31.3123H125.019L125.041 12.9513H128.23L137.286 25.9856L137.294 12.9588H140.409L140.388 31.3273H137.381Z" fill="white"/>
<path d="M144.159 31.3349L144.18 12.9739H147.296L147.274 31.3349H144.159Z" fill="white"/>
<path d="M151.053 31.3499L151.075 12.9814L163.232 12.9965V15.8294L154.19 15.8219L154.183 20.576L163.036 20.591V23.4239L154.183 23.4088L154.169 28.502L163.21 28.5095V31.3499H151.053Z" fill="white"/>
<path d="M178.273 31.3801L173.308 24.1849L168.328 31.3725H164.594L171.262 21.9623L165.03 13.0041H168.758L173.322 19.7547L177.872 13.0191H181.629L175.39 21.9321L182 31.3801H178.273Z" fill="white"/>
<path opacity="0.3" d="M36.815 11.0377L36.8077 22.0226L27.613 16.5226L18.4257 11.0151L27.6349 5.5377L36.8295 0.0527649L36.815 11.0377Z" fill="white"/>
<path opacity="0.5" d="M18.4111 22L18.4038 32.9849L9.21647 27.4849L0.0291138 21.9774L9.23103 16.5L18.4257 11.0151L18.4111 22Z" fill="white"/>
<path d="M0.0441926 10.9926L0.0514726 0.00762939L9.23883 5.51516L18.4262 11.0152L9.23155 16.5001L0.0296326 21.9775L0.0441926 10.9926Z" fill="white"/>
<path opacity="0.3" d="M0.01456 32.9623L0.02912 21.9774L9.21648 27.4849L18.4038 32.985L9.2092 38.4699L0 43.9473L0.01456 32.9623Z" fill="white"/>
<path d="M27.6131 16.5226L18.4257 11.0151L18.4111 22L18.4039 32.9849L27.5912 38.5L36.7713 43.9925L36.7859 33.0075L36.8077 22.0226L27.6131 16.5226Z" fill="white"/>
</g>
<defs>
<clipPath id="clip0_40_1781">
<rect width="182" height="44" fill="white"/>
</clipPath>
</defs>
</svg>
