<svg width="195" height="52" viewBox="0 0 195 52" fill="none" xmlns="http://www.w3.org/2000/svg">
<g clip-path="url(#clip0_40_1760)">
<path fill-rule="evenodd" clip-rule="evenodd" d="M62.7504 32.4156L60.266 27.9195H56.6343V32.4156H54.495V18.9093H60.9389C61.7238 18.9003 62.5002 19.1251 63.1731 19.5478C63.8459 19.9704 64.398 20.5729 64.7689 21.3012C65.1399 22.0296 65.3038 22.8479 65.2606 23.6662C65.2175 24.4845 64.9587 25.2848 64.5101 25.9592C64.0443 26.6786 63.3887 27.2361 62.621 27.5688L65.2606 32.4156H62.7504ZM60.9302 21.2023H56.6343V25.6894H60.9389C61.2235 25.6894 61.4996 25.6265 61.7583 25.5096C62.0171 25.3927 62.25 25.2218 62.4398 25.006C62.7331 24.6913 62.9401 24.2956 63.0178 23.855C63.0954 23.4234 63.0523 22.9738 62.897 22.5601C62.7331 22.1555 62.4657 21.8048 62.112 21.553C61.7583 21.3012 61.3529 21.1664 60.9302 21.1664V21.2023ZM83.8417 18.9093L77.3806 32.4156H79.7787L83.833 23.9539L87.8788 32.4156H90.2769L83.8417 18.9093ZM111.032 18.9093H108.297L104.622 23.891L100.965 18.9093H98.2217L103.604 26.112V32.4156H105.744V26.0041L111.032 18.9093ZM121.996 18.9093H126.283C127.991 18.9183 129.621 19.6377 130.82 20.9056C132.028 22.1645 132.71 23.882 132.718 25.6624C132.71 27.4519 132.028 29.1604 130.82 30.4283C129.613 31.6962 127.982 32.4066 126.274 32.4156H121.987V18.9093H121.996ZM126.283 30.1226C127.422 30.1226 128.509 29.646 129.311 28.8007C130.113 27.9554 130.57 26.8134 130.57 25.6265C130.553 24.4395 130.104 23.2975 129.302 22.4612C128.5 21.625 127.413 21.1394 126.283 21.1304H124.118V30.1226H126.283ZM147.029 18.9093H144.89V32.4156H147.029V18.9093ZM169.923 26.7775C169.932 27.5238 169.803 28.2612 169.527 28.9446C169.259 29.628 168.854 30.2484 168.336 30.761C167.586 31.5523 166.628 32.0828 165.584 32.2987C164.541 32.5145 163.462 32.4066 162.479 31.9749C161.496 31.5523 160.659 30.8239 160.072 29.8977C159.486 28.9716 159.175 27.8835 159.175 26.7685V18.9093H161.314V26.7685C161.314 27.6677 161.651 28.5219 162.263 29.1514C162.867 29.7808 163.687 30.1405 164.541 30.1405C165.395 30.1405 166.214 29.7808 166.818 29.1514C167.422 28.5219 167.758 27.6587 167.758 26.7685V18.9093H169.915V26.7775H169.923ZM184.217 32.4156V24.3406L188.53 28.8457L192.826 24.3406V32.4156H195V18.9093L188.53 25.6624L182.087 18.9093V32.4156H184.217Z" fill="white"/>
<path d="M40.4068 19.1781V37.0147L21.3123 48.4691L2.21005 37.0147V14.1059L21.32 2.63556L35.9944 11.446L38.2122 10.1201L21.32 -0.0163574L0 12.772V38.3406L21.32 51.129L42.64 38.3406V17.8522L40.4068 19.1781Z" fill="white"/>
<path d="M15.9726 37.0306H12.7812V25.8958H23.4296C24.4342 25.8878 25.4001 25.4644 26.111 24.7136C26.8219 23.9707 27.216 22.9643 27.2238 21.9179C27.2315 21.3987 27.131 20.8875 26.9378 20.4082C26.7447 19.929 26.4587 19.4976 26.1033 19.1382C25.7555 18.7707 25.3383 18.4752 24.8823 18.2755C24.4264 18.0758 23.9319 17.972 23.4296 17.9799H12.7812V14.5932H23.4373C25.2996 14.6011 27.0924 15.3839 28.4061 16.7498C29.7274 18.1237 30.4693 19.9769 30.4847 21.9179C30.4925 23.4036 30.0597 24.8494 29.2406 26.0635C28.4833 27.2217 27.4169 28.1323 26.1728 28.6755C24.9364 29.0829 23.6537 29.2826 22.3632 29.2746H15.9726V37.0306Z" fill="white"/>
<path d="M30.4075 36.7511H26.6828L23.8082 31.5431C24.9442 31.4712 26.0646 31.2316 27.1388 30.8322L30.4075 36.7511Z" fill="white"/>
<path d="M38.1813 15.4718L40.3836 16.7418L42.5859 15.4718V12.7799L40.3836 11.454L38.1813 12.7799V15.4718Z" fill="white"/>
</g>
<defs>
<clipPath id="clip0_40_1760">
<rect width="195" height="52" fill="white"/>
</clipPath>
</defs>
</svg>
