<svg width="1920" height="245" viewBox="0 0 1920 245" fill="none" xmlns="http://www.w3.org/2000/svg">
<path d="M951.021 8.2615C963.133 9.79716 987.306 13.7255 998.698 17.4944C1012.48 22.0547 1033.89 31.0014 1023.77 37.7891C1019.87 40.4022 1000.4 41.5784 995.504 42.0062C990.935 42.4046 984.53 42.67 978.124 42.9355C971.713 43.2026 965.301 43.4684 960.728 43.8669C957.426 44.1541 953.916 44.513 951.312 46.3087C943.504 51.6916 947.889 66.4546 938.061 67.8622C928.403 69.2441 926.474 54.0493 916.868 52.6572C907.144 51.2482 903.295 73.0252 893.852 75.6713C886.88 77.6257 884.39 53.7026 872.912 54.274C861.434 54.8454 863.6 68.0446 856.587 68.3938C849.574 68.7429 846.369 57.1132 834.394 57.987C816.516 59.2895 786.804 64.6575 769.873 69.9218C755.365 74.4327 739.762 81.839 725.628 76.8716C719.139 74.5901 714.114 69.9355 707.631 67.6363C700.703 65.1804 687.93 74.1132 680.41 74.6277C673.819 75.08 668.46 73.4163 663.1 71.7528C657.742 70.0905 652.383 68.4268 645.792 68.8778C639.851 69.2857 632.796 70.3271 630.289 74.9962C629.252 76.9288 626.864 86.2724 625.642 88.1261C621.552 94.3238 613.251 83.3323 605.694 80.606C592.371 75.7998 577.127 77.4838 562.711 79.2494C553.005 80.4388 542.414 82.022 535.9 88.3764C531.716 92.4575 527.153 98.9444 521.401 96.8478C517.661 95.484 516.499 90.9149 512.626 89.8501C507.437 88.421 503.616 94.1367 502.11 98.6745C499.529 106.456 496.945 114.239 494.362 122.021C493.222 125.456 490.899 129.666 486.767 129.455C482.891 129.257 481.163 125.304 480.337 122.054C478.037 112.999 481.954 94.4648 473.432 94.889C464.909 95.3133 464.365 109.441 455.32 109.474C444.372 109.513 451.76 83.3176 443.412 83.7332C435.064 84.1487 444.393 103.431 433.958 103.951C423.523 104.47 419.166 87.4927 404.627 82.0742C401.731 80.9955 374.905 78.6037 372.966 76.4694C366.717 69.589 388.432 57.0965 396.691 51.7913C411.355 42.3679 429.119 32.626 446.518 36.9355C456.24 39.3418 464.135 45.9187 474.108 47.4541C485.299 49.1758 495.933 44.3118 506.53 39.4495C517.48 34.4256 528.389 29.4023 539.832 31.6508C544.62 32.5912 548.963 34.7793 553.755 35.7062C563.154 37.5238 572.333 34.3582 581.611 31.1863C589.239 28.5797 596.935 25.9686 604.879 26.1218C613.621 26.29 621.732 29.8111 630.355 30.9718C651.002 33.7486 671.016 22.8814 691.913 21.3485C706.675 20.2639 721.348 23.8428 735.888 27.4283C754.422 31.9991 772.741 36.5806 790.752 31.5255C803.24 28.0216 814.22 20.0592 827.281 19.2889C838.091 18.6519 848.282 23.1 858.974 24.4194C874.88 26.3843 890.361 21.4178 905.875 16.4483C920.76 11.681 935.674 6.91221 951.021 8.2615Z" fill="white"/>
<mask id="mask0_7_207" style="mask-type:luminance" maskUnits="userSpaceOnUse" x="371" y="8" width="656" height="122">
<path d="M951.02 8.26052C963.133 9.79618 987.305 13.7245 998.698 17.4935C1012.48 22.0537 1033.89 31.0004 1023.77 37.7881C1019.87 40.4012 1000.4 41.5774 995.503 42.0052C990.934 42.4036 984.529 42.669 978.123 42.9345C971.712 43.2016 965.301 43.4674 960.727 43.8659C957.425 44.1531 953.916 44.5121 951.312 46.3078C943.504 51.6906 947.888 66.4536 938.061 67.8613C928.403 69.2432 926.473 54.0483 916.867 52.6562C907.144 51.2472 903.294 73.0242 893.852 75.6703C886.88 77.6247 884.39 53.7016 872.912 54.273C861.434 54.8444 863.6 68.0437 856.587 68.3928C849.574 68.7419 846.369 57.1122 834.394 57.986C816.516 59.2885 786.803 64.6565 769.873 69.9208C755.364 74.4317 739.761 81.838 725.627 76.8706C719.138 74.5891 714.113 69.9345 707.631 67.6353C700.702 65.1794 687.929 74.1122 680.409 74.6267C673.818 75.079 668.46 73.4154 663.1 71.7518C657.741 70.0895 652.383 68.4259 645.792 68.8768C639.85 69.2847 632.795 70.3261 630.288 74.9952C629.252 76.9278 626.864 86.2714 625.641 88.1252C621.552 94.3228 613.251 83.3313 605.694 80.605C592.371 75.7988 577.127 77.4828 562.71 79.2485C553.004 80.4379 542.413 82.021 535.9 88.3754C531.716 92.4565 527.152 98.9434 521.4 96.8468C517.661 95.4831 516.498 90.9139 512.626 89.8491C507.436 88.42 503.615 94.1357 502.109 98.6736C499.528 106.456 496.944 114.238 494.362 122.02C493.221 125.455 490.898 129.665 486.766 129.454C482.89 129.256 481.163 125.303 480.337 122.053C478.036 112.998 481.953 94.4638 473.432 94.8881C464.909 95.3123 464.364 109.44 455.319 109.473C444.372 109.512 451.76 83.3166 443.412 83.7322C435.064 84.1477 444.392 103.43 433.957 103.95C423.522 104.469 419.166 87.4917 404.626 82.0732C401.73 80.9946 374.905 78.6027 372.966 76.4684C366.716 69.588 388.432 57.0955 396.69 51.7903C411.354 42.3669 429.118 32.625 446.518 36.9345C456.24 39.3408 464.135 45.9177 474.107 47.4531C485.298 49.1748 495.932 44.3108 506.529 39.4486C517.479 34.4246 528.389 29.4013 539.831 31.6498C544.62 32.5902 548.962 34.7784 553.755 35.7052C563.154 37.5228 572.332 34.3572 581.61 31.1853C589.239 28.5788 596.934 25.9676 604.878 26.1208C613.62 26.289 621.732 29.8101 630.354 30.9708C651.002 33.7476 671.016 22.8805 691.913 21.3476C706.674 20.2629 721.348 23.8418 735.887 27.4273C754.422 31.9981 772.74 36.5796 790.752 31.5245C803.24 28.0206 814.219 20.0582 827.28 19.2879C838.091 18.6509 848.282 23.0991 858.973 24.4185C874.879 26.3834 890.361 21.4168 905.875 16.4473C920.76 11.68 935.673 6.91124 951.02 8.26052Z" fill="white"/>
</mask>
<g mask="url(#mask0_7_207)">
<path d="M486.536 122.696C487.378 122.029 488.232 121.367 488.834 120.422C495.219 110.417 490.197 96.8936 501.924 88.8939C504.338 87.2479 506.835 86.3654 509.329 86.2412C512.22 86.0973 515.104 86.9723 517.849 88.8541C519.597 90.0527 521.79 93.1101 523.924 93.6433C524.166 93.7034 524.411 93.7246 524.659 93.7122C527.088 93.5913 529.829 90.2776 531.463 88.8132C536.501 84.2971 540.909 80.4291 547.792 78.092C555.339 75.5283 563.507 73.9376 571.65 73.5322C574.141 73.4082 576.626 73.3939 579.093 73.4981C589.484 73.9353 599.858 76.2624 609.34 79.8113C611.402 80.5844 614.487 82.6429 616.921 82.5231C617.338 82.5023 617.735 82.4171 618.107 82.2505C620.846 81.0208 622.814 75.0475 624.62 72.8537C629.115 67.3888 634.547 65.4443 640.418 65.152C649.874 64.6813 660.472 68.4937 670.149 68.7756C670.848 68.7955 671.543 68.7877 672.237 68.7531C681.193 68.3073 689.609 63.5816 698.474 62.4301C699.355 62.3155 700.207 62.2384 701.034 62.1972C708.74 61.8136 714.239 64.5355 720.401 68.8692C726.247 72.9823 732.913 74.2698 739.842 73.9248C753.119 73.2652 767.373 66.6149 778.747 62.3642C791.621 57.5515 805.756 53.0311 819.964 52.3238C824.588 52.0936 829.219 52.2662 833.82 52.9663C838.05 53.6075 842.307 54.7853 846.124 56.4575C848.61 57.546 852.863 61.2911 855.438 61.4139C855.597 61.422 855.753 61.4223 855.91 61.4145C859.193 61.251 861.815 57.7897 864.225 56.1906C866.79 54.4876 869.602 53.2382 872.802 53.0789C873.104 53.0639 873.408 53.0581 873.716 53.0628C879.677 53.1572 883.505 56.5337 886.128 60.7766C887.536 63.0561 889.985 71.6582 894.106 71.4531C894.43 71.437 894.764 71.3656 895.109 71.2336C899.287 69.6292 899.954 59.5863 901.608 56.2159C904.029 51.2894 909.085 47.4306 915.33 47.1197C915.898 47.0915 916.477 47.0921 917.065 47.1255C926.743 47.6596 928.687 55.3779 933.968 60.6925C935.105 61.8374 936.032 62.2865 936.812 62.2477C938.422 62.1675 939.408 60.0092 940.343 57.5917C941.601 54.3345 941.6 50.694 943.295 47.5619C946.866 40.9695 954.929 40.6896 962.278 40.2971C971.152 39.8219 980.023 38.869 988.899 38.3057C997.597 37.7525 1006.36 37.3936 1015.02 36.4033C1016.59 36.2236 1021.39 36.1741 1022.57 35.0396C1024.5 33.1705 1021.63 28.7092 1019.51 26.381C1017.34 25.079 1014.82 23.8163 1012.16 22.6322C1012.92 24.8896 1012.75 27.0699 1008.48 28.9082C1003.41 31.0938 995.403 32.1654 987.944 32.5367C983.488 32.7585 979.227 32.7303 975.911 32.5403C972.706 32.3568 969.273 32.3314 965.843 32.5022C955.804 33.0019 945.812 35.1908 941.767 40.0753C939.375 41.9592 938.574 51.2211 935.042 52.0791C934.856 52.1231 934.672 52.1496 934.488 52.1588C930.084 52.378 926.204 42.6455 913.684 43.2688C900.64 43.9182 899.109 55.2136 893.667 56.0412C893.534 56.0612 893.401 56.0745 893.267 56.0811C888.493 56.3188 883.396 48.1101 876.251 47.8784C875.885 47.8672 875.516 47.8709 875.147 47.8893C872.169 48.0375 869.114 49.1134 866.092 50.189C863.068 51.2634 860.075 52.3375 857.218 52.4797C856.183 52.5312 855.167 52.4604 854.173 52.2241C848.05 50.7668 842.444 47.966 836.166 46.7046C827.293 44.9222 818.286 44.4735 809.288 44.9214C796.521 45.557 783.771 48.0006 771.479 51.0048C761.27 53.4995 751.177 56.3475 740.991 58.9065C737.985 59.6608 735.535 60.0471 733.388 60.1541C726.63 60.4904 722.853 58.0605 714.112 55.6308C710.58 54.6479 707.282 54.3515 704.115 54.5092C695.413 54.9424 687.701 58.8133 678.835 61.3519C676.879 61.9125 675.117 62.2018 673.489 62.2828C664.73 62.7189 659.931 57.0946 650.785 54.7984C648.603 54.2503 646.518 54.087 644.494 54.1878C635.87 54.6171 628.361 59.8556 619.272 60.7219C618.418 60.8032 617.562 60.8645 616.705 60.9071C606.285 61.4258 595.732 59.2465 585.419 58.5771C580.684 58.2695 575.967 58.1772 571.286 58.4102C564.275 58.7593 557.348 59.8384 550.586 62.0146C540.801 65.1623 534.182 78.3291 524.33 78.8182C523.286 78.8702 522.204 78.7798 521.082 78.5206C510.649 76.1097 502.171 66.4032 492.043 66.9074C490.918 66.9634 489.771 67.146 488.599 67.478C482.818 69.1195 475.553 79.906 469.285 80.2167C469.145 80.2237 469.004 80.2254 468.864 80.2217C462.791 80.0567 459.905 68.6101 453.812 68.3954C439.666 61.031 416.069 70.2837 406.288 56.4262C404.846 54.8346 404.771 54.4244 404.656 52.5772C404.567 50.0599 406.73 46.9885 408.941 44.4982C408.4 44.7868 407.864 45.0778 407.33 45.374C404.03 47.6649 400.887 50.1216 397.92 52.7057C393.592 56.4721 386.017 62.1277 384.249 67.3475C383.413 69.8161 384.721 70.2476 388.167 71.3349C394.632 73.3747 401.637 73.8723 408.076 76.0829C414.094 78.1476 418.606 81.2858 422.229 85.8727C423.679 87.7095 425.214 91.5246 427.444 92.7085C428.254 93.1394 428.858 93.3123 429.316 93.2895C431.079 93.2017 430.636 90.1987 431.336 87.8663C432.764 83.1121 436.36 79.1751 441.982 78.8952C442.676 78.8607 443.401 78.882 444.156 78.9646C452.364 79.8563 454.459 86.7513 456.022 92.5941C456.282 93.5651 457.094 98.4414 458.387 98.5986C458.395 98.5996 458.403 98.6005 458.41 98.6001C459.269 98.5574 464.23 91.3004 465.709 90.5046C467.369 89.6103 469.041 89.1692 470.669 89.0882C476.623 88.7918 481.994 93.3024 484.078 98.1047C487.323 105.579 483.764 112.936 485.274 120.358C485.365 120.799 485.945 121.702 486.536 122.696ZM892.223 58.6776C892.254 58.676 892.287 58.6757 892.32 58.6781C892.038 59.2755 891.826 59.481 891.705 59.487C891.584 59.493 891.553 59.2984 891.633 59.0981C891.712 58.8993 891.902 58.6936 892.223 58.6776Z" fill="#D6DEF1"/>
<path d="M487.344 129.455C491.116 129.267 493.276 125.292 494.362 122.02C496.944 114.238 499.529 106.456 502.11 98.6736C503.426 94.7072 506.51 89.8425 510.731 89.6324C511.34 89.6021 511.971 89.6681 512.626 89.8491C516.498 90.9139 517.661 95.4831 521.4 96.8468C522.278 97.1676 523.129 97.2868 523.956 97.2456C528.537 97.0175 532.355 91.8333 535.9 88.3754C542.414 82.021 553.004 80.4379 562.711 79.2485C568.328 78.5603 574.073 77.8845 579.779 77.6004C588.717 77.1555 597.562 77.6724 605.694 80.605C611.72 82.7787 618.22 90.2087 622.679 89.9868C623.812 89.9304 624.812 89.38 625.641 88.1252C626.864 86.2714 629.252 76.9278 630.288 74.9952C632.796 70.3261 639.85 69.2847 645.792 68.8768C645.994 68.8641 646.194 68.8515 646.392 68.8416C652.709 68.5272 657.904 70.1401 663.1 71.7518C668.295 73.3648 673.491 74.9765 679.809 74.662C680.008 74.6521 680.208 74.6408 680.409 74.6267C686.845 74.1862 697.127 67.5815 704.301 67.2244C705.51 67.1642 706.632 67.2819 707.631 67.6353C714.113 69.9345 719.138 74.5891 725.627 76.8706C729.561 78.2528 733.603 78.6763 737.707 78.472C748.356 77.9419 759.4 73.1775 769.873 69.9208C786.804 64.6565 816.516 59.2885 834.394 57.986C834.533 57.9764 834.67 57.967 834.808 57.9601C846.441 57.381 849.656 68.7378 856.587 68.3928C863.6 68.0437 861.434 54.8444 872.912 54.273C884.021 53.72 886.709 76.1034 893.19 75.7807C893.406 75.77 893.628 75.7336 893.852 75.6703C902.899 73.1347 906.81 53.0394 915.674 52.5981C916.062 52.5788 916.46 52.5977 916.867 52.6562C926.199 54.0086 928.287 68.3852 937.251 67.939C937.515 67.9258 937.785 67.9004 938.061 67.8613C947.888 66.4536 943.504 51.6906 951.312 46.3078C953.916 44.5121 957.425 44.1531 960.727 43.8659C963.076 43.6609 965.907 43.492 968.975 43.3392C971.883 43.1945 975.004 43.0644 978.123 42.9345C981.243 42.8059 984.362 42.676 987.27 42.5313C990.331 42.3788 993.16 42.21 995.503 42.0053C1000.4 41.5774 1019.87 40.4012 1023.77 37.7881C1025.67 36.509 1026.46 35.1521 1026.39 33.7632C1026.27 31.325 1023.5 28.7848 1019.51 26.3804C1021.63 28.7086 1024.5 33.1699 1022.57 35.0389C1021.39 36.1735 1016.59 36.2229 1015.02 36.4026C1006.36 37.393 997.597 37.7519 988.899 38.3051C980.023 38.8684 971.152 39.8213 962.278 40.2964C954.93 40.689 946.866 40.9689 943.295 47.5613C941.6 50.6934 941.601 54.3338 940.343 57.5911C939.408 60.0086 938.422 62.1669 936.812 62.2471C936.032 62.2859 935.105 61.8368 933.968 60.6919C928.687 55.3773 926.744 47.659 917.065 47.1249C916.477 47.0914 915.898 47.0908 915.33 47.1191C909.085 47.43 904.03 51.2888 901.608 56.2153C899.954 59.5857 899.287 69.6286 895.109 71.233C894.764 71.365 894.43 71.4364 894.106 71.4525C889.985 71.6576 887.536 63.0554 886.128 60.7759C883.506 56.5331 879.677 53.1566 873.717 53.0622C873.408 53.0575 873.104 53.0633 872.803 53.0783C869.603 53.2376 866.79 54.487 864.225 56.19C861.815 57.7891 859.194 61.2504 855.91 61.4139C855.753 61.4217 855.597 61.4214 855.438 61.4133C852.864 61.2905 848.61 57.5453 846.124 56.4569C842.307 54.7846 838.05 53.6069 833.82 52.9657C829.219 52.2656 824.589 52.093 819.964 52.3232C805.756 53.0305 791.621 57.5508 778.747 62.3635C767.373 66.6143 753.119 73.2646 739.842 73.9242C732.913 74.2692 726.247 72.9816 720.401 68.8685C714.24 64.5349 708.74 61.813 701.035 62.1966C700.207 62.2377 699.356 62.3149 698.474 62.4295C689.609 63.581 681.193 68.3066 672.237 68.7525C671.543 68.787 670.848 68.7949 670.149 68.775C660.472 68.4931 649.874 64.6807 640.418 65.1514C634.547 65.4437 629.115 67.3882 624.62 72.8531C622.814 75.0469 620.846 81.0201 618.107 82.2499C617.736 82.4165 617.338 82.5017 616.921 82.5225C614.487 82.6423 611.403 80.5838 609.34 79.8107C599.858 76.2618 589.484 73.9347 579.093 73.4975C576.626 73.3933 574.141 73.4076 571.65 73.5316C563.507 73.937 555.339 75.5277 547.792 78.0914C540.909 80.4285 536.501 84.2965 531.463 88.8126C529.829 90.277 527.088 93.5907 524.659 93.7116C524.411 93.7239 524.166 93.7028 523.925 93.6427C521.79 93.1095 519.597 90.0521 517.849 88.8535C515.104 86.9717 512.22 86.0967 509.329 86.2406C506.835 86.3647 504.338 87.2473 501.925 88.8933C490.197 96.893 495.219 110.416 488.834 120.422C488.232 121.366 487.378 122.028 486.536 122.695C485.945 121.702 485.365 120.799 485.274 120.357C483.764 112.935 487.323 105.579 484.078 98.1041C481.994 93.3017 476.623 88.7912 470.669 89.0876C469.042 89.1686 467.369 89.6096 465.709 90.504C464.23 91.2998 459.269 98.5568 458.411 98.5995C458.403 98.5999 458.395 98.5989 458.387 98.598C457.094 98.4408 456.282 93.5645 456.022 92.5935C454.459 86.7507 452.364 79.8557 444.156 78.964C443.401 78.8814 442.676 78.8601 441.982 78.8946C436.36 79.1745 432.764 83.1115 431.336 87.8657C430.636 90.1981 431.079 93.2011 429.316 93.2889C428.858 93.3116 428.254 93.1388 427.444 92.7079C425.214 91.5239 423.679 87.7089 422.229 85.8721C418.606 81.2852 414.094 78.147 408.076 76.0823C401.637 73.8717 394.632 73.3741 388.167 71.3343C384.721 70.2469 383.413 69.8154 384.249 67.3469C386.018 62.1271 393.593 56.4715 397.92 52.705C400.887 50.121 404.031 47.6643 407.33 45.3734C403.646 47.4098 400.084 49.6096 396.69 51.7904C389.376 56.4892 371.503 66.8266 371.857 73.9098C371.902 74.8233 372.252 75.683 372.966 76.4685C374.905 78.6027 401.73 80.9946 404.626 82.0732C419.166 87.4917 423.522 104.469 433.957 103.95C444.392 103.43 435.064 84.1478 443.412 83.7322C451.76 83.3166 444.372 109.512 455.319 109.473C455.451 109.472 455.58 109.468 455.709 109.462C464.381 109.03 465.033 95.3062 473.432 94.8881C477.943 94.6635 478.968 99.7495 479.276 105.931C479.436 109.147 479.401 112.659 479.562 115.873C479.676 118.153 479.888 120.284 480.337 122.053C481.163 125.303 482.891 129.256 486.767 129.455C486.963 129.465 487.156 129.464 487.344 129.455Z" fill="#9DB5E0"/>
<path d="M926.782 33.2403C928.2 33.1697 928.105 31.2801 926.688 31.3507C925.269 31.4213 925.366 33.3108 926.782 33.2403Z" fill="#D6DEF1"/>
<path d="M924.199 23.3889C925.461 23.3261 925.376 21.6482 924.116 21.7109C922.856 21.7737 922.941 23.4515 924.199 23.3889Z" fill="#D6DEF1"/>
<path d="M839.982 44.1773C841.227 44.1153 841.143 42.4575 839.9 42.5194C838.655 42.5813 838.739 44.2392 839.982 44.1773Z" fill="#D6DEF1"/>
<path d="M822.59 41.5016C823.235 41.4695 823.192 40.6092 822.547 40.6414C821.901 40.6735 821.944 41.5338 822.59 41.5016Z" fill="#D6DEF1"/>
<path d="M706.438 40.6702C707.936 40.5956 707.833 38.6022 706.339 38.6766C704.841 38.7512 704.943 40.7446 706.438 40.6702Z" fill="#D6DEF1"/>
<path d="M676.819 34.0432C677.608 34.004 677.554 32.9546 676.767 32.9938C675.979 33.0331 676.032 34.0824 676.819 34.0432Z" fill="#D6DEF1"/>
<path d="M532.206 39.3305C532.82 39.2999 532.778 38.4824 532.165 38.5129C531.55 38.5435 531.591 39.3611 532.206 39.3305Z" fill="#D6DEF1"/>
<path d="M540.754 43.0301C541.435 42.9962 542.098 42.5586 541.817 41.7663L541.745 41.5616C541.589 41.1195 541.117 40.9187 540.655 40.9417C540.194 40.9647 539.742 41.2114 539.63 41.6669L539.578 41.8778C539.378 42.6967 540.076 43.0638 540.754 43.0301Z" fill="#D6DEF1"/>
<path d="M428.533 47.5109C429.636 47.456 429.562 45.9859 428.46 46.0407C427.356 46.0956 427.431 47.5657 428.533 47.5109Z" fill="#D6DEF1"/>
<path d="M986.941 22.9658C987.54 22.936 987.5 22.1383 986.901 22.1681C986.303 22.1979 986.344 22.9955 986.941 22.9658Z" fill="#D6DEF1"/>
<path d="M998.056 25.6101C999.412 25.5427 999.319 23.7384 997.966 23.8057C996.611 23.8732 996.702 25.6775 998.056 25.6101Z" fill="#D6DEF1"/>
<path d="M748.661 48.306C749.953 48.2417 749.865 46.5213 748.575 46.5855C747.282 46.6499 747.369 48.3703 748.661 48.306Z" fill="#D6DEF1"/>
<path d="M764.218 45.6406C765.368 45.5833 765.29 44.052 764.141 44.1091C762.99 44.1665 763.069 45.6977 764.218 45.6406Z" fill="#D6DEF1"/>
<path d="M877.54 31.6807C878.329 31.6415 878.275 30.5922 877.488 30.6314C876.7 30.6706 876.753 31.7199 877.54 31.6807Z" fill="#D6DEF1"/>
<path d="M613.599 45.8639C614.61 45.8136 614.541 44.4713 613.532 44.5215C612.524 44.5717 612.592 45.914 613.599 45.8639Z" fill="#D6DEF1"/>
<path d="M588.501 45.9846C589.162 45.9517 589.117 45.0702 588.457 45.103C587.795 45.136 587.84 46.0175 588.501 45.9846Z" fill="#D6DEF1"/>
<path d="M471.095 61.9765C472.166 61.9232 472.093 60.497 471.024 60.5502C469.952 60.6036 470.024 62.0298 471.095 61.9765Z" fill="#D6DEF1"/>
<path d="M685.496 40.2337C687.465 40.1357 687.332 37.5125 685.365 37.6103C683.394 37.7085 683.528 40.3317 685.496 40.2337Z" fill="#D6DEF1"/>
<path d="M937.935 26.1256C940.282 26.0087 940.123 22.8807 937.779 22.9974C935.43 23.1143 935.59 26.2423 937.935 26.1256Z" fill="#AABDE3"/>
<path d="M831.948 40.3597C832.924 40.3111 832.858 39.0101 831.884 39.0586C830.906 39.1073 830.972 40.4083 831.948 40.3597Z" fill="#AABDE3"/>
<path d="M695.649 34.074C697.888 33.9625 697.735 30.9824 695.5 31.0937C693.263 31.2051 693.416 34.1852 695.649 34.074Z" fill="#AABDE3"/>
<path d="M419.689 51.9714C421.884 51.8622 421.735 48.9393 419.544 49.0484C417.348 49.1577 417.498 52.0805 419.689 51.9714Z" fill="#AABDE3"/>
<path d="M432.504 53.723C433.797 53.6587 433.708 51.9369 432.418 52.0011C431.125 52.0655 431.213 53.7873 432.504 53.723Z" fill="#AABDE3"/>
<path d="M896.689 38.0862C897.744 38.0337 897.672 36.6289 896.619 36.6813C895.563 36.7338 895.635 38.1387 896.689 38.0862Z" fill="#AABDE3"/>
<path d="M601.653 37.0282C603.325 36.945 603.211 34.7198 601.543 34.8029C599.873 34.886 599.985 37.1112 601.653 37.0282Z" fill="#AABDE3"/>
<path d="M521.621 68.3413C522.551 68.295 522.488 67.058 521.56 67.1042C520.63 67.1505 520.693 68.3875 521.621 68.3413Z" fill="#AABDE3"/>
<path d="M512.964 62.5114C513.925 62.4636 513.859 61.1826 512.9 61.2304C511.937 61.2783 512.002 62.5593 512.964 62.5114Z" fill="#AABDE3"/>
</g>
<path d="M1010.02 4.73647C1000.63 6.19176 981.85 9.95878 972.933 13.6495C962.144 18.1152 945.324 26.913 952.897 33.759C955.814 36.3946 970.791 37.696 974.55 38.1551C978.06 38.5827 982.991 38.8895 987.922 39.1963C992.857 39.5047 997.793 39.8119 1001.31 40.2397C1003.84 40.548 1006.54 40.9293 1008.48 42.74C1014.32 48.1676 1010.43 62.8859 1017.96 64.3558C1025.36 65.799 1027.37 50.6333 1034.83 49.3052C1042.38 47.9609 1044.59 69.739 1051.79 72.4435C1057.09 74.441 1059.84 50.5604 1068.67 51.2057C1077.51 51.851 1075.38 65.0217 1080.78 65.416C1086.17 65.8103 1089.05 54.2142 1098.25 55.1649C1112 56.5821 1134.73 62.1371 1147.6 67.5056C1158.64 72.1058 1170.41 79.6053 1181.49 74.7352C1186.57 72.4984 1190.61 67.8815 1195.69 65.6269C1201.11 63.2188 1210.66 72.2247 1216.44 72.7875C1221.51 73.2821 1225.7 71.6551 1229.89 70.0282C1234.08 68.4025 1238.27 66.7755 1243.34 67.2688C1247.91 67.7148 1253.31 68.8009 1255.08 73.4812C1255.82 75.4184 1257.33 84.7672 1258.21 86.6269C1261.15 92.8443 1267.93 81.9188 1273.86 79.2445C1284.3 74.5302 1296 76.3114 1307.06 78.1687C1314.5 79.4199 1322.61 81.0701 1327.42 87.4598C1330.5 91.5636 1333.8 98.073 1338.31 96.0161C1341.24 94.6781 1342.29 90.1215 1345.32 89.083C1349.37 87.6893 1352.12 93.4235 1353.12 97.9661C1354.84 105.756 1356.57 113.547 1358.29 121.337C1359.05 124.776 1360.7 128.997 1363.89 128.813C1366.89 128.64 1368.36 124.702 1369.11 121.461C1371.19 112.431 1368.81 93.8919 1375.37 94.371C1381.93 94.8502 1381.86 108.965 1388.84 109.058C1397.28 109.168 1392.49 82.9531 1398.91 83.4225C1405.33 83.8918 1397.47 103.093 1405.5 103.679C1413.53 104.266 1417.48 87.3353 1428.88 82.0173C1431.15 80.9586 1451.92 78.7436 1453.49 76.6243C1458.55 69.792 1442.23 57.1722 1436.05 51.8192C1425.06 42.3109 1411.7 32.4643 1398.13 36.6561C1390.55 38.9966 1384.23 45.515 1376.49 46.9839C1367.8 48.631 1359.77 43.7032 1351.76 38.7775C1343.49 33.6879 1335.25 28.5993 1326.35 30.771C1322.62 31.6793 1319.2 33.8368 1315.47 34.7315C1308.16 36.4861 1301.19 33.2643 1294.14 30.0356C1288.35 27.3824 1282.5 24.7242 1276.37 24.8256C1269.62 24.9368 1263.24 28.4013 1256.55 29.5048C1240.53 32.1444 1225.47 21.1592 1209.41 19.4922C1198.06 18.3129 1186.62 21.7925 1175.28 25.2796C1160.83 29.725 1146.54 34.1825 1132.83 29.016C1123.32 25.4348 1115.12 17.4098 1105.08 16.5555C1096.76 15.849 1088.75 20.2261 1080.46 21.4746C1068.12 23.334 1056.35 18.2723 1044.56 13.2075C1033.24 8.34874 1021.91 3.48836 1010.02 4.73647Z" fill="white"/>
<mask id="mask1_7_207" style="mask-type:luminance" maskUnits="userSpaceOnUse" x="950" y="4" width="505" height="125">
<path d="M1010.02 4.73549C1000.63 6.19079 981.85 9.9578 972.934 13.6486C962.145 18.1143 945.325 26.912 952.898 33.758C955.815 36.3936 970.791 37.695 974.55 38.1541C978.06 38.5817 982.991 38.8885 987.923 39.1953C992.858 39.5037 997.794 39.8109 1001.31 40.2387C1003.84 40.547 1006.54 40.9284 1008.48 42.739C1014.32 48.1667 1010.43 62.8849 1017.96 64.3549C1025.36 65.798 1027.37 50.6324 1034.83 49.3042C1042.38 47.96 1044.59 69.738 1051.79 72.4425C1057.1 74.4401 1059.84 50.5594 1068.68 51.2047C1077.51 51.8501 1075.38 65.0208 1080.78 65.415C1086.17 65.8093 1089.05 54.2133 1098.25 55.1639C1112 56.5811 1134.73 62.1361 1147.6 67.5046C1158.64 72.1049 1170.42 79.6044 1181.49 74.7342C1186.57 72.4974 1190.61 67.8805 1195.69 65.626C1201.12 63.2178 1210.66 72.2237 1216.44 72.7865C1221.51 73.2811 1225.7 71.6541 1229.89 70.0272C1234.08 68.4015 1238.27 66.7745 1243.34 67.2678C1247.91 67.7139 1253.31 68.7999 1255.08 73.4802C1255.82 75.4174 1257.33 84.7663 1258.21 86.6259C1261.15 92.8433 1267.94 81.9178 1273.86 79.2436C1284.3 74.5292 1296 76.3104 1307.06 78.1677C1314.5 79.4189 1322.61 81.0691 1327.42 87.4588C1330.5 91.5626 1333.8 98.072 1338.31 96.0151C1341.24 94.6771 1342.29 90.1205 1345.32 89.0821C1349.37 87.6883 1352.12 93.4225 1353.12 97.9651C1354.84 105.755 1356.57 113.546 1358.29 121.336C1359.05 124.775 1360.7 128.996 1363.89 128.812C1366.89 128.639 1368.36 124.701 1369.11 121.46C1371.19 112.43 1368.81 93.891 1375.37 94.3701C1381.93 94.8493 1381.86 108.964 1388.84 109.057C1397.28 109.167 1392.49 82.9521 1398.91 83.4215C1405.33 83.8908 1397.47 103.092 1405.5 103.678C1413.53 104.265 1417.48 87.3344 1428.88 82.0163C1431.15 80.9576 1451.92 78.7426 1453.49 76.6233C1458.55 69.7911 1442.23 57.1712 1436.05 51.8183C1425.06 42.31 1411.7 32.4633 1398.13 36.6551C1390.55 38.9956 1384.23 45.514 1376.49 46.9829C1367.8 48.6301 1359.77 43.7023 1351.76 38.7765C1343.49 33.687 1335.25 28.5983 1326.35 30.7701C1322.62 31.6783 1319.2 33.8359 1315.47 34.7305C1308.16 36.4851 1301.19 33.2633 1294.14 30.0347C1288.35 27.3815 1282.5 24.7232 1276.37 24.8246C1269.62 24.9359 1263.24 28.4003 1256.55 29.5038C1240.53 32.1434 1225.47 21.1582 1209.41 19.4913C1198.06 18.3119 1186.62 21.7915 1175.28 25.2787C1160.83 29.724 1146.54 34.1815 1132.83 29.015C1123.32 25.4338 1115.12 17.4089 1105.08 16.5545C1096.76 15.848 1088.75 20.2251 1080.46 21.4736C1068.12 23.333 1056.35 18.2713 1044.56 13.2065C1033.24 8.34776 1021.91 3.48738 1010.02 4.73549Z" fill="white"/>
</mask>
<g mask="url(#mask1_7_207)">
<path d="M1053.63 55.4787C1053.6 55.4769 1053.58 55.4764 1053.55 55.4786C1053.75 56.0772 1053.91 56.2838 1054 56.2906C1054.09 56.2974 1054.12 56.1032 1054.07 55.9026C1054.02 55.7035 1053.88 55.4967 1053.63 55.4787Z" fill="#D6DEF1"/>
<path fill-rule="evenodd" clip-rule="evenodd" d="M1364.3 122.062L1364.25 122.006C1363.64 121.353 1363.03 120.697 1362.61 119.776C1358.03 109.74 1362.37 96.2642 1353.6 88.1971C1351.8 86.5372 1349.9 85.6394 1347.98 85.4992C1345.76 85.3367 1343.5 86.192 1341.32 88.0539C1339.93 89.2399 1338.14 92.2796 1336.47 92.7984C1336.28 92.8568 1336.09 92.8764 1335.9 92.8624C1334.03 92.7259 1332.03 89.398 1330.82 87.9246C1327.09 83.3808 1323.83 79.4884 1318.6 77.1092C1312.87 74.4992 1306.62 72.8572 1300.36 72.3994C1298.44 72.2593 1296.52 72.2289 1294.62 72.3169C1286.59 72.6862 1278.51 74.9433 1271.07 78.4268C1269.46 79.1856 1267 81.2218 1265.13 81.0863C1264.81 81.0629 1264.51 80.9752 1264.23 80.8063C1262.16 79.5601 1260.85 73.5807 1259.53 71.3775C1256.25 65.8894 1252.13 63.9118 1247.61 63.5817C1240.33 63.0501 1232.03 66.7895 1224.56 67.0082C1224.02 67.0235 1223.48 67.0112 1222.95 66.9722C1216.05 66.4686 1209.73 61.6935 1202.93 60.4856C1202.25 60.3654 1201.6 60.2829 1200.96 60.2364C1195.03 59.8031 1190.7 62.4863 1185.79 66.7752C1181.14 70.8458 1175.96 72.0886 1170.63 71.699C1160.41 70.9539 1149.65 64.2183 1141.02 59.8984C1131.26 55.0073 1120.51 50.4001 1109.58 49.6013C1106.02 49.3413 1102.44 49.4837 1098.87 50.1531C1095.59 50.7661 1092.26 51.9149 1089.26 53.5606C1087.3 54.6316 1083.89 58.345 1081.9 58.451C1081.78 58.458 1081.66 58.4573 1081.54 58.4485C1079.01 58.2639 1077.11 54.7893 1075.31 53.1763C1073.39 51.4586 1071.26 50.1923 1068.8 50.0124C1068.57 49.9954 1068.33 49.9876 1068.1 49.9903C1063.5 50.0459 1060.43 53.3938 1058.26 57.615C1057.09 59.8828 1054.91 68.4596 1051.74 68.228C1051.49 68.2097 1051.23 68.1363 1050.97 68.0022C1047.8 66.3724 1047.63 56.3362 1046.48 52.9588C1044.78 48.022 1041.01 44.1346 1036.21 43.7835C1035.77 43.7515 1035.32 43.7484 1034.87 43.778C1027.39 44.2486 1025.62 51.9458 1021.36 57.2203C1020.45 58.3565 1019.72 58.7991 1019.12 58.7553C1017.88 58.6647 1017.19 56.5023 1016.55 54.0815C1015.7 50.8196 1015.82 47.1832 1014.62 44.0435C1012.1 37.4352 1005.89 37.1032 1000.23 36.6633C993.406 36.1311 986.598 35.1216 979.772 34.5012C983.2 34.7518 987.423 28.9948 989.987 28.8265C992.466 28.6641 995.115 28.661 997.754 28.8538C1005.48 29.4183 1013.11 31.6696 1016.06 36.575C1017.84 38.4724 1018.14 47.7294 1020.83 48.6093C1020.97 48.6545 1021.12 48.6822 1021.26 48.6925C1024.65 48.9402 1027.97 39.2436 1037.61 39.9475C1047.65 40.6809 1048.44 51.9738 1052.61 52.8359C1052.71 52.8567 1052.81 52.8708 1052.91 52.8783C1056.59 53.1467 1060.8 44.9802 1066.32 44.7951C1066.6 44.7864 1066.89 44.7924 1067.17 44.8132C1069.46 44.9806 1071.78 46.0752 1074.08 47.1692L1074.16 47.2089C1076.43 48.2883 1078.67 49.3563 1080.84 49.515C1081.64 49.5732 1082.42 49.509 1083.2 49.2795C1087.97 47.8635 1092.39 45.1023 1097.28 43.8831C1104.18 42.1603 1111.14 41.7705 1118.07 42.2764C1127.89 42.9942 1137.64 45.5179 1147.02 48.5987C1154.81 51.1569 1162.49 54.0674 1170.26 56.6897C1172.55 57.4628 1174.43 57.8646 1176.08 57.9853C1181.28 58.3652 1184.28 55.9625 1191.1 53.5923C1193.86 52.6334 1196.41 52.3587 1198.85 52.5368C1205.55 53.026 1211.36 56.9428 1218.11 59.5362C1219.6 60.1089 1220.95 60.4093 1222.2 60.5009C1228.94 60.9933 1232.84 55.4064 1239.97 53.1722C1241.67 52.6388 1243.29 52.4893 1244.85 52.603C1251.48 53.0879 1257.09 58.3694 1264.07 59.2938C1264.73 59.3805 1265.39 59.4473 1266.05 59.4955C1274.06 60.0813 1282.28 57.973 1290.26 57.3713C1293.92 57.0948 1297.56 57.0333 1301.16 57.2964C1306.56 57.6906 1311.86 58.8135 1317 61.0313C1324.44 64.2391 1329.09 77.4343 1336.67 77.9869C1337.47 78.0456 1338.31 77.9624 1339.19 77.7107C1347.32 75.3702 1354.19 65.7296 1361.98 66.299C1362.85 66.3622 1363.73 66.5521 1364.62 66.8913C1369.02 68.5685 1374.25 79.3904 1379.08 79.7415C1379.18 79.7493 1379.29 79.7519 1379.4 79.7492C1384.09 79.6238 1386.71 68.2085 1391.42 68.0337C1402.58 60.7692 1420.46 70.1651 1428.48 56.3863C1429.65 54.8058 1429.72 54.3966 1429.88 52.5522C1430.03 50.0382 1428.47 46.9562 1426.85 44.4542C1427.26 44.746 1427.66 45.0401 1428.06 45.3396C1430.53 47.6494 1432.87 50.1237 1435.07 52.7242C1438.28 56.5147 1443.92 62.2133 1445.11 67.4388C1445.66 69.9101 1444.64 70.3326 1441.95 71.3964C1436.89 73.3919 1431.47 73.8435 1426.43 76.0098C1421.71 78.0332 1418.13 81.1386 1415.17 85.6969C1413.99 87.5223 1412.68 91.3232 1410.91 92.4913C1410.28 92.9165 1409.8 93.0852 1409.45 93.0595C1408.09 92.9604 1408.54 89.9635 1408.08 87.6292C1407.14 82.8709 1404.51 78.9149 1400.18 78.5988C1399.65 78.5598 1399.09 78.5764 1398.5 78.654C1392.14 79.4913 1390.29 86.3652 1388.88 92.1914C1388.64 93.1596 1387.85 98.0253 1386.85 98.1739C1386.84 98.1748 1386.83 98.1757 1386.83 98.1753C1386.17 98.1271 1382.59 90.8458 1381.48 90.0413C1380.23 89.1371 1378.95 88.6857 1377.7 88.5942C1373.12 88.2595 1368.82 92.7302 1367.05 97.5137C1364.29 104.959 1366.78 112.331 1365.36 119.735C1365.27 120.175 1364.79 121.073 1364.3 122.062ZM1053.55 55.4786C1053.58 55.4764 1053.6 55.4769 1053.63 55.4787C1053.88 55.4967 1054.02 55.7035 1054.07 55.9026C1054.12 56.1032 1054.09 56.2974 1054 56.2906C1053.91 56.2838 1053.75 56.0772 1053.55 55.4786Z" fill="#D6DEF1"/>
<path d="M1363.45 128.809C1360.54 128.597 1359.02 124.612 1358.29 121.336C1356.57 113.546 1354.84 105.756 1353.12 97.9655C1352.24 93.995 1350.03 89.1156 1346.79 88.8783C1346.32 88.8441 1345.83 88.9059 1345.32 89.0825C1342.29 90.1209 1341.24 94.6775 1338.31 96.0155C1337.62 96.3302 1336.96 96.4437 1336.32 96.3972C1332.8 96.1396 1330.03 90.9363 1327.42 87.4592C1322.61 81.0695 1314.5 79.4193 1307.06 78.1681C1302.75 77.4442 1298.34 76.7319 1293.95 76.411C1287.07 75.9085 1280.23 76.3674 1273.86 79.244C1269.13 81.3762 1263.86 88.7558 1260.43 88.5051C1259.56 88.4414 1258.81 87.8851 1258.21 86.6263C1257.33 84.7667 1255.82 75.4178 1255.08 73.4806C1253.31 68.8004 1247.91 67.7143 1243.34 67.2682C1243.18 67.2542 1243.03 67.2403 1242.88 67.2292C1238.02 66.8742 1233.96 68.4497 1229.9 70.025L1229.89 70.0276C1225.83 71.6051 1221.76 73.1813 1216.9 72.826C1216.75 72.8149 1216.59 72.8023 1216.44 72.787C1211.49 72.3051 1203.79 65.6409 1198.27 65.2375C1197.34 65.1695 1196.47 65.2798 1195.69 65.6264C1190.61 67.881 1186.57 72.4978 1181.49 74.7346C1178.41 76.0897 1175.27 76.4865 1172.12 76.2558C1163.92 75.6571 1155.57 70.8263 1147.6 67.5051C1134.73 62.1366 1112 56.5815 1098.25 55.1643L1098.25 55.1639C1098.14 55.1535 1098.04 55.1434 1097.94 55.1357C1088.98 54.4817 1086.11 65.8051 1080.78 65.4155C1075.38 65.0212 1077.51 51.8505 1068.68 51.2052C1060.13 50.5806 1057.28 72.9219 1052.29 72.5575C1052.13 72.5454 1051.96 72.5075 1051.79 72.4429C1044.9 69.8513 1042.57 49.7527 1035.75 49.2543C1035.45 49.2325 1035.15 49.2488 1034.83 49.3046C1027.59 50.5948 1025.48 64.9421 1018.58 64.4382C1018.38 64.4233 1018.17 64.3962 1017.96 64.3553C1010.43 62.8853 1014.32 48.1671 1008.48 42.7394C1006.54 40.9288 1003.84 40.5474 1001.31 40.2391C999.503 40.0191 997.325 39.8319 994.964 39.6594C992.726 39.4959 990.324 39.3457 987.922 39.1957C985.776 39.0628 983.629 38.9288 981.6 38.7851C988.111 39.1313 993.647 36.15 1000.23 36.6635C1005.89 37.1033 1012.1 37.4353 1014.62 44.0436C1015.82 47.1833 1015.7 50.8197 1016.55 54.0816C1017.19 56.5025 1017.88 58.6648 1019.12 58.7554C1019.72 58.7992 1020.45 58.3566 1021.36 57.2204C1025.62 51.9459 1027.39 44.2487 1034.87 43.7781C1035.32 43.7485 1035.77 43.7517 1036.21 43.7836C1041.01 44.1347 1044.78 48.0221 1046.48 52.9589C1047.64 56.3363 1047.8 66.3725 1050.97 68.0023C1051.23 68.1364 1051.49 68.2098 1051.74 68.2281C1054.91 68.4597 1057.09 59.8829 1058.26 57.6151C1060.43 53.3939 1063.5 50.046 1068.1 49.9904C1068.33 49.9877 1068.57 49.9955 1068.8 50.0125C1071.26 50.1924 1073.39 51.4587 1075.31 53.1764C1077.11 54.7894 1079.01 58.264 1081.54 58.4486C1081.66 58.4574 1081.78 58.4581 1081.9 58.4511C1083.89 58.3451 1087.3 54.6317 1089.26 53.5607C1092.26 51.915 1095.59 50.7662 1098.87 50.1532C1102.44 49.4838 1106.02 49.3414 1109.58 49.6014C1120.51 50.4002 1131.26 55.0074 1141.02 59.8985C1149.65 64.2185 1160.41 70.954 1170.63 71.6992C1175.96 72.0887 1181.14 70.8459 1185.79 66.7753C1190.7 62.4864 1195.03 59.8033 1200.96 60.2365C1201.6 60.283 1202.25 60.3655 1202.93 60.4858C1209.73 61.6936 1216.05 66.4687 1222.95 66.9723C1223.48 67.0113 1224.02 67.0237 1224.56 67.0083C1232.03 66.7896 1240.33 63.0502 1247.61 63.5818C1252.13 63.9119 1256.25 65.8896 1259.53 71.3776C1260.85 73.5808 1262.16 79.5602 1264.23 80.8064C1264.51 80.9753 1264.81 81.063 1265.13 81.0864C1267.01 81.2219 1269.46 79.1857 1271.07 78.4269C1278.51 74.9434 1286.59 72.6863 1294.62 72.3171C1296.53 72.229 1298.44 72.2594 1300.36 72.3995C1306.62 72.8573 1312.87 74.4993 1318.6 77.1093C1323.83 79.4885 1327.09 83.3809 1330.82 87.9247C1332.03 89.3981 1334.03 92.726 1335.9 92.8625C1336.09 92.8765 1336.28 92.8569 1336.47 92.7985C1338.14 92.2797 1339.93 89.24 1341.32 88.0541C1343.5 86.1921 1345.76 85.3368 1347.98 85.4993C1349.9 85.6396 1351.8 86.5373 1353.6 88.1973C1362.37 96.2643 1358.03 109.74 1362.61 119.776C1363.03 120.697 1363.64 121.353 1364.25 122.006L1364.3 122.062C1364.79 121.073 1365.27 120.175 1365.36 119.735C1366.78 112.331 1364.29 104.959 1367.05 97.5138C1368.82 92.7303 1373.12 88.2596 1377.7 88.5943C1378.96 88.6858 1380.23 89.1372 1381.48 90.0414C1382.59 90.846 1386.17 98.1272 1386.83 98.1754C1386.83 98.1759 1386.84 98.175 1386.85 98.1741C1387.85 98.0254 1388.64 93.1597 1388.88 92.1915C1390.29 86.3653 1392.14 79.4915 1398.5 78.6541C1399.09 78.5765 1399.65 78.5599 1400.18 78.5989C1404.51 78.915 1407.14 82.871 1408.08 87.6293C1408.54 89.9637 1408.09 92.9605 1409.45 93.0596C1409.8 93.0853 1410.28 92.9166 1410.92 92.4914C1412.68 91.3233 1413.99 87.5224 1415.17 85.697C1418.13 81.1387 1421.71 78.0333 1426.43 76.0099C1431.47 73.8436 1436.89 73.392 1441.95 71.3965C1444.64 70.3327 1445.67 69.9102 1445.11 67.4389C1443.92 62.2134 1438.28 56.5148 1435.07 52.7244C1432.87 50.1239 1430.53 47.6495 1428.06 45.3397C1430.83 47.3977 1433.51 49.6183 1436.05 51.8187C1441.53 56.5598 1454.95 67.002 1454.44 74.0751C1454.37 74.9873 1454.07 75.8438 1453.49 76.6237C1451.92 78.743 1431.15 80.958 1428.88 82.0167C1417.48 87.3348 1413.53 104.265 1405.5 103.679C1397.47 103.092 1405.33 83.8912 1398.91 83.4219C1392.49 82.9526 1397.28 109.167 1388.84 109.057C1388.73 109.055 1388.64 109.051 1388.54 109.043C1381.86 108.556 1381.83 94.8427 1375.37 94.3705C1371.9 94.1168 1370.93 99.1906 1370.48 105.363C1370.25 108.575 1370.15 112.083 1369.92 115.293C1369.75 117.569 1369.51 119.696 1369.11 121.461C1368.36 124.701 1366.89 128.639 1363.89 128.812C1363.74 128.821 1363.59 128.82 1363.45 128.809Z" fill="#9DB5E0"/>
<path d="M1027.85 29.8452C1026.76 29.7655 1026.9 27.8786 1027.99 27.9583C1029.08 28.038 1028.94 29.9248 1027.85 29.8452Z" fill="#D6DEF1"/>
<path d="M1030.19 20.0214C1029.22 19.9504 1029.34 18.275 1030.31 18.3458C1031.28 18.4167 1031.16 20.0922 1030.19 20.0214Z" fill="#D6DEF1"/>
<path d="M1094.42 41.3349C1093.46 41.2649 1093.59 39.6094 1094.54 39.6793C1095.5 39.7493 1095.38 41.4048 1094.42 41.3349Z" fill="#D6DEF1"/>
<path d="M1107.93 38.7747C1107.43 38.7384 1107.49 37.8793 1107.99 37.9156C1108.49 37.9519 1108.42 38.811 1107.93 38.7747Z" fill="#D6DEF1"/>
<path d="M1197.54 38.6989C1196.39 38.6147 1196.53 36.6242 1197.68 36.7082C1198.84 36.7924 1198.69 38.7829 1197.54 38.6989Z" fill="#D6DEF1"/>
<path d="M1220.61 32.2716C1220 32.2272 1220.08 31.1794 1220.69 31.2237C1221.29 31.268 1221.22 32.3158 1220.61 32.2716Z" fill="#D6DEF1"/>
<path d="M1331.96 38.4919C1331.49 38.4573 1331.55 37.6409 1332.02 37.6754C1332.49 37.71 1332.43 38.5264 1331.96 38.4919Z" fill="#D6DEF1"/>
<path d="M1325.24 42.1326C1324.72 42.0943 1324.22 41.653 1324.46 40.8633L1324.53 40.6593C1324.66 40.2187 1325.03 40.0212 1325.39 40.0472C1325.74 40.0731 1326.08 40.3225 1326.16 40.7783L1326.19 40.9892C1326.31 41.8086 1325.76 42.1707 1325.24 42.1326Z" fill="#D6DEF1"/>
<path d="M1411.64 47.3377C1410.79 47.2757 1410.9 45.8076 1411.74 45.8696C1412.59 45.9317 1412.49 47.3997 1411.64 47.3377Z" fill="#D6DEF1"/>
<path d="M981.812 19.1917C981.351 19.158 981.409 18.3615 981.87 18.3951C982.331 18.4288 982.272 19.2253 981.812 19.1917Z" fill="#D6DEF1"/>
<path d="M973.148 21.7614C972.105 21.6852 972.238 19.8835 973.28 19.9596C974.323 20.0358 974.19 21.8375 973.148 21.7614Z" fill="#D6DEF1"/>
<path d="M1164.71 46.0517C1163.72 45.979 1163.84 44.2611 1164.84 44.3336C1165.83 44.4063 1165.7 46.1243 1164.71 46.0517Z" fill="#D6DEF1"/>
<path d="M1152.8 43.2887C1151.92 43.224 1152.03 41.6949 1152.92 41.7594C1153.8 41.8242 1153.69 43.3533 1152.8 43.2887Z" fill="#D6DEF1"/>
<path d="M1065.89 28.6076C1065.28 28.5632 1065.36 27.5155 1065.96 27.5597C1066.57 27.604 1066.49 28.6518 1065.89 28.6076Z" fill="#D6DEF1"/>
<path d="M1268.96 44.489C1268.18 44.4322 1268.28 43.0919 1269.06 43.1486C1269.84 43.2053 1269.74 44.5457 1268.96 44.489Z" fill="#D6DEF1"/>
<path d="M1288.31 44.7731C1287.8 44.736 1287.87 43.8557 1288.38 43.8928C1288.89 43.9301 1288.82 44.8103 1288.31 44.7731Z" fill="#D6DEF1"/>
<path d="M1378.31 61.51C1377.49 61.4498 1377.59 60.0256 1378.42 60.0858C1379.24 60.1461 1379.14 61.5702 1378.31 61.51Z" fill="#D6DEF1"/>
<path d="M1213.71 38.3987C1212.19 38.2879 1212.38 35.6684 1213.9 35.779C1215.41 35.8898 1215.22 38.5093 1213.71 38.3987Z" fill="#D6DEF1"/>
<path d="M1019.5 22.6655C1017.69 22.5335 1017.92 19.41 1019.73 19.5419C1021.54 19.6739 1021.3 22.7974 1019.5 22.6655Z" fill="#AABDE3"/>
<path d="M1100.75 37.5726C1100 37.5177 1100.09 36.2186 1100.84 36.2734C1101.6 36.3283 1101.5 37.6275 1100.75 37.5726Z" fill="#AABDE3"/>
<path d="M1206.09 32.1795C1204.36 32.0536 1204.59 29.0777 1206.31 29.2034C1208.03 29.3292 1207.81 32.3051 1206.09 32.1795Z" fill="#AABDE3"/>
<path d="M1418.3 51.8503C1416.61 51.7269 1416.83 48.8082 1418.52 48.9314C1420.21 49.0549 1419.99 51.9735 1418.3 51.8503Z" fill="#AABDE3"/>
<path d="M1408.36 53.5168C1407.36 53.4441 1407.49 51.7248 1408.49 51.7974C1409.48 51.87 1409.35 53.5894 1408.36 53.5168Z" fill="#AABDE3"/>
<path d="M1050.9 34.8818C1050.08 34.8225 1050.19 33.4196 1051 33.4789C1051.81 33.5382 1051.71 34.9411 1050.9 34.8818Z" fill="#AABDE3"/>
<path d="M1278.48 35.7417C1277.19 35.6478 1277.36 33.4258 1278.64 33.5196C1279.93 33.6135 1279.76 35.8356 1278.48 35.7417Z" fill="#AABDE3"/>
<path d="M1339.12 67.5403C1338.41 67.4881 1338.5 66.2528 1339.21 66.305C1339.93 66.3572 1339.84 67.5925 1339.12 67.5403Z" fill="#AABDE3"/>
<path d="M1346 61.7731C1345.26 61.7191 1345.36 60.44 1346.09 60.4939C1346.84 60.5481 1346.74 61.8273 1346 61.7731Z" fill="#AABDE3"/>
</g>
<path d="M1464.99 43.5175C1453.52 43.8495 1430.54 45.3702 1419.49 47.9923C1406.12 51.1648 1385.15 57.9444 1393.84 65.6866C1397.19 68.6674 1415.22 71.7553 1419.74 72.6627C1423.96 73.5088 1429.9 74.4039 1435.85 75.2991C1441.8 76.1964 1447.75 77.0924 1451.97 77.9392C1455.02 78.55 1458.26 79.2526 1460.48 81.2935C1467.17 87.4117 1461.44 101.648 1470.45 104.016C1479.3 106.341 1482.79 91.4329 1491.91 90.9965C1501.14 90.555 1502.3 112.573 1510.82 116.132C1517.1 118.762 1522.09 95.2364 1532.74 96.9355C1543.38 98.6346 1539.89 111.536 1546.39 112.574C1552.9 113.613 1557.18 102.373 1568.26 104.421C1584.79 107.478 1611.91 115.74 1627.12 122.64C1640.15 128.552 1653.88 137.449 1667.62 133.906C1673.93 132.279 1679.13 128.149 1685.44 126.504C1692.17 124.746 1703.09 134.881 1710.05 136.133C1716.15 137.233 1721.33 136.108 1726.52 134.983C1731.7 133.859 1736.89 132.735 1742.99 133.832C1748.48 134.823 1754.95 136.553 1756.77 141.44C1757.52 143.462 1758.71 152.982 1759.64 154.944C1762.76 161.505 1771.73 151.402 1779.09 149.438C1792.05 145.976 1806.08 149.151 1819.34 152.327C1828.26 154.465 1837.96 157.082 1843.33 164.038C1846.78 168.506 1850.31 175.401 1855.91 173.885C1859.55 172.898 1861.15 168.473 1864.88 167.796C1869.88 166.888 1872.81 172.944 1873.71 177.601C1875.25 185.588 1876.79 193.575 1878.33 201.562C1879.01 205.088 1880.71 209.5 1884.59 209.698C1888.23 209.883 1890.28 206.125 1891.41 202.978C1894.57 194.207 1892.98 175.405 1900.88 176.666C1908.78 177.928 1907.72 192.019 1916.15 192.944C1926.36 194.062 1922.39 167.305 1930.13 168.541C1937.87 169.776 1927.02 188.017 1936.7 189.561C1946.37 191.106 1952.33 174.666 1966.5 170.715C1969.32 169.929 1994.61 170.196 1996.65 168.267C2003.25 162.046 1984.38 147.493 1977.27 141.407C1964.64 130.599 1949.15 119.168 1932.44 121.735C1923.11 123.168 1915.01 128.925 1905.53 129.467C1894.9 130.075 1885.52 124.194 1876.18 118.318C1866.52 112.247 1856.91 106.18 1845.98 107.286C1841.41 107.749 1837.11 109.495 1832.54 109.944C1823.57 110.823 1815.36 106.773 1807.06 102.707C1800.23 99.3652 1793.34 96.0121 1785.92 95.3814C1777.74 94.6869 1769.78 97.386 1761.61 97.6895C1742.04 98.4134 1724.58 85.6428 1705.25 82.06C1691.6 79.5273 1677.52 81.6371 1663.55 83.7667C1645.75 86.4815 1628.16 89.2283 1611.92 82.4301C1600.66 77.7176 1591.3 68.7238 1579.2 66.671C1569.19 64.9725 1559.19 68.3879 1549.06 68.645C1534.01 69.0297 1520.12 62.5688 1506.2 56.1018C1492.84 49.8978 1479.46 43.6895 1464.99 43.5175Z" fill="white"/>
<mask id="mask2_7_207" style="mask-type:luminance" maskUnits="userSpaceOnUse" x="1391" y="43" width="608" height="167">
<path d="M1465 43.5165C1453.52 43.8486 1430.54 45.3693 1419.49 47.9913C1406.12 51.1639 1385.16 57.9435 1393.84 65.6857C1397.19 68.6664 1415.22 71.7544 1419.74 72.6618C1423.96 73.5079 1429.9 74.403 1435.85 75.2982C1441.8 76.1955 1447.75 77.0915 1451.97 77.9383C1455.02 78.5491 1458.26 79.2517 1460.49 81.2926C1467.17 87.4108 1461.44 101.648 1470.45 104.015C1479.3 106.34 1482.79 91.432 1491.91 90.9956C1501.14 90.554 1502.3 112.572 1510.82 116.132C1517.1 118.761 1522.09 95.2355 1532.74 96.9346C1543.38 98.6336 1539.89 111.535 1546.39 112.573C1552.9 113.612 1557.18 102.372 1568.26 104.42C1584.79 107.477 1611.91 115.739 1627.12 122.639C1640.15 128.551 1653.88 137.448 1667.62 133.905C1673.93 132.278 1679.13 128.148 1685.44 126.503C1692.17 124.745 1703.09 134.88 1710.05 136.133C1716.15 137.232 1721.33 136.107 1726.52 134.982C1731.7 133.859 1736.89 132.734 1742.99 133.831C1748.48 134.822 1754.95 136.552 1756.77 141.439C1757.52 143.461 1758.71 152.981 1759.64 154.943C1762.77 161.504 1771.73 151.401 1779.09 149.437C1792.05 145.975 1806.08 149.15 1819.34 152.326C1828.26 154.464 1837.96 157.081 1843.33 164.037C1846.78 168.505 1850.31 175.4 1855.91 173.884C1859.55 172.897 1861.15 168.472 1864.88 167.795C1869.88 166.887 1872.81 172.943 1873.71 177.6C1875.25 185.587 1876.79 193.574 1878.33 201.561C1879.01 205.087 1880.71 209.5 1884.59 209.697C1888.23 209.882 1890.28 206.124 1891.41 202.977C1894.57 194.206 1892.98 175.404 1900.88 176.665C1908.78 177.927 1907.72 192.018 1916.15 192.943C1926.36 194.061 1922.39 167.304 1930.13 168.54C1937.87 169.775 1927.02 188.016 1936.7 189.56C1946.37 191.105 1952.33 174.665 1966.5 170.714C1969.32 169.928 1994.61 170.195 1996.66 168.266C2003.25 162.045 1984.39 147.492 1977.27 141.406C1964.64 130.598 1949.16 119.167 1932.44 121.734C1923.11 123.167 1915.01 128.924 1905.53 129.466C1894.9 130.074 1885.52 124.193 1876.18 118.317C1866.52 112.246 1856.91 106.179 1845.98 107.286C1841.41 107.748 1837.12 109.494 1832.54 109.943C1823.57 110.822 1815.36 106.772 1807.06 102.706C1800.23 99.3642 1793.34 96.0112 1785.92 95.3805C1777.74 94.6859 1769.78 97.3851 1761.61 97.6886C1742.04 98.4125 1724.58 85.6419 1705.25 82.0591C1691.6 79.5264 1677.52 81.6362 1663.55 83.7658C1645.76 86.4806 1628.16 89.2274 1611.92 82.4291C1600.66 77.7167 1591.3 68.7229 1579.2 66.67C1569.19 64.9716 1559.19 68.387 1549.07 68.6441C1534.01 69.0288 1520.12 62.5679 1506.2 56.1009C1492.84 49.8969 1479.46 43.6885 1465 43.5165Z" fill="white"/>
</mask>
<g mask="url(#mask2_7_207)">
<path d="M1514.23 99.4076C1514.2 99.403 1514.17 99.3995 1514.14 99.3987C1514.34 100.02 1514.51 100.245 1514.62 100.263C1514.74 100.281 1514.79 100.091 1514.73 99.8837C1514.68 99.6784 1514.53 99.4552 1514.23 99.4076Z" fill="#D6DEF1"/>
<path fill-rule="evenodd" clip-rule="evenodd" d="M1885.56 203.004L1885.5 202.943C1884.81 202.218 1884.11 201.489 1883.67 200.519C1878.83 189.948 1885.02 177.006 1874.97 167.901C1872.9 166.028 1870.67 164.905 1868.36 164.536C1865.68 164.108 1862.89 164.693 1860.12 166.292C1858.35 167.311 1855.97 170.133 1853.92 170.452C1853.68 170.488 1853.45 170.485 1853.22 170.448C1850.97 170.088 1848.78 166.526 1847.42 164.91C1843.22 159.926 1839.54 155.648 1833.38 152.647C1826.63 149.356 1819.19 146.97 1811.63 145.765C1809.32 145.396 1807.01 145.137 1804.69 144.997C1794.95 144.408 1785.01 145.697 1775.77 148.289C1773.76 148.854 1770.66 150.595 1768.4 150.236C1768.01 150.175 1767.65 150.051 1767.32 149.849C1764.91 148.357 1763.74 142.228 1762.29 139.87C1758.71 133.997 1753.86 131.529 1748.41 130.66C1739.65 129.26 1729.33 132.004 1720.28 131.33C1719.62 131.281 1718.97 131.205 1718.33 131.102C1710.03 129.776 1702.7 124.251 1694.56 122.233C1693.75 122.032 1692.96 121.872 1692.2 121.749C1685.05 120.609 1679.62 122.771 1673.39 126.47C1667.47 129.981 1661.11 130.603 1654.69 129.577C1642.37 127.613 1629.82 119.6 1619.68 114.256C1608.21 108.205 1595.52 102.32 1582.35 100.217C1578.06 99.5321 1573.72 99.2472 1569.35 99.4893C1565.33 99.7095 1561.23 100.46 1557.48 101.746C1555.04 102.582 1550.66 105.884 1548.24 105.752C1548.09 105.745 1547.95 105.73 1547.8 105.706C1544.76 105.22 1542.7 101.523 1540.63 99.6962C1538.42 97.7513 1535.94 96.2326 1532.97 95.7589C1532.69 95.7143 1532.41 95.6785 1532.12 95.6528C1526.55 95.1592 1522.6 98.1367 1519.68 102.094C1518.12 104.22 1514.87 112.526 1511.05 111.916C1510.75 111.868 1510.45 111.764 1510.14 111.599C1506.42 109.593 1506.92 99.5486 1505.75 96.0367C1504.04 90.9029 1499.75 86.5704 1493.96 85.646C1493.44 85.5619 1492.9 85.5054 1492.34 85.4807C1483.25 85.0574 1480.58 92.535 1475.06 97.2953C1473.88 98.3207 1472.96 98.6757 1472.24 98.5602C1470.74 98.3218 1470.06 96.08 1469.46 93.5859C1468.65 90.2253 1469.06 86.6082 1467.83 83.329C1465.23 76.4266 1457.74 75.3537 1450.93 74.2394C1442.7 72.8926 1431.22 75.6737 1423 74.2391C1427.13 74.8986 1391.39 66.862 1394.5 67.0001C1397.51 67.1337 1445.29 65.6351 1448.47 66.1427C1457.78 67.6288 1466.86 70.7886 1470.08 76.0407C1472.11 78.1483 1471.82 87.4302 1475.02 88.6308C1475.19 88.6928 1475.36 88.7374 1475.53 88.7645C1479.61 89.4166 1484.32 80.1284 1495.93 81.9819C1508.02 83.9128 1508.19 95.287 1513.18 96.6458C1513.3 96.6788 1513.42 96.7051 1513.55 96.7249C1517.97 97.4315 1523.64 89.7776 1530.33 90.2516C1530.68 90.2766 1531.02 90.3166 1531.36 90.3712C1534.12 90.8121 1536.85 92.1822 1539.55 93.5489L1539.65 93.5984C1542.32 94.9472 1544.96 96.2818 1547.58 96.6996C1548.54 96.8528 1549.49 96.8826 1550.45 96.7458C1556.32 95.9012 1561.86 93.6709 1567.86 93.0363C1576.34 92.1398 1584.79 92.5817 1593.13 93.9137C1604.97 95.8037 1616.59 99.4883 1627.73 103.685C1636.97 107.17 1646.07 110.995 1655.29 114.541C1658.01 115.587 1660.25 116.212 1662.24 116.53C1668.51 117.531 1672.3 115.488 1680.73 113.936C1684.13 113.307 1687.24 113.338 1690.18 113.807C1698.25 115.095 1705.01 119.701 1713 123.098C1714.76 123.847 1716.37 124.308 1717.88 124.549C1726.01 125.846 1731.11 120.731 1739.9 119.351C1741.99 119.021 1743.96 119.064 1745.83 119.364C1753.83 120.64 1760.25 126.586 1768.63 128.342C1769.42 128.507 1770.21 128.653 1771.01 128.779C1780.67 130.322 1790.76 129.197 1800.45 129.548C1804.91 129.709 1809.32 130.082 1813.66 130.775C1820.16 131.813 1826.5 133.568 1832.57 136.397C1841.34 140.489 1846.05 154.224 1855.19 155.681C1856.16 155.836 1857.18 155.853 1858.25 155.706C1868.25 154.338 1877.24 145.53 1886.64 147.029C1887.68 147.195 1888.73 147.49 1889.79 147.935C1894.99 150.136 1900.57 161.57 1906.38 162.496C1906.51 162.517 1906.65 162.533 1906.78 162.543C1912.46 162.978 1916.43 151.888 1922.13 152.275C1936.15 146.352 1957.13 157.872 1967.8 145.067C1969.32 143.627 1969.44 143.227 1969.75 141.403C1970.12 138.911 1968.44 135.646 1966.66 132.953C1967.13 133.293 1967.6 133.635 1968.06 133.982C1970.88 136.584 1973.54 139.335 1976.02 142.195C1979.64 146.364 1986.08 152.73 1987.15 158.091C1987.65 160.626 1986.38 160.926 1983.05 161.667C1976.79 163.056 1970.2 162.86 1963.95 164.422C1958.1 165.88 1953.54 168.554 1949.65 172.754C1948.09 174.437 1946.24 178.076 1944.03 179.033C1943.22 179.381 1942.64 179.493 1942.21 179.425C1940.58 179.164 1941.33 176.224 1940.93 173.838C1940.13 168.973 1937.22 164.707 1932 163.874C1931.36 163.772 1930.68 163.722 1929.97 163.729C1922.21 163.806 1919.49 170.451 1917.38 176.102C1917.03 177.041 1915.73 181.807 1914.5 181.835C1914.5 181.835 1914.49 181.836 1914.48 181.835C1913.69 181.707 1909.87 174.008 1908.57 173.071C1907.12 172.019 1905.61 171.416 1904.1 171.175C1898.58 170.294 1893.07 174.246 1890.59 178.812C1886.73 185.919 1889.23 193.58 1887 200.806C1886.86 201.236 1886.22 202.076 1885.56 203.004ZM1514.14 99.3987C1514.17 99.3995 1514.2 99.403 1514.23 99.4076C1514.53 99.4552 1514.68 99.6784 1514.73 99.8837C1514.79 100.091 1514.74 100.281 1514.62 100.263C1514.51 100.245 1514.34 100.02 1514.14 99.3987Z" fill="#D6DEF1"/>
<path d="M1884.05 209.641C1880.55 209.083 1878.98 204.92 1878.33 201.561C1876.79 193.574 1875.25 185.587 1873.71 177.601C1872.92 173.53 1870.58 168.392 1866.67 167.767C1866.11 167.677 1865.51 167.68 1864.88 167.796C1861.15 168.472 1859.55 172.898 1855.91 173.884C1855.06 174.116 1854.25 174.151 1853.48 174.028C1849.24 173.35 1846.25 167.823 1843.33 164.037C1837.96 157.082 1828.26 154.465 1819.34 152.326C1814.17 151.089 1808.89 149.851 1803.6 149.006C1795.31 147.683 1787 147.325 1779.09 149.437C1773.22 151.003 1766.33 157.745 1762.2 157.085C1761.15 156.918 1760.27 156.272 1759.64 154.943C1758.71 152.981 1757.52 143.462 1756.77 141.439C1754.95 136.553 1748.48 134.823 1742.99 133.832C1742.8 133.799 1742.61 133.767 1742.43 133.737C1736.58 132.803 1731.55 133.892 1726.53 134.981L1726.52 134.982C1721.49 136.073 1716.47 137.162 1710.61 136.227C1710.42 136.198 1710.24 136.167 1710.05 136.133C1704.1 135.061 1695.24 127.485 1688.59 126.423C1687.47 126.244 1686.41 126.25 1685.44 126.503C1679.13 128.149 1673.93 132.278 1667.62 133.906C1663.8 134.891 1659.98 134.914 1656.17 134.306C1646.3 132.73 1636.52 126.907 1627.12 122.639C1611.91 115.739 1584.79 107.477 1568.26 104.421L1568.25 104.42C1568.12 104.397 1568 104.374 1567.87 104.354C1557.08 102.632 1552.82 113.6 1546.39 112.574C1539.89 111.536 1543.38 98.6339 1532.74 96.9348C1522.44 95.2904 1517.43 117.266 1511.42 116.307C1511.22 116.275 1511.02 116.217 1510.82 116.132C1502.66 112.721 1501.25 92.368 1493.03 91.0558C1492.67 90.9983 1492.3 90.9779 1491.91 90.9959C1483.06 91.4198 1479.51 105.499 1471.19 104.172C1470.95 104.133 1470.7 104.081 1470.45 104.015C1461.44 101.648 1467.17 87.411 1460.49 81.2929C1458.26 79.252 1455.02 78.5494 1451.97 77.9386C1449.81 77.5034 1447.18 77.0564 1444.34 76.6023C1441.64 76.1718 1438.74 75.735 1435.85 75.2985C1433.26 74.9094 1430.67 74.5193 1428.23 74.1335C1436.08 75.2567 1442.99 72.9397 1450.93 74.239C1457.74 75.3533 1465.23 76.4262 1467.83 83.3286C1469.06 86.6078 1468.65 90.2249 1469.46 93.5855C1470.06 96.0797 1470.74 98.3214 1472.24 98.5598C1472.96 98.6753 1473.87 98.3203 1475.06 97.2949C1480.58 92.5346 1483.25 85.0571 1492.34 85.4803C1492.9 85.5051 1493.44 85.5615 1493.96 85.6456C1499.75 86.57 1504.04 90.9025 1505.75 96.0363C1506.92 99.5482 1506.42 109.593 1510.14 111.599C1510.45 111.764 1510.75 111.868 1511.05 111.916C1514.87 112.526 1518.12 104.22 1519.68 102.094C1522.6 98.1364 1526.55 95.1588 1532.12 95.6524C1532.41 95.6781 1532.69 95.7139 1532.97 95.7585C1535.94 96.2322 1538.42 97.7509 1540.63 99.6958C1542.7 101.522 1544.76 105.22 1547.8 105.706C1547.95 105.729 1548.09 105.744 1548.24 105.752C1550.66 105.884 1555.04 102.582 1557.48 101.745C1561.23 100.46 1565.33 99.7091 1569.35 99.4889C1573.72 99.2468 1578.06 99.5317 1582.35 100.216C1595.52 102.319 1608.21 108.204 1619.68 114.255C1629.82 119.6 1642.37 127.613 1654.69 129.577C1661.11 130.603 1667.47 129.98 1673.39 126.47C1679.62 122.771 1685.05 120.608 1692.2 121.749C1692.96 121.871 1693.75 122.032 1694.56 122.233C1702.7 124.251 1710.02 129.776 1718.33 131.102C1718.97 131.204 1719.62 131.281 1720.28 131.33C1729.33 132.003 1739.65 129.26 1748.41 130.66C1753.86 131.529 1758.71 133.996 1762.29 139.869C1763.73 142.227 1764.91 148.356 1767.32 149.848C1767.65 150.05 1768.01 150.174 1768.4 150.236C1770.66 150.595 1773.76 148.854 1775.77 148.289C1785.01 145.697 1794.95 144.407 1804.69 144.997C1807.01 145.137 1809.32 145.396 1811.63 145.765C1819.18 146.97 1826.63 149.356 1833.38 152.647C1839.54 155.647 1843.22 159.925 1847.42 164.909C1848.78 166.525 1850.97 170.088 1853.22 170.448C1853.45 170.484 1853.68 170.487 1853.92 170.452C1855.97 170.132 1858.35 167.31 1860.12 166.292C1862.89 164.692 1865.68 164.107 1868.36 164.535C1870.67 164.904 1872.9 166.027 1874.97 167.901C1885.02 177.005 1878.83 189.947 1883.67 200.519C1884.11 201.489 1884.81 202.217 1885.5 202.943L1885.56 203.004C1886.22 202.075 1886.86 201.235 1887 200.806C1889.23 193.58 1886.73 185.919 1890.59 178.812C1893.07 174.246 1898.58 170.293 1904.1 171.175C1905.61 171.415 1907.12 172.019 1908.57 173.071C1909.86 174.007 1913.68 181.707 1914.48 181.834C1914.49 181.835 1914.5 181.835 1914.5 181.835C1915.73 181.806 1917.03 177.041 1917.38 176.102C1919.49 170.45 1922.21 163.806 1929.97 163.729C1930.68 163.721 1931.36 163.771 1932 163.874C1937.21 164.706 1940.13 168.973 1940.93 173.837C1941.33 176.224 1940.58 179.164 1942.21 179.425C1942.64 179.493 1943.22 179.381 1944.03 179.032C1946.24 178.076 1948.09 174.436 1949.65 172.754C1953.54 168.553 1958.1 165.88 1963.94 164.422C1970.2 162.86 1976.79 163.056 1983.05 161.666C1986.38 160.925 1987.65 160.626 1987.15 158.09C1986.08 152.73 1979.64 146.363 1976.02 142.194C1973.54 139.334 1970.88 136.583 1968.06 133.982C1971.27 136.368 1974.35 138.905 1977.27 141.407C1983.57 146.797 1999.09 158.83 1997.98 165.833C1997.83 166.736 1997.41 167.556 1996.66 168.266C1994.61 170.195 1969.32 169.928 1966.5 170.714C1952.33 174.665 1946.37 191.105 1936.7 189.561C1927.02 188.016 1937.87 169.776 1930.13 168.54C1922.39 167.304 1926.36 194.061 1916.15 192.943C1916.03 192.929 1915.91 192.913 1915.79 192.894C1907.75 191.61 1908.67 177.909 1900.88 176.666C1896.7 175.998 1895.17 180.951 1894.2 187.062C1893.69 190.242 1893.33 193.735 1892.82 196.913C1892.46 199.167 1892.03 201.263 1891.41 202.977C1890.28 206.125 1888.23 209.883 1884.59 209.698C1884.41 209.688 1884.23 209.669 1884.05 209.641Z" fill="#9DB5E0"/>
<path d="M1484.83 70.7258C1483.51 70.5158 1483.81 68.6477 1485.12 68.8575C1486.44 69.0675 1486.14 70.9354 1484.83 70.7258Z" fill="#D6DEF1"/>
<path d="M1488.33 61.1918C1487.16 61.005 1487.43 59.3463 1488.6 59.5328C1489.77 59.7194 1489.5 61.3782 1488.33 61.1918Z" fill="#D6DEF1"/>
<path d="M1564.58 90.1509C1563.43 89.9666 1563.69 88.3276 1564.84 88.5116C1566 88.6959 1565.73 90.3349 1564.58 90.1509Z" fill="#D6DEF1"/>
<path d="M1581.1 89.2055C1580.51 89.11 1580.64 88.2594 1581.24 88.355C1581.84 88.4506 1581.7 89.3011 1581.1 89.2055Z" fill="#D6DEF1"/>
<path d="M1689.55 99.8273C1688.16 99.6056 1688.48 97.635 1689.87 97.8563C1691.26 98.078 1690.94 100.049 1689.55 99.8273Z" fill="#D6DEF1"/>
<path d="M1717.92 96.1627C1717.19 96.046 1717.36 95.0087 1718.09 95.1252C1718.82 95.2419 1718.65 96.2792 1717.92 96.1627Z" fill="#D6DEF1"/>
<path d="M1852.24 115.67C1851.67 115.579 1851.8 114.771 1852.37 114.861C1852.94 114.952 1852.81 115.761 1852.24 115.67Z" fill="#D6DEF1"/>
<path d="M1843.85 118.504C1843.22 118.403 1842.65 117.903 1843 117.143L1843.09 116.947C1843.29 116.523 1843.75 116.37 1844.18 116.439C1844.61 116.507 1845 116.796 1845.05 117.26L1845.08 117.475C1845.17 118.308 1844.48 118.604 1843.85 118.504Z" fill="#D6DEF1"/>
<path d="M1429.85 54.588C1429.29 54.4994 1429.42 53.7107 1429.97 53.7993C1430.53 53.888 1430.4 54.6765 1429.85 54.588Z" fill="#D6DEF1"/>
<path d="M1419.18 56.1202C1417.93 55.9195 1418.21 54.1358 1419.47 54.3361C1420.73 54.5368 1420.44 56.3206 1419.18 56.1202Z" fill="#D6DEF1"/>
<path d="M1649.31 103.253C1648.11 103.061 1648.39 101.361 1649.58 101.552C1650.78 101.743 1650.51 103.444 1649.31 103.253Z" fill="#D6DEF1"/>
<path d="M1635.1 99.072C1634.03 98.9017 1634.27 97.3878 1635.34 97.5578C1636.41 97.7283 1636.16 99.242 1635.1 99.072Z" fill="#D6DEF1"/>
<path d="M1530.94 74.0309C1530.2 73.9142 1530.37 72.8769 1531.1 72.9934C1531.83 73.1101 1531.67 74.1474 1530.94 74.0309Z" fill="#D6DEF1"/>
<path d="M1775.58 114.139C1774.64 113.989 1774.86 112.662 1775.79 112.811C1776.73 112.961 1776.52 114.288 1775.58 114.139Z" fill="#D6DEF1"/>
<path d="M1798.98 116.733C1798.37 116.635 1798.51 115.763 1799.12 115.861C1799.74 115.959 1799.6 116.83 1798.98 116.733Z" fill="#D6DEF1"/>
<path d="M1906.73 144.194C1905.73 144.036 1905.96 142.626 1906.95 142.784C1907.95 142.943 1907.72 144.353 1906.73 144.194Z" fill="#D6DEF1"/>
<path d="M1709.14 101.459C1707.31 101.167 1707.73 98.5739 1709.55 98.865C1711.38 99.1568 1710.96 101.75 1709.14 101.459Z" fill="#D6DEF1"/>
<path d="M1475.21 62.5584C1473.04 62.2108 1473.53 59.1185 1475.71 59.4656C1477.89 59.8133 1477.39 62.9056 1475.21 62.5584Z" fill="#AABDE3"/>
<path d="M1572.5 87.1474C1571.6 87.0029 1571.8 85.7168 1572.71 85.861C1573.61 86.0058 1573.41 87.292 1572.5 87.1474Z" fill="#AABDE3"/>
<path d="M1700.35 94.3364C1698.28 94.0048 1698.75 91.0588 1700.82 91.3896C1702.9 91.721 1702.42 94.667 1700.35 94.3364Z" fill="#AABDE3"/>
<path d="M1512.36 78.5088C1511.38 78.3525 1511.6 76.9637 1512.58 77.1197C1513.56 77.2759 1513.34 78.6648 1512.36 78.5088Z" fill="#AABDE3"/>
<path d="M1787.71 106.537C1786.16 106.29 1786.51 104.09 1788.06 104.337C1789.61 104.584 1789.26 106.784 1787.71 106.537Z" fill="#AABDE3"/>
<path d="M1858.88 145.54C1858.02 145.402 1858.22 144.179 1859.08 144.317C1859.94 144.454 1859.74 145.677 1858.88 145.54Z" fill="#AABDE3"/>
<path d="M1867.61 140.6C1866.72 140.458 1866.92 139.191 1867.81 139.333C1868.7 139.476 1868.5 140.742 1867.61 140.6Z" fill="#AABDE3"/>
</g>
<path d="M-40.908 134.941C-50.5045 139.285 -69.4311 148.788 -77.8513 155.118C-88.0401 162.777 -103.377 176.47 -93.2551 180.629C-89.3564 182.23 -72.9804 178.764 -68.8305 178.021C-64.9558 177.325 -59.6007 176.068 -54.2446 174.811C-48.884 173.553 -43.5232 172.295 -39.645 171.599C-36.845 171.096 -33.8552 170.613 -31.2385 171.731C-23.3923 175.081 -23.1653 190.365 -14.6882 189.402C-6.35752 188.453 -8.72295 173.332 -1.15755 169.719C6.50046 166.061 15.3495 186.169 23.8317 186.492C30.0949 186.731 25.9186 163.053 35.5403 160.892C45.162 158.732 46.8123 171.983 52.6912 170.662C58.5701 169.342 58.186 157.361 68.2965 155.374C83.3904 152.407 109.31 150.567 124.655 151.647C137.804 152.572 152.61 156.033 162.981 147.899C167.742 144.164 170.677 138.484 175.428 134.733C180.506 130.726 193.375 136.329 199.715 135.048C205.272 133.927 209.262 131.056 213.252 128.183C217.241 125.313 221.23 122.441 226.787 121.319C231.797 120.309 237.891 119.647 241.176 123.56C242.535 125.181 246.94 133.634 248.431 135.135C253.421 140.15 257.409 127.58 262.935 123.163C272.679 115.376 285.698 113.399 298.056 111.697C306.377 110.551 315.53 109.577 322.56 114.17C327.076 117.121 332.533 122.303 336.734 118.92C339.465 116.72 339.234 112.036 342.152 110.093C346.063 107.487 350.705 112.101 353.13 116.125C357.287 123.026 361.447 129.926 365.605 136.826C367.441 139.873 370.455 143.387 373.81 142.207C376.958 141.1 377.354 136.876 377.189 133.545C376.729 124.261 368.669 107.299 375.812 105.695C382.957 104.09 387.086 117.596 394.559 115.492C403.605 112.942 390.684 89.4056 397.682 87.8341C404.68 86.2626 402.003 107.077 410.751 105.113C419.498 103.149 418.672 85.7332 429.259 77.0679C431.369 75.3425 452.885 66.6952 453.929 64.1772C457.295 56.0598 436.119 49.1341 427.921 45.9653C413.365 40.3355 396.166 35.1308 382.929 43.4016C375.532 48.0213 370.73 56.2345 362.899 60.0729C354.112 64.379 344.068 62.1973 334.056 60.0086C323.71 57.7472 313.398 55.4769 304.54 60.351C300.833 62.3902 297.819 65.5281 294.105 67.5552C286.822 71.5303 278.422 70.6439 269.939 69.775C262.964 69.062 255.933 68.3603 249.417 70.3853C242.245 72.6134 236.468 77.9284 229.655 81.0861C213.337 88.6453 193.989 82.8861 176.343 86.3446C163.878 88.786 152.7 95.7074 141.634 102.604C127.529 111.395 113.604 120.145 97.4219 119.522C86.2029 119.092 75.0676 114.001 64.0874 116.344C54.9996 118.284 47.7477 124.985 39.2676 128.785C26.6521 134.44 12.5814 133.305 -1.51684 132.174C-15.043 131.09 -28.5936 130.012 -40.908 134.941Z" fill="white"/>
<mask id="mask3_7_207" style="mask-type:luminance" maskUnits="userSpaceOnUse" x="-97" y="39" width="552" height="151">
<path d="M-40.908 134.941C-50.5045 139.285 -69.4311 148.788 -77.8513 155.118C-88.0401 162.777 -103.377 176.47 -93.2551 180.629C-89.3564 182.23 -72.9804 178.764 -68.8305 178.021C-64.9558 177.325 -59.6007 176.068 -54.2446 174.811C-48.884 173.553 -43.5232 172.295 -39.645 171.599C-36.845 171.096 -33.8552 170.613 -31.2385 171.731C-23.3923 175.081 -23.1653 190.365 -14.6882 189.402C-6.35752 188.453 -8.72295 173.332 -1.15755 169.719C6.50046 166.061 15.3495 186.169 23.8317 186.492C30.0949 186.731 25.9186 163.053 35.5403 160.892C45.162 158.732 46.8123 171.983 52.6912 170.662C58.5701 169.342 58.186 157.361 68.2965 155.374C83.3904 152.407 109.31 150.567 124.655 151.647C137.804 152.572 152.61 156.033 162.981 147.899C167.742 144.164 170.677 138.484 175.428 134.733C180.506 130.726 193.375 136.329 199.715 135.048C205.272 133.927 209.262 131.056 213.252 128.183C217.241 125.313 221.23 122.441 226.787 121.319C231.797 120.309 237.891 119.647 241.176 123.56C242.535 125.181 246.94 133.634 248.431 135.135C253.421 140.15 257.409 127.58 262.935 123.163C272.679 115.376 285.698 113.399 298.056 111.697C306.377 110.551 315.53 109.577 322.56 114.17C327.076 117.121 332.533 122.303 336.734 118.92C339.465 116.72 339.234 112.036 342.152 110.093C346.063 107.487 350.705 112.101 353.13 116.125C357.287 123.026 361.447 129.926 365.605 136.826C367.441 139.873 370.455 143.387 373.81 142.207C376.958 141.1 377.354 136.876 377.189 133.545C376.729 124.261 368.669 107.299 375.812 105.695C382.957 104.09 387.086 117.596 394.559 115.492C403.605 112.942 390.684 89.4056 397.682 87.8341C404.68 86.2626 402.003 107.077 410.751 105.113C419.498 103.149 418.672 85.7332 429.259 77.0679C431.369 75.3425 452.885 66.6952 453.929 64.1772C457.295 56.0598 436.119 49.1341 427.921 45.9653C413.365 40.3355 396.166 35.1308 382.929 43.4016C375.532 48.0213 370.73 56.2345 362.899 60.0729C354.112 64.379 344.068 62.1973 334.056 60.0086C323.71 57.7472 313.398 55.4769 304.54 60.351C300.833 62.3902 297.819 65.5281 294.105 67.5552C286.822 71.5303 278.422 70.6439 269.939 69.775C262.964 69.062 255.933 68.3603 249.417 70.3853C242.245 72.6134 236.468 77.9284 229.655 81.0861C213.337 88.6453 193.989 82.8861 176.343 86.3446C163.878 88.786 152.7 95.7074 141.634 102.604C127.529 111.395 113.604 120.145 97.4219 119.522C86.2029 119.092 75.0676 114.001 64.0874 116.344C54.9996 118.284 47.7477 124.985 39.2676 128.785C26.6521 134.44 12.5814 133.305 -1.51684 132.174C-15.043 131.09 -28.5936 130.012 -40.908 134.941Z" fill="white"/>
</mask>
<g mask="url(#mask3_7_207)">
<path d="M373.334 142.344C370.172 143.055 367.354 139.728 365.605 136.826C361.447 129.926 357.287 123.026 353.13 116.125C351.011 112.608 347.198 108.641 343.66 109.436C343.15 109.551 342.645 109.764 342.152 110.093C339.234 112.036 339.465 116.72 336.734 118.92C336.093 119.437 335.422 119.753 334.728 119.909C330.888 120.771 326.386 116.67 322.56 114.17C315.53 109.577 306.377 110.551 298.056 111.697C293.24 112.36 288.324 113.065 283.54 114.14C276.048 115.822 268.882 118.411 262.935 123.163C258.528 126.685 255.099 135.392 251.361 136.231C250.412 136.445 249.442 136.15 248.431 135.135C246.94 133.634 242.535 125.181 241.176 123.56C237.891 119.647 231.797 120.309 226.787 121.319C226.618 121.354 226.449 121.389 226.283 121.427C220.991 122.615 217.124 125.397 213.258 128.179L213.252 128.183C209.384 130.968 205.516 133.751 200.22 134.941C200.053 134.978 199.885 135.014 199.715 135.048C194.289 136.144 184.083 132.199 178.069 133.55C177.055 133.777 176.16 134.156 175.428 134.733C170.677 138.484 167.742 144.164 162.981 147.899C160.095 150.162 156.868 151.527 153.429 152.299C144.502 154.304 134.146 152.315 124.655 151.647C109.31 150.567 83.3904 152.407 68.2965 155.374C68.1788 155.398 68.0638 155.421 67.948 155.447C58.1962 157.637 58.5011 169.358 52.6912 170.662C46.8123 171.983 45.162 158.732 35.5403 160.892C26.2282 162.984 29.8394 185.222 24.4068 186.442C24.2259 186.483 24.033 186.5 23.8317 186.492C15.7051 186.183 7.24287 167.712 -0.188049 169.381C-0.513282 169.454 -0.83654 169.566 -1.15754 169.719C-8.50697 173.229 -6.4854 187.598 -13.9996 189.285C-14.2206 189.335 -14.4499 189.374 -14.6881 189.402C-23.1653 190.365 -23.3922 175.081 -31.2385 171.731C-33.8552 170.613 -36.845 171.096 -39.645 171.599C-41.6366 171.956 -44.0173 172.462 -46.5893 173.039C-49.027 173.587 -51.6365 174.199 -54.2446 174.811C-56.8527 175.424 -59.4607 176.035 -61.898 176.583C-64.4647 177.159 -66.843 177.664 -68.8304 178.021C-72.9804 178.764 -89.3564 182.23 -93.2551 180.629C-95.1628 179.845 -96.1666 178.722 -96.4703 177.365C-97.0037 174.983 -95.3813 171.877 -92.7113 168.613C-93.8536 171.36 -95.0637 176.345 -92.982 177.693C-91.7165 178.51 -87.7408 177.423 -86.3969 177.225C-78.9943 176.135 -71.666 174.41 -64.3433 172.889C-56.8714 171.335 -49.302 170.159 -41.8546 168.52C-35.6875 167.163 -28.9595 165.527 -24.2952 171.046C-22.0808 173.669 -21.1337 177.182 -19.2464 180.029C-17.8454 182.141 -16.4696 183.991 -15.1199 183.688C-14.4658 183.541 -13.8181 182.889 -13.1775 181.515C-10.2033 175.138 -10.61 167.229 -2.76138 164.427C-2.28466 164.256 -1.80714 164.118 -1.331 164.011C3.90395 162.836 9.08139 165.365 12.3629 169.548C14.6059 172.41 17.7722 181.945 21.6384 182.506C21.9576 182.552 22.2518 182.542 22.5237 182.481C25.9777 181.706 25.7584 172.824 26.3266 170.292C27.3859 165.577 29.6664 161.413 34.5608 159.914C34.814 159.837 35.0669 159.77 35.3193 159.714C38.0018 159.111 40.6487 159.652 43.2089 160.69C45.6141 161.664 48.6795 164.385 51.4323 163.767C51.5637 163.737 51.692 163.7 51.8212 163.655C53.9141 162.928 56.4488 158.308 58.2169 156.67C60.9316 154.154 64.1386 152.012 67.4622 150.393C71.0771 148.63 74.8539 147.37 78.7307 146.499C90.6407 143.824 103.484 144.847 115.362 146.45C125.856 147.865 139.353 150.915 150.482 148.414C156.291 147.11 161.456 144.292 165.209 138.941C169.166 133.302 172.996 129.376 179.455 127.925C180.149 127.769 180.872 127.643 181.629 127.545C189.245 126.562 197.422 129.134 204.93 127.448C205.511 127.317 206.087 127.161 206.659 126.976C214.572 124.417 222.325 118.233 230.252 116.453C235.173 115.348 240.163 115.941 245.296 120.154C247.358 121.844 250.538 127.144 253.119 127.684C253.469 127.757 253.819 127.745 254.169 127.667C256.208 127.207 258.218 124.492 259.719 123.258C266.62 117.592 274.576 112.895 283.038 110.017C285.046 109.334 287.101 108.761 289.189 108.292C296.015 106.759 303.171 106.364 310.067 107.055C316.356 107.684 321.002 110.376 326.336 113.544C328.066 114.571 331.191 117.122 333.227 116.664C333.435 116.618 333.632 116.539 333.816 116.424C335.439 115.405 336.452 111.936 337.582 110.366C339.358 107.902 341.51 106.375 343.934 105.831C346.024 105.362 348.315 105.623 350.735 106.642C362.498 111.591 361.876 125.83 369.751 133.978C370.474 134.726 371.323 135.16 372.169 135.592L372.24 135.629C372.469 134.531 372.713 133.522 372.672 133.075C371.985 125.555 367.132 119.295 367.863 111.314C368.333 106.187 371.591 100.564 376.581 99.4437C377.946 99.1373 379.441 99.1678 381.044 99.6385C382.472 100.057 388.456 105.889 389.176 105.727C389.182 105.726 389.189 105.723 389.195 105.72C390.221 105.263 389.621 100.365 389.583 99.3663C389.351 93.3577 389.284 86.208 395.825 83.4079C396.428 83.1497 397.02 82.9579 397.601 82.8273C402.315 81.7689 406.308 84.719 408.724 88.9701C409.91 91.0556 410.326 94.0587 411.804 93.7268C412.188 93.6406 412.642 93.331 413.198 92.7237C414.73 91.0542 415.003 87.0093 415.721 84.8939C417.517 79.6108 418.571 89.4147 423 85.9999C417.5 94.4999 419.498 103.149 410.751 105.113C402.003 107.077 404.679 86.2626 397.682 87.8341C390.684 89.4056 403.605 112.942 394.559 115.492C394.45 115.522 394.343 115.549 394.235 115.573C386.965 117.205 382.853 104.114 375.812 105.695C372.03 106.544 372.509 111.695 373.865 117.734C374.571 120.876 375.514 124.256 376.218 127.397C376.719 129.624 377.099 131.731 377.189 133.545C377.354 136.876 376.958 141.1 373.81 142.207C373.651 142.264 373.492 142.309 373.334 142.344Z" fill="#9DB5E0"/>
<path d="M20.7494 169.706C20.7234 169.712 20.6964 169.719 20.6699 169.73C21.0578 170.24 21.2865 170.388 21.3879 170.365C21.4894 170.342 21.4647 170.147 21.3463 169.973C21.2295 169.799 21.0187 169.646 20.7494 169.706Z" fill="#D6DEF1"/>
<path fill-rule="evenodd" clip-rule="evenodd" d="M372.24 135.629L372.169 135.592C371.323 135.16 370.473 134.726 369.751 133.978C361.876 125.83 362.498 111.591 350.735 106.642C348.315 105.624 346.024 105.362 343.934 105.831C341.51 106.375 339.358 107.902 337.582 110.366C336.452 111.936 335.438 115.405 333.816 116.424C333.632 116.539 333.435 116.618 333.227 116.664C331.191 117.122 328.066 114.571 326.336 113.544C321.002 110.376 316.356 107.684 310.067 107.055C303.171 106.364 296.015 106.759 289.189 108.292C287.101 108.761 285.046 109.334 283.038 110.017C274.576 112.895 266.62 117.592 259.719 123.258C258.218 124.492 256.208 127.207 254.169 127.667C253.819 127.745 253.469 127.757 253.119 127.684C250.538 127.144 247.358 121.844 245.296 120.154C240.163 115.941 235.173 115.348 230.252 116.453C222.325 118.234 214.572 124.417 206.659 126.976C206.087 127.161 205.511 127.317 204.93 127.448C197.422 129.134 189.245 126.562 181.629 127.545C180.872 127.643 180.149 127.77 179.455 127.925C172.996 129.376 169.166 133.302 165.209 138.941C161.456 144.292 156.291 147.11 150.482 148.414C139.353 150.915 125.856 147.865 115.362 146.45C103.484 144.847 90.6407 143.824 78.7307 146.499C74.8539 147.37 71.0771 148.63 67.4622 150.393C64.1387 152.012 60.9316 154.154 58.2169 156.67C56.4488 158.308 53.9141 162.928 51.8212 163.655C51.692 163.7 51.5637 163.737 51.4323 163.767C48.6795 164.385 45.6141 161.664 43.2089 160.69C40.6487 159.652 38.0018 159.111 35.3193 159.714C35.0669 159.77 34.8139 159.837 34.5607 159.914C29.6664 161.413 27.3859 165.577 26.3266 170.292C25.7584 172.824 25.9777 181.706 22.5237 182.481C22.2518 182.542 21.9576 182.552 21.6384 182.506C17.7722 181.945 14.6059 172.41 12.3629 169.548C9.08139 165.365 3.90395 162.836 -1.331 164.011C-1.80714 164.118 -2.28466 164.256 -2.76138 164.427C-10.61 167.229 -10.2033 175.138 -13.1775 181.515C-13.8181 182.889 -14.4658 183.541 -15.1199 183.688C-16.4696 183.991 -17.8454 182.141 -19.2464 180.029C-21.1337 177.182 -22.0808 173.669 -24.2952 171.046C-28.9596 165.527 -35.6875 167.163 -41.8546 168.52C-49.3021 170.159 -56.8714 171.335 -64.3434 172.889C-71.6661 174.41 -78.9943 176.135 -86.3969 177.225C-87.7408 177.423 -91.7165 178.51 -92.982 177.693C-95.0637 176.345 -93.8536 171.36 -92.7113 168.613C-91.2646 166.845 -89.5109 165.03 -87.6265 163.259C-87.6594 165.616 -86.9553 167.681 -82.9558 168.447C-78.2006 169.358 -71.3108 168.499 -65.0583 167.095C-61.3232 166.256 -57.814 165.222 -55.1267 164.255C-52.5287 163.321 -49.7021 162.485 -46.8273 161.839C-38.4118 159.95 -29.5949 159.701 -24.9842 163.459C-22.5196 164.712 -19.4458 173.462 -16.3081 173.456C-16.1429 173.454 -15.984 173.436 -15.8301 173.402C-12.1377 172.573 -11.4712 162.263 -0.975326 159.906C9.959 157.45 14.164 167.99 18.8716 167.503C18.9864 167.491 19.0998 167.472 19.2117 167.447C23.2133 166.548 25.2824 157.421 31.1186 155.509C31.4179 155.412 31.723 155.328 32.0326 155.259C34.5291 154.698 37.3305 155.015 40.1049 155.339L40.2055 155.35C42.9467 155.669 45.659 155.984 48.0251 155.453C48.8928 155.258 49.7131 154.949 50.4715 154.486C55.1452 151.633 59.0426 147.605 63.8954 144.904C70.7537 141.087 78.0703 138.526 85.6131 136.832C96.3159 134.428 107.474 133.774 118.401 133.769C127.477 133.764 136.549 134.128 145.622 134.191C148.299 134.209 150.421 134.003 152.222 133.598C157.886 132.326 160.37 129.089 166.952 124.678C169.611 122.895 172.255 121.829 174.91 121.233C182.205 119.595 189.578 121.509 197.556 121.864C199.316 121.943 200.846 121.805 202.211 121.499C209.553 119.85 212.049 113.288 218.999 108.91C220.657 107.866 222.335 107.216 224.032 106.835C231.261 105.211 238.823 108.493 246.55 107.181C247.276 107.057 247.998 106.914 248.717 106.753C257.451 104.792 265.594 100.194 273.93 97.1115C277.758 95.6957 281.627 94.492 285.551 93.6109C291.428 92.2909 297.426 91.6955 303.574 92.1981C312.469 92.9239 321.361 104.068 329.619 102.212C330.495 102.015 331.364 101.672 332.222 101.157C340.205 96.3648 344.674 84.9933 353.164 83.0867C354.107 82.8749 355.101 82.7801 356.155 82.8236C361.353 83.0419 370.158 91.7357 375.413 90.5544C375.53 90.5281 375.647 90.4963 375.762 90.4596C380.73 88.8655 380.131 77.1358 385.103 75.489C395.231 77.9949 420.489 80.8561 440.494 72.2533C441.826 74.4384 440.859 75.164 438.299 77.0277C433.495 80.5239 427.843 82.6596 423.104 86.3147C418.676 89.7294 417.517 79.6108 415.721 84.8939C415.003 87.0093 414.73 91.0542 413.198 92.7237C412.642 93.331 412.188 93.6407 411.804 93.7269C410.326 94.0588 409.91 91.0556 408.724 88.9701C406.307 84.719 402.315 81.7689 397.601 82.8274C397.02 82.958 396.428 83.1498 395.825 83.408C389.284 86.208 389.351 93.3577 389.583 99.3664C389.621 100.365 390.221 105.263 389.195 105.72C389.188 105.723 389.182 105.726 389.176 105.727C388.456 105.889 382.472 100.057 381.044 99.6386C379.441 99.1678 377.946 99.1373 376.581 99.4438C371.591 100.564 368.333 106.187 367.863 111.314C367.132 119.295 371.985 125.555 372.672 133.075C372.713 133.522 372.469 134.531 372.24 135.629ZM20.6699 169.73C20.6964 169.719 20.7234 169.712 20.7494 169.706C21.0187 169.646 21.2295 169.799 21.3463 169.973C21.4647 170.147 21.4894 170.342 21.3879 170.365C21.2865 170.388 21.0578 170.24 20.6699 169.73Z" fill="#D6DEF1"/>
<path d="M60.0878 143.368C59.0444 143.603 58.682 141.983 59.724 141.749C60.7674 141.514 61.1298 143.134 60.0878 143.368Z" fill="#D6DEF1"/>
<path d="M73.745 136.675C73.2038 136.797 73.0151 135.957 73.5563 135.835C74.0975 135.713 74.2862 136.554 73.745 136.675Z" fill="#D6DEF1"/>
<path d="M169.389 108.426C168.133 108.708 167.699 106.76 168.951 106.479C170.207 106.197 170.642 108.145 169.389 108.426Z" fill="#D6DEF1"/>
<path d="M192.107 95.0313C191.446 95.1797 191.217 94.1543 191.877 94.0062C192.538 93.8578 192.767 94.8832 192.107 95.0313Z" fill="#D6DEF1"/>
<path d="M312.834 65.962C312.319 66.0777 312.141 65.2787 312.655 65.1633C313.17 65.0476 313.349 65.8464 312.834 65.962Z" fill="#D6DEF1"/>
<path d="M306.743 71.5526C306.172 71.6808 305.511 71.4152 305.536 70.5841L305.543 70.3695C305.556 69.906 305.893 69.6006 306.281 69.5136C306.667 69.4268 307.104 69.5583 307.316 69.9713L307.413 70.1626C307.792 70.9057 307.312 71.4249 306.743 71.5526Z" fill="#D6DEF1"/>
<path d="M400.527 49.3597C399.602 49.5674 399.281 48.1309 400.205 47.9235C401.13 47.7157 401.451 49.1523 400.527 49.3597Z" fill="#D6DEF1"/>
<path d="M136.531 125.773C135.447 126.016 135.073 124.335 136.154 124.092C137.237 123.849 137.613 125.53 136.531 125.773Z" fill="#D6DEF1"/>
<path d="M122.998 126.877C122.034 127.093 121.699 125.597 122.662 125.381C123.627 125.164 123.96 126.661 122.998 126.877Z" fill="#D6DEF1"/>
<path d="M25.8356 140.181C25.1747 140.329 24.9458 139.304 25.6053 139.156C26.2662 139.007 26.4951 140.033 25.8356 140.181Z" fill="#D6DEF1"/>
<path d="M247.362 91.501C246.515 91.6912 246.222 90.3795 247.067 90.1896C247.913 89.9997 248.206 91.3114 247.362 91.501Z" fill="#D6DEF1"/>
<path d="M268.107 85.687C267.552 85.8114 267.36 84.9499 267.913 84.8257C268.469 84.701 268.661 85.5625 268.107 85.687Z" fill="#D6DEF1"/>
<path d="M369.168 73.3773C368.27 73.5789 367.959 72.1853 368.855 71.984C369.754 71.7821 370.066 73.1757 369.168 73.3773Z" fill="#D6DEF1"/>
<path d="M186.559 103.056C184.908 103.427 184.335 100.863 185.983 100.493C187.635 100.122 188.208 102.686 186.559 103.056Z" fill="#D6DEF1"/>
<path d="M65.7237 137.784C64.9054 137.968 64.6212 136.696 65.4382 136.513C66.2578 136.329 66.542 137.6 65.7237 137.784Z" fill="#AABDE3"/>
<path d="M176.575 99.5103C174.698 99.9318 174.048 97.0195 175.921 96.5988C177.797 96.1775 178.447 99.0898 176.575 99.5103Z" fill="#AABDE3"/>
<path d="M408.988 51.5741C407.148 51.9872 406.509 49.1311 408.346 48.7186C410.187 48.3052 410.825 51.1616 408.988 51.5741Z" fill="#AABDE3"/>
<path d="M398.868 56.2932C397.784 56.5365 397.409 54.8538 398.49 54.611C399.573 54.3677 399.95 56.0501 398.868 56.2932Z" fill="#AABDE3"/>
<path d="M11.7007 150.887C10.816 151.086 10.5091 149.713 11.3925 149.515C12.2771 149.316 12.584 150.689 11.7007 150.887Z" fill="#AABDE3"/>
<path d="M254.92 80.1499C253.518 80.4646 253.033 78.2901 254.431 77.976C255.831 77.6617 256.318 79.8358 254.92 80.1499Z" fill="#AABDE3"/>
<path d="M329.127 91.4606C328.347 91.6356 328.077 90.4267 328.855 90.252C329.634 90.077 329.905 91.2859 329.127 91.4606Z" fill="#AABDE3"/>
<path d="M334.753 83.7885C333.948 83.9693 333.668 82.7176 334.472 82.537C335.28 82.3556 335.559 83.6074 334.753 83.7885Z" fill="#AABDE3"/>
</g>
</svg>
