<svg width="30" height="38" viewBox="0 0 30 38" fill="none" xmlns="http://www.w3.org/2000/svg">
<path d="M26.2626 8.19312C26.2626 8.19312 28.7921 7.24624 28.5813 9.5458C28.511 10.4927 27.8786 13.8067 27.3868 17.3914L25.7005 28.0099C25.7005 28.0099 25.56 29.5655 24.2952 29.8361C23.0304 30.1066 21.1333 28.8892 20.782 28.6186C20.5009 28.4157 15.5122 25.3722 13.7556 23.8842C13.2637 23.4784 12.7016 22.6668 13.8258 21.7199L21.2036 14.9566C22.0467 14.1449 22.8899 12.2512 19.3767 14.5507L9.53978 20.976C9.53978 20.976 8.41556 21.6523 6.30768 21.0436L1.74051 19.6909C1.74051 19.6909 0.0541734 18.6764 2.93499 17.6619C9.96139 14.4831 18.6038 11.2366 26.2626 8.19312Z" fill="#2596FF"/>
</svg>
