<svg width="30" height="37" viewBox="0 0 30 37" fill="none" xmlns="http://www.w3.org/2000/svg">
<path d="M26.2626 7.73511C26.2626 7.73511 28.7921 6.78824 28.5813 9.08779C28.511 10.0347 27.8786 13.3487 27.3868 16.9334L25.7005 27.5519C25.7005 27.5519 25.56 29.1075 24.2952 29.378C23.0304 29.6485 21.1333 28.4312 20.782 28.1606C20.5009 27.9577 15.5122 24.9142 13.7556 23.4262C13.2637 23.0204 12.7016 22.2088 13.8258 21.2619L21.2036 14.4986C22.0467 13.6869 22.8899 11.7932 19.3767 14.0927L9.53978 20.518C9.53978 20.518 8.41556 21.1943 6.30768 20.5856L1.74051 19.2329C1.74051 19.2329 0.0541734 18.2184 2.93499 17.2039C9.96139 14.0251 18.6038 10.7786 26.2626 7.73511Z" fill="white"/>
</svg>
