<svg width="179" height="23" viewBox="0 0 179 23" fill="none" xmlns="http://www.w3.org/2000/svg">
<g clip-path="url(#clip0_119_589)">
<path d="M7.05418 5.30082H1.39279C1.30822 5.30143 1.22437 5.28447 1.14611 5.2509C1.06786 5.21734 0.996767 5.16784 0.936962 5.10529C0.877156 5.04273 0.829832 4.96837 0.797739 4.88652C0.765646 4.80468 0.749424 4.71697 0.750016 4.62851V0.698097C0.749424 0.609635 0.765646 0.521933 0.797739 0.440085C0.829832 0.358238 0.877156 0.283877 0.936962 0.221324C0.996767 0.158771 1.06786 0.109273 1.14611 0.0757053C1.22437 0.0421379 1.30822 0.0251707 1.39279 0.0257895H17.5364C18.0476 0.0264738 18.5377 0.23919 18.8992 0.617289C19.2607 0.995391 19.4641 1.508 19.4647 2.04271V4.62851C19.4653 4.71697 19.4491 4.80468 19.417 4.88652C19.385 4.96837 19.3376 5.04273 19.2778 5.10529C19.218 5.16784 19.1469 5.21734 19.0686 5.2509C18.9904 5.28447 18.9065 5.30143 18.8219 5.30082H13.1358V21.9792C13.1364 22.0677 13.1202 22.1554 13.0881 22.2372C13.0561 22.3191 13.0087 22.3935 12.9489 22.456C12.8891 22.5185 12.818 22.568 12.7398 22.6016C12.6615 22.6351 12.5776 22.6522 12.4931 22.6515H8.98252C8.47129 22.6508 7.98118 22.4381 7.6197 22.0601C7.25821 21.6819 7.05483 21.1694 7.05418 20.6346V5.30082Z" fill="white"/>
<path d="M23.7417 8.30081L23.7664 8.43011C24.5575 6.9562 25.9914 6.30975 27.4747 6.30975C28.8012 6.28758 30.0909 6.76479 31.1089 7.65437C31.217 7.75663 31.2882 7.8946 31.3108 8.04521C31.3333 8.19582 31.3056 8.34995 31.2325 8.48182L29.5514 11.6623C29.5099 11.7412 29.4532 11.8104 29.3851 11.8653C29.3169 11.9203 29.2385 11.96 29.1549 11.9818C29.0714 12.0036 28.9844 12.0072 28.8995 11.9923C28.8146 11.9774 28.7336 11.9443 28.6614 11.8951C28.0632 11.503 27.364 11.3133 26.6589 11.352C25.2497 11.352 24.0383 12.2571 24.0383 14.3516V21.9797C24.039 22.0681 24.0228 22.1559 23.9906 22.2377C23.9586 22.3195 23.9113 22.3939 23.8514 22.4564C23.7916 22.519 23.7205 22.5685 23.6423 22.6021C23.564 22.6356 23.4802 22.6526 23.3956 22.652H20.2558C19.7447 22.6513 19.2545 22.4386 18.8931 22.0605C18.5315 21.6824 18.3282 21.1698 18.3275 20.6351V7.34407C18.3269 7.25561 18.3432 7.16791 18.3752 7.08606C18.4074 7.00421 18.4547 6.92985 18.5145 6.8673C18.5743 6.80475 18.6453 6.75525 18.7236 6.72168C18.8019 6.68811 18.8857 6.67114 18.9703 6.67176H21.8628C22.3061 6.68034 22.7336 6.84622 23.0749 7.14222C23.4163 7.4382 23.6514 7.84673 23.7417 8.30081Z" fill="white"/>
<path d="M43.8161 6.69764H46.7086C47.2199 6.69833 47.7099 6.91104 48.0715 7.28914C48.433 7.66724 48.6363 8.17986 48.6369 8.7146V21.9797C48.6376 22.0681 48.6214 22.1559 48.5892 22.2377C48.5572 22.3196 48.5099 22.394 48.45 22.4565C48.3902 22.519 48.3191 22.5685 48.2409 22.6021C48.1626 22.6356 48.0788 22.6527 47.9942 22.652H45.0275C44.5682 22.6499 44.1247 22.477 43.776 22.1644C43.4273 21.8519 43.1962 21.4198 43.1239 20.9454C41.8383 22.4969 39.7864 23.0399 38.0806 22.9364C33.6058 22.652 31.1089 19.3163 31.1089 14.6619C31.1089 9.95575 34.0756 6.33563 38.5256 6.33563C40.6764 6.33563 42.2092 7.11137 43.0003 8.40427L43.1981 7.24067C43.2249 7.08922 43.3012 6.95225 43.414 6.85319C43.5267 6.75413 43.6689 6.69914 43.8161 6.69764ZM36.7703 14.6619C36.7703 16.8857 38.13 18.1527 39.8358 18.1527C41.7394 18.1527 42.9756 16.5495 42.9756 14.6619C42.9756 12.5415 41.8383 11.1452 39.8358 11.1452C38.13 11.1452 36.7703 12.4381 36.7703 14.6619Z" fill="white"/>
<path d="M57.2404 11.1445L58.872 16.3162L60.4048 11.1445L61.8881 7.11071C61.934 6.98608 62.0157 6.8794 62.122 6.80531C62.2282 6.73122 62.3538 6.69339 62.4815 6.69697H65.2009C65.5158 6.69707 65.8258 6.7781 66.1038 6.93294C66.3817 7.08778 66.6191 7.31167 66.7948 7.58493C66.9706 7.8582 67.0796 8.17245 67.112 8.50008C67.1444 8.82773 67.0994 9.15867 66.9809 9.4638L61.9376 22.3152C61.8916 22.4398 61.8099 22.5465 61.7037 22.6206C61.5974 22.6947 61.4719 22.7325 61.3442 22.7289H57.3887C57.0123 22.7237 56.6451 22.6067 56.33 22.3915C56.0148 22.1763 55.7647 21.8719 55.6087 21.5136L49.9226 7.602C49.8813 7.49987 49.8649 7.38861 49.8748 7.27821C49.8848 7.16781 49.9208 7.06172 49.9796 6.96945C50.0384 6.87718 50.1181 6.80163 50.2118 6.74956C50.3054 6.69749 50.4099 6.67054 50.5159 6.67112H55.139C55.2666 6.66752 55.3921 6.70537 55.4984 6.77946C55.6047 6.85354 55.6863 6.96023 55.7323 7.08485L57.2404 11.1445Z" fill="white"/>
<path d="M80.2814 6.74839H83.1739C83.6848 6.74907 84.1751 6.96179 84.5369 7.33989C84.8979 7.71798 85.1014 8.2306 85.1022 8.76528V22.0305C85.1031 22.1189 85.0866 22.2067 85.0544 22.2885C85.0223 22.3703 84.9753 22.4447 84.9152 22.5073C84.8558 22.5698 84.7841 22.6193 84.7058 22.6529C84.6276 22.6864 84.5443 22.7034 84.4594 22.7028H81.4928C81.0335 22.7006 80.5899 22.5278 80.2413 22.2152C79.8925 21.9025 79.6614 21.4705 79.5892 20.9962C78.3036 22.5477 76.2517 23.0906 74.5458 22.9872C70.0711 22.7028 67.5742 19.3671 67.5742 14.7127C67.5742 10.0065 70.5408 6.38638 74.9908 6.38638C77.1417 6.38638 78.6744 7.16212 79.4656 8.45502L79.6633 7.29141C79.6901 7.13997 79.7664 7.003 79.8792 6.90394C79.992 6.80488 80.1341 6.74989 80.2814 6.74839ZM73.2356 14.7385C73.2356 16.9623 74.5953 18.2294 76.3011 18.2294C78.2047 18.2294 79.4408 16.6262 79.4408 14.7385C79.4408 12.6181 78.3036 11.2219 76.3011 11.2219C74.5953 11.2219 73.2356 12.5147 73.2356 14.7385Z" fill="white"/>
<path d="M93.4583 2.01692V21.9793C93.4592 22.0677 93.4427 22.1555 93.4105 22.2373C93.3784 22.3192 93.3314 22.3935 93.2713 22.4561C93.2111 22.5186 93.1402 22.5681 93.062 22.6017C92.9837 22.6352 92.9004 22.6522 92.8156 22.6516H89.75C89.2391 22.6509 88.7487 22.4382 88.387 22.0601C88.0252 21.682 87.8225 21.1694 87.8217 20.6346V0.672309C87.8208 0.583847 87.8373 0.496145 87.8695 0.414297C87.9016 0.33245 87.9486 0.258089 88.0087 0.195536C88.0681 0.132983 88.1398 0.0834844 88.218 0.0499169C88.2963 0.0163494 88.3796 -0.000617793 88.4644 1.08074e-06H91.53C92.0409 0.000685293 92.5312 0.213402 92.893 0.5915C93.254 0.969597 93.4575 1.48222 93.4583 2.01692Z" fill="white"/>
<path d="M108.119 6.72343H111.011C111.522 6.72412 112.012 6.93684 112.374 7.31493C112.735 7.69303 112.939 8.20564 112.939 8.74033V22.0055C112.94 22.094 112.924 22.1817 112.892 22.2635C112.86 22.3453 112.813 22.4197 112.752 22.4823C112.693 22.5448 112.621 22.5943 112.543 22.6279C112.465 22.6615 112.382 22.6784 112.297 22.6778H109.33C108.871 22.6756 108.427 22.5028 108.078 22.1902C107.73 21.8776 107.499 21.4455 107.426 20.9712C106.141 22.5227 104.089 23.0657 102.383 22.9622C97.9083 22.6778 95.4114 19.3421 95.4114 14.6877C95.4114 9.98156 98.3781 6.36142 102.828 6.36142C104.979 6.36142 106.512 7.13716 107.303 8.43006L107.501 7.26645C107.524 7.11323 107.599 6.97391 107.712 6.87414C107.826 6.77436 107.97 6.72085 108.119 6.72343ZM101.073 14.6877C101.073 16.9115 102.433 18.1785 104.138 18.1785C106.042 18.1785 107.278 16.5753 107.278 14.6877C107.278 12.5674 106.141 11.171 104.138 11.171C102.433 11.171 101.073 12.4639 101.073 14.6877Z" fill="white"/>
<path d="M117.513 16.8856C121.642 16.8856 121.617 22.7295 117.513 22.7295C113.483 22.7036 113.409 16.8856 117.513 16.8856Z" fill="white"/>
<path d="M135.313 19.3678C135.395 19.4586 135.457 19.5662 135.497 19.6836C135.536 19.8011 135.551 19.9259 135.542 20.05C135.533 20.1742 135.498 20.2949 135.442 20.4046C135.386 20.5141 135.308 20.6102 135.214 20.6865C133.627 21.996 131.672 22.7229 129.652 22.7552C125.202 22.7552 121.024 20.4539 121.024 14.5065C121.024 8.71434 125.276 6.15438 129.553 6.15438C131.058 6.14712 132.541 6.54801 133.854 7.31799C134.078 7.45179 134.269 7.63674 134.414 7.85898C134.56 8.08122 134.655 8.33497 134.693 8.60122C134.731 8.86742 134.711 9.13916 134.634 9.39617C134.557 9.65309 134.426 9.88854 134.25 10.0848L133.063 11.4294C132.918 11.5881 132.722 11.686 132.514 11.7051C132.304 11.7241 132.095 11.6629 131.926 11.5329C131.325 11.0962 130.606 10.8699 129.874 10.8864C127.723 10.8864 126.537 12.5413 126.537 14.5324C126.537 16.2648 127.674 17.8163 129.825 17.8163C130.465 17.8224 131.095 17.653 131.654 17.325C131.983 17.1342 132.364 17.0637 132.735 17.1246C133.107 17.1855 133.448 17.3743 133.706 17.6612L135.313 19.3678Z" fill="white"/>
<path d="M153.261 14.5064C153.261 20.2986 148.861 22.8327 144.559 22.8327C140.183 22.8327 135.857 20.3245 135.857 14.5064C135.857 8.61076 140.134 6.15428 144.559 6.15428C149.059 6.15428 153.261 8.71426 153.261 14.5064ZM147.699 14.5064C147.699 12.6705 146.562 11.0156 144.559 11.0156C142.557 11.0156 141.419 12.6705 141.419 14.5064C141.419 16.3423 142.557 17.9714 144.559 17.9714C146.463 17.9714 147.699 16.4458 147.699 14.5064Z" fill="white"/>
<path d="M166.092 22.4441C165.522 22.4436 164.975 22.2065 164.572 21.7847C164.169 21.3629 163.941 20.791 163.941 20.1944V13.6265C163.941 11.7906 163.348 11.17 162.334 11.17C161.37 11.17 160.357 11.9716 160.332 13.7299V21.6425C160.334 21.7515 160.314 21.8598 160.274 21.9608C160.236 22.0618 160.177 22.1536 160.103 22.2308C160.029 22.3079 159.941 22.3688 159.845 22.4098C159.748 22.4509 159.645 22.4713 159.541 22.4699H156.846C156.276 22.4695 155.729 22.2324 155.326 21.8105C154.923 21.3887 154.695 20.8168 154.695 20.2202V7.34299C154.694 7.23393 154.713 7.12569 154.753 7.02465C154.792 6.92362 154.85 6.83184 154.924 6.75471C154.998 6.67759 155.085 6.61669 155.182 6.57562C155.279 6.53453 155.382 6.5141 155.486 6.51553H157.786C158.265 6.51205 158.732 6.67898 159.109 6.989C159.486 7.29903 159.752 7.73379 159.862 8.22216C160.826 6.82582 162.483 6.15352 164.065 6.17938C165.598 6.20523 167.081 6.95512 167.848 8.42903C169.108 6.77411 170.814 6.12766 172.916 6.12766C176.204 6.12766 178.75 8.24802 178.75 13.5489V21.5908C178.752 21.6998 178.732 21.8081 178.692 21.9091C178.654 22.0101 178.595 22.1019 178.521 22.179C178.448 22.2561 178.359 22.3171 178.263 22.3581C178.167 22.3992 178.063 22.4196 177.959 22.4182H175.215C174.644 22.4177 174.097 22.1807 173.694 21.7588C173.291 21.337 173.064 20.7651 173.064 20.1685V13.6265C173.064 11.9457 172.322 11.2734 171.482 11.2734C170.517 11.2734 169.504 11.9457 169.504 13.7041V21.6425C169.506 21.7515 169.486 21.8598 169.446 21.9608C169.407 22.0618 169.349 22.1536 169.275 22.2308C169.201 22.3079 169.113 22.3688 169.017 22.4098C168.92 22.4509 168.817 22.4713 168.713 22.4699H166.092V22.4441Z" fill="white"/>
</g>
<defs>
<clipPath id="clip0_119_589">
<rect width="178" height="23" fill="white" transform="translate(0.75)"/>
</clipPath>
</defs>
</svg>
