<svg width="152" height="31" viewBox="0 0 152 31" fill="none" xmlns="http://www.w3.org/2000/svg">
<path d="M75.5504 30.4654C70.2863 29.4934 67.2643 25.4112 67.2643 19.2878C67.2643 10.4915 77.1589 5.48585 83.5442 11.0747C85.4451 12.727 86.7612 16.0317 86.7612 19.142V21.2317H71.2124L71.6511 22.7869C72.9671 27.3065 79.0599 28.8131 81.7895 25.3626C82.5206 24.4878 83.2517 24.1476 84.519 24.1476C86.4687 24.1476 86.6149 24.4878 85.5426 26.5775C84.1291 29.299 79.3523 31.1944 75.5504 30.4654ZM82.5693 16.5177C82.1306 14.7195 80.1322 12.5812 78.475 12.241C75.9404 11.7064 72.7721 13.6504 71.6998 16.5177L71.1637 17.8298H82.8618L82.5693 16.5177Z" fill="black"/>
<path d="M98.2156 30.4654C96.1684 30.028 94.7549 29.1533 93.8775 27.9383C93.0976 26.8691 93.0976 26.8691 93.0976 28.4243C93.0976 29.9308 93.0002 29.9794 91.148 29.9794H89.1983V1.79238H93.0976V12.1438L94.2187 11.1233C95.5835 9.81111 98.508 8.59615 100.263 8.59615C102.359 8.59615 105.576 10.3943 106.892 12.3868C110.742 17.8784 109.085 27.0635 103.821 29.7364C102.115 30.5626 99.9216 30.8542 98.2156 30.4654ZM102.554 25.8486C104.26 24.2934 104.796 22.7383 104.796 19.3364C104.796 15.7401 103.431 13.5046 100.604 12.5326C98.8005 11.9008 98.4593 11.9494 96.7046 12.7756C94.3649 13.8934 93.0976 16.2261 93.0976 19.4336C93.0976 24.099 95.486 27.0635 99.1904 27.0635C100.701 27.0635 101.579 26.7233 102.554 25.8486Z" fill="black"/>
<path d="M119.37 30.4654C116.786 30.028 114.495 28.4729 112.838 26.1888C111.668 24.4878 111.376 23.5158 111.23 20.6971C110.986 16.4205 111.961 13.6504 114.544 11.3177C121.271 5.24286 130.629 9.9569 130.629 19.4336V21.2317H122.782C115.812 21.2317 114.983 21.3289 115.227 22.0093C115.373 22.4467 115.519 22.9327 115.519 23.1757C115.519 24.1476 118.151 26.5775 119.711 27.0149C121.904 27.5981 124.439 26.9177 125.657 25.3626C126.389 24.4878 127.12 24.1476 128.387 24.1476C130.337 24.1476 130.483 24.4878 129.411 26.5775C127.997 29.299 123.22 31.1458 119.37 30.4654ZM126.486 16.7607C125.999 15.0597 124.585 13.2616 123.172 12.5812C120.442 11.2691 116.738 13.1644 115.568 16.4205L115.08 17.8298H120.929C126.779 17.8298 126.779 17.8298 126.486 16.7607Z" fill="black"/>
<path d="M140.329 30.271C137.209 29.4448 135.26 27.8897 133.992 25.2654C131.068 19.2392 132.92 12.727 138.428 9.9083C140.67 8.74194 141.547 8.54755 143.595 8.74194C145.008 8.88774 146.812 9.32512 147.591 9.76251C149.395 10.6859 151.393 13.1644 151.832 15.0597C152.173 16.3233 152.124 16.3719 150.321 16.3719C148.713 16.3719 148.274 16.1289 147.591 14.9139C147.104 14.0878 145.934 13.0672 144.911 12.6298C142.425 11.6092 139.695 12.484 138.038 14.9139C137.014 16.4205 136.917 17.0523 137.063 20.1626C137.209 23.613 137.307 23.856 139.062 25.4112C140.524 26.7719 141.255 27.0635 143.01 27.0635C145.301 27.0635 147.396 25.8 147.933 24.1476C148.176 23.37 148.664 23.1757 150.175 23.1757C152.368 23.1757 152.466 23.4672 151.101 26.0916C149.931 28.3757 148.03 29.785 145.203 30.4168C142.668 31 143.107 31.0486 140.329 30.271Z" fill="black"/>
<path d="M47.28 28.7645C47.28 27.9383 49.7658 24.099 54.5426 17.441L61.8051 7.38119L48.2548 7.0896V3.25033H67.2643V4.61108C67.2643 5.63165 65.3146 8.74194 60.1479 15.9345L53.0803 25.8486L67.2643 26.1402V29.9794H47.28V28.7645Z" fill="black"/>
<path d="M10.2359 28.8131C8.7736 27.6467 5.84907 25.071 3.80189 23.0785C0.341196 19.8224 0 19.3364 0 17.6354C0 15.3513 1.51101 13.1644 3.31447 12.7756C5.02045 12.3868 36.8004 15.2541 38.0189 15.8859C39.4812 16.6635 40.9435 18.8504 40.9435 20.2598C40.9435 21.7177 38.8475 25.071 35.8255 28.4243L33.7296 30.7084L12.9167 31L10.2359 28.8131ZM34.2658 25.071C37.3365 21.5719 37.9214 20.4056 36.9953 19.5308C36.118 18.656 4.43554 15.6429 3.75315 16.3233C2.82705 17.2467 3.85064 18.656 8.62737 23.0299L13.5991 27.5495H32.0724L34.2658 25.071Z" fill="black"/>
<path d="M18.2783 11.7064C14.5252 11.3177 10.8208 10.7831 10.0409 10.4429C7.45756 9.42233 6.53146 5.24287 8.28618 2.42416C10.2359 -0.783331 10.7233 -0.783331 23.6887 2.27837C31.0488 4.07651 32.6085 4.61109 33.7296 5.72885C35.4356 7.38119 35.4843 9.08214 33.8271 10.9775C32.6085 12.4354 32.4623 12.484 28.8554 12.4354C26.7595 12.3868 22.0315 12.0466 18.2783 11.7064ZM31.6824 8.59615C31.6824 7.76998 30.1227 7.3326 19.0095 4.75688C11.7956 3.10454 11.6006 3.10454 11.162 3.78492C10.5283 4.80548 10.6258 7.1382 11.3569 7.42979C12.3805 7.81858 30.3664 9.42233 31.0975 9.17933C31.39 9.08214 31.6824 8.79055 31.6824 8.59615Z" fill="black"/>
</svg>
